<?xml version="1.0" encoding="UTF-8"?>
<svg xmlns="http://www.w3.org/2000/svg" xmlns:xlink="http://www.w3.org/1999/xlink" width="288px" height="295.2px" viewBox="0 0 288 295.2" version="1.1" id="Fig:dens">
  <metadata xmlns:gridsvg="http://www.stat.auckland.ac.nz/~paul/R/gridSVG/">
    <gridsvg:generator name="gridSVG" version="1.7-0" time="2020-10-02 12:51:16"/>
    <gridsvg:argument name="name" value="/media/mferrer/Datos/Mireia/Scripts/Paquets_mireia/maUEB/vignettes/results/QCDir.NormData.f/dens.svg"/>
    <gridsvg:argument name="exportCoords" value="none"/>
    <gridsvg:argument name="exportMappings" value="none"/>
    <gridsvg:argument name="exportJS" value="none"/>
    <gridsvg:argument name="res" value="72"/>
    <gridsvg:argument name="prefix" value="Fig:dens"/>
    <gridsvg:argument name="addClasses" value="FALSE"/>
    <gridsvg:argument name="indent" value="TRUE"/>
    <gridsvg:argument name="htmlWrapper" value="FALSE"/>
    <gridsvg:argument name="usePaths" value="none"/>
    <gridsvg:argument name="uniqueNames" value="TRUE"/>
    <gridsvg:separator name="id.sep" value="."/>
    <gridsvg:separator name="gPath.sep" value="::"/>
    <gridsvg:separator name="vpPath.sep" value="::"/>
  </metadata>
  <g transform="translate(0, 295.2) scale(1, -1)">
    <g id="Fig:densgridSVG" fill="none" stroke="rgb(0,0,0)" stroke-dasharray="none" stroke-width="0.75" font-size="12" font-family="Helvetica, Arial, FreeSans, Liberation Sans, Nimbus Sans L, sans-serif" opacity="1" stroke-linecap="round" stroke-linejoin="round" stroke-miterlimit="10" stroke-opacity="1" fill-opacity="0" font-weight="normal" font-style="normal">
      <g id="Fig:densplot_01.background.1">
        <rect id="Fig:densplot_01.background.1.1" x="0" y="0" width="288" height="295.2" transform="" fill="none" stroke="none" stroke-opacity="0" fill-opacity="0"/>
      </g>
      <g id="Fig:densplot_01.toplevel.vp.1" font-size="12">
        <g id="Fig:densplot_01.main.vp.1">
          <g id="Fig:densGRID.VP.1634.1">
            <g id="Fig:densplot_01.key.frame.1">
              <g id="Fig:densGRID.VP.1635.1">
                <g id="Fig:densGRID.cellGrob.5776.1">
                  <g id="Fig:densplot_01.key.background.1">
                    <rect id="Fig:densplot_01.key.background.1.1" x="100.64" y="254.71" width="86.71" height="34.49" transform="" fill="none" opacity="1" stroke="none" stroke-opacity="0" fill-opacity="0"/>
                  </g>
                </g>
              </g>
              <g id="Fig:densGRID.VP.1636.1">
                <g id="Fig:densGRID.cellGrob.5777.1">
                  <g id="Fig:densplot_01.key.rect.1.1.1">
                    <rect id="Fig:densplot_01.key.rect.1.1.1.1" x="107.32" y="277.7" width="33.36" height="11.5" transform="" opacity="1" fill="rgb(228,26,28)" stroke="rgb(0,0,0)" stroke-opacity="1" fill-opacity="1"/>
                  </g>
                </g>
              </g>
              <g id="Fig:densGRID.VP.1637.1">
                <g id="Fig:densGRID.cellGrob.5778.1">
                  <g id="Fig:densplot_01.key.rect.1.2.1">
                    <rect id="Fig:densplot_01.key.rect.1.2.1.1" x="107.32" y="266.21" width="33.36" height="11.5" transform="" opacity="1" fill="rgb(55,126,184)" stroke="rgb(0,0,0)" stroke-opacity="1" fill-opacity="1"/>
                  </g>
                </g>
              </g>
              <g id="Fig:densGRID.VP.1638.1">
                <g id="Fig:densGRID.cellGrob.5779.1">
                  <g id="Fig:densplot_01.key.rect.1.3.1">
                    <rect id="Fig:densplot_01.key.rect.1.3.1.1" x="107.32" y="254.71" width="33.36" height="11.5" transform="" opacity="1" fill="rgb(77,175,74)" stroke="rgb(0,0,0)" stroke-opacity="1" fill-opacity="1"/>
                  </g>
                </g>
              </g>
              <g id="Fig:densGRID.VP.1639.1">
                <g id="Fig:densGRID.cellGrob.5780.1">
                  <g id="Fig:densplot_01.key.text.2.1.1">
                    <g id="Fig:densplot_01.key.text.2.1.1.1" transform="translate(154.02, 283.45)" stroke-width="0.1">
                      <g id="Fig:densplot_01.key.text.2.1.1.1.scale" transform="scale(1, -1)">
                        <text x="0" y="0" id="Fig:densplot_01.key.text.2.1.1.1.text" text-anchor="start" stroke="rgb(0,0,0)" opacity="1" fill="rgb(0,0,0)" stroke-opacity="1" fill-opacity="1" font-size="12" font-weight="normal" font-style="normal">
                          <tspan id="Fig:densplot_01.key.text.2.1.1.1.tspan.1" dy="4.31" x="0">CTL</tspan>
                        </text>
                      </g>
                    </g>
                  </g>
                </g>
              </g>
              <g id="Fig:densGRID.VP.1640.1">
                <g id="Fig:densGRID.cellGrob.5781.1">
                  <g id="Fig:densplot_01.key.text.2.2.1">
                    <g id="Fig:densplot_01.key.text.2.2.1.1" transform="translate(154.02, 271.96)" stroke-width="0.1">
                      <g id="Fig:densplot_01.key.text.2.2.1.1.scale" transform="scale(1, -1)">
                        <text x="0" y="0" id="Fig:densplot_01.key.text.2.2.1.1.text" text-anchor="start" stroke="rgb(0,0,0)" opacity="1" fill="rgb(0,0,0)" stroke-opacity="1" fill-opacity="1" font-size="12" font-weight="normal" font-style="normal">
                          <tspan id="Fig:densplot_01.key.text.2.2.1.1.tspan.1" dy="4.31" x="0">PD1</tspan>
                        </text>
                      </g>
                    </g>
                  </g>
                </g>
              </g>
              <g id="Fig:densGRID.VP.1641.1">
                <g id="Fig:densGRID.cellGrob.5782.1">
                  <g id="Fig:densplot_01.key.text.2.3.1">
                    <g id="Fig:densplot_01.key.text.2.3.1.1" transform="translate(154.02, 260.46)" stroke-width="0.1">
                      <g id="Fig:densplot_01.key.text.2.3.1.1.scale" transform="scale(1, -1)">
                        <text x="0" y="0" id="Fig:densplot_01.key.text.2.3.1.1.text" text-anchor="start" stroke="rgb(0,0,0)" opacity="1" fill="rgb(0,0,0)" stroke-opacity="1" fill-opacity="1" font-size="12" font-weight="normal" font-style="normal">
                          <tspan id="Fig:densplot_01.key.text.2.3.1.1.tspan.1" dy="4.31" x="0">CMP</tspan>
                        </text>
                      </g>
                    </g>
                  </g>
                </g>
              </g>
            </g>
          </g>
        </g>
        <g id="Fig:densplot_01.ylab.vp.1">
          <g id="Fig:densplot_01.ylab.1">
            <g id="Fig:densplot_01.ylab.1.1" transform="translate(10.31, 142.45)" stroke-width="0.1">
              <g id="Fig:densplot_01.ylab.1.1.scale" transform="scale(1, -1)">
                <text x="0" y="0" id="Fig:densplot_01.ylab.1.1.text" transform="rotate(-90)" text-anchor="middle" opacity="1" stroke="rgb(0,0,0)" fill="rgb(0,0,0)" stroke-opacity="1" fill-opacity="1" font-size="12" font-weight="normal" font-style="normal">
                  <tspan id="Fig:densplot_01.ylab.1.1.tspan.1" dy="4.31" x="0">Density</tspan>
                </text>
              </g>
            </g>
          </g>
        </g>
        <g id="Fig:densplot_01.figure.vp.1"/>
        <defs>
          <clipPath id="Fig:densplot_01.panel.1.1.vp.1.clipPath">
            <rect x="44.8" y="42.19" width="231.2" height="200.52" fill="none" stroke="none"/>
          </clipPath>
        </defs>
        <g id="Fig:densplot_01.panel.1.1.vp.1" clip-path="url(#Fig:densplot_01.panel.1.1.vp.1.clipPath)"/>
        <g id="Fig:densplot_01.strip.1.1.off.vp.1"/>
        <g id="Fig:densplot_01.strip.left.1.1.off.vp.1">
          <g id="Fig:densplot_01.ticks.left.panel.1.1.1">
            <polyline id="Fig:densplot_01.ticks.left.panel.1.1.1.1" points="44.8,54.48 39.13,54.48" stroke="rgb(0,0,0)" opacity="1" stroke-dasharray="none" stroke-width="0.75" stroke-opacity="1" fill="none"/>
            <polyline id="Fig:densplot_01.ticks.left.panel.1.1.1.2" points="44.8,100.28 39.13,100.28" stroke="rgb(0,0,0)" opacity="1" stroke-dasharray="none" stroke-width="0.75" stroke-opacity="1" fill="none"/>
            <polyline id="Fig:densplot_01.ticks.left.panel.1.1.1.3" points="44.8,146.08 39.13,146.08" stroke="rgb(0,0,0)" opacity="1" stroke-dasharray="none" stroke-width="0.75" stroke-opacity="1" fill="none"/>
            <polyline id="Fig:densplot_01.ticks.left.panel.1.1.1.4" points="44.8,191.87 39.13,191.87" stroke="rgb(0,0,0)" opacity="1" stroke-dasharray="none" stroke-width="0.75" stroke-opacity="1" fill="none"/>
            <polyline id="Fig:densplot_01.ticks.left.panel.1.1.1.5" points="44.8,237.67 39.13,237.67" stroke="rgb(0,0,0)" opacity="1" stroke-dasharray="none" stroke-width="0.75" stroke-opacity="1" fill="none"/>
          </g>
          <g id="Fig:densplot_01.ticklabels.left.panel.1.1.1">
            <g id="Fig:densplot_01.ticklabels.left.panel.1.1.1.1" transform="translate(33.47, 54.48)" stroke-width="0.1">
              <g id="Fig:densplot_01.ticklabels.left.panel.1.1.1.1.scale" transform="scale(1, -1)">
                <text x="0" y="0" id="Fig:densplot_01.ticklabels.left.panel.1.1.1.1.text" transform="rotate(-90)" text-anchor="middle" stroke="rgb(0,0,0)" opacity="1" fill="rgb(0,0,0)" stroke-opacity="1" fill-opacity="1" font-size="9.6" font-weight="normal" font-style="normal">
                  <tspan id="Fig:densplot_01.ticklabels.left.panel.1.1.1.1.tspan.1" dy="0" x="0">0.00</tspan>
                </text>
              </g>
            </g>
            <g id="Fig:densplot_01.ticklabels.left.panel.1.1.1.2" transform="translate(33.47, 100.28)" stroke-width="0.1">
              <g id="Fig:densplot_01.ticklabels.left.panel.1.1.1.2.scale" transform="scale(1, -1)">
                <text x="0" y="0" id="Fig:densplot_01.ticklabels.left.panel.1.1.1.2.text" transform="rotate(-90)" text-anchor="middle" stroke="rgb(0,0,0)" opacity="1" fill="rgb(0,0,0)" stroke-opacity="1" fill-opacity="1" font-size="9.6" font-weight="normal" font-style="normal">
                  <tspan id="Fig:densplot_01.ticklabels.left.panel.1.1.1.2.tspan.1" dy="0" x="0">0.05</tspan>
                </text>
              </g>
            </g>
            <g id="Fig:densplot_01.ticklabels.left.panel.1.1.1.3" transform="translate(33.47, 146.08)" stroke-width="0.1">
              <g id="Fig:densplot_01.ticklabels.left.panel.1.1.1.3.scale" transform="scale(1, -1)">
                <text x="0" y="0" id="Fig:densplot_01.ticklabels.left.panel.1.1.1.3.text" transform="rotate(-90)" text-anchor="middle" stroke="rgb(0,0,0)" opacity="1" fill="rgb(0,0,0)" stroke-opacity="1" fill-opacity="1" font-size="9.6" font-weight="normal" font-style="normal">
                  <tspan id="Fig:densplot_01.ticklabels.left.panel.1.1.1.3.tspan.1" dy="0" x="0">0.10</tspan>
                </text>
              </g>
            </g>
            <g id="Fig:densplot_01.ticklabels.left.panel.1.1.1.4" transform="translate(33.47, 191.87)" stroke-width="0.1">
              <g id="Fig:densplot_01.ticklabels.left.panel.1.1.1.4.scale" transform="scale(1, -1)">
                <text x="0" y="0" id="Fig:densplot_01.ticklabels.left.panel.1.1.1.4.text" transform="rotate(-90)" text-anchor="middle" stroke="rgb(0,0,0)" opacity="1" fill="rgb(0,0,0)" stroke-opacity="1" fill-opacity="1" font-size="9.6" font-weight="normal" font-style="normal">
                  <tspan id="Fig:densplot_01.ticklabels.left.panel.1.1.1.4.tspan.1" dy="0" x="0">0.15</tspan>
                </text>
              </g>
            </g>
            <g id="Fig:densplot_01.ticklabels.left.panel.1.1.1.5" transform="translate(33.47, 237.67)" stroke-width="0.1">
              <g id="Fig:densplot_01.ticklabels.left.panel.1.1.1.5.scale" transform="scale(1, -1)">
                <text x="0" y="0" id="Fig:densplot_01.ticklabels.left.panel.1.1.1.5.text" transform="rotate(-90)" text-anchor="middle" stroke="rgb(0,0,0)" opacity="1" fill="rgb(0,0,0)" stroke-opacity="1" fill-opacity="1" font-size="9.6" font-weight="normal" font-style="normal">
                  <tspan id="Fig:densplot_01.ticklabels.left.panel.1.1.1.5.tspan.1" dy="0" x="0">0.20</tspan>
                </text>
              </g>
            </g>
          </g>
        </g>
        <g id="Fig:densplot_01.panel.1.1.off.vp.1">
          <g id="Fig:densplot_01.ticks.bottom.panel.1.1.1">
            <polyline id="Fig:densplot_01.ticks.bottom.panel.1.1.1.1" points="55.94,42.19 55.94,36.52" stroke="rgb(0,0,0)" opacity="1" stroke-dasharray="none" stroke-width="0.75" stroke-opacity="1" fill="none"/>
            <polyline id="Fig:densplot_01.ticks.bottom.panel.1.1.1.2" points="89.33,42.19 89.33,36.52" stroke="rgb(0,0,0)" opacity="1" stroke-dasharray="none" stroke-width="0.75" stroke-opacity="1" fill="none"/>
            <polyline id="Fig:densplot_01.ticks.bottom.panel.1.1.1.3" points="122.73,42.19 122.73,36.52" stroke="rgb(0,0,0)" opacity="1" stroke-dasharray="none" stroke-width="0.75" stroke-opacity="1" fill="none"/>
            <polyline id="Fig:densplot_01.ticks.bottom.panel.1.1.1.4" points="156.13,42.19 156.13,36.52" stroke="rgb(0,0,0)" opacity="1" stroke-dasharray="none" stroke-width="0.75" stroke-opacity="1" fill="none"/>
            <polyline id="Fig:densplot_01.ticks.bottom.panel.1.1.1.5" points="189.52,42.19 189.52,36.52" stroke="rgb(0,0,0)" opacity="1" stroke-dasharray="none" stroke-width="0.75" stroke-opacity="1" fill="none"/>
            <polyline id="Fig:densplot_01.ticks.bottom.panel.1.1.1.6" points="222.92,42.19 222.92,36.52" stroke="rgb(0,0,0)" opacity="1" stroke-dasharray="none" stroke-width="0.75" stroke-opacity="1" fill="none"/>
            <polyline id="Fig:densplot_01.ticks.bottom.panel.1.1.1.7" points="256.32,42.19 256.32,36.52" stroke="rgb(0,0,0)" opacity="1" stroke-dasharray="none" stroke-width="0.75" stroke-opacity="1" fill="none"/>
          </g>
          <g id="Fig:densplot_01.ticklabels.bottom.panel.1.1.1">
            <g id="Fig:densplot_01.ticklabels.bottom.panel.1.1.1.1" transform="translate(55.94, 30.85)" stroke-width="0.1">
              <g id="Fig:densplot_01.ticklabels.bottom.panel.1.1.1.1.scale" transform="scale(1, -1)">
                <text x="0" y="0" id="Fig:densplot_01.ticklabels.bottom.panel.1.1.1.1.text" text-anchor="middle" stroke="rgb(0,0,0)" opacity="1" fill="rgb(0,0,0)" stroke-opacity="1" fill-opacity="1" font-size="9.6" font-weight="normal" font-style="normal">
                  <tspan id="Fig:densplot_01.ticklabels.bottom.panel.1.1.1.1.tspan.1" dy="7.18" x="0">0</tspan>
                </text>
              </g>
            </g>
            <g id="Fig:densplot_01.ticklabels.bottom.panel.1.1.1.2" transform="translate(89.33, 30.85)" stroke-width="0.1">
              <g id="Fig:densplot_01.ticklabels.bottom.panel.1.1.1.2.scale" transform="scale(1, -1)">
                <text x="0" y="0" id="Fig:densplot_01.ticklabels.bottom.panel.1.1.1.2.text" text-anchor="middle" stroke="rgb(0,0,0)" opacity="1" fill="rgb(0,0,0)" stroke-opacity="1" fill-opacity="1" font-size="9.6" font-weight="normal" font-style="normal">
                  <tspan id="Fig:densplot_01.ticklabels.bottom.panel.1.1.1.2.tspan.1" dy="7.18" x="0">2</tspan>
                </text>
              </g>
            </g>
            <g id="Fig:densplot_01.ticklabels.bottom.panel.1.1.1.3" transform="translate(122.73, 30.85)" stroke-width="0.1">
              <g id="Fig:densplot_01.ticklabels.bottom.panel.1.1.1.3.scale" transform="scale(1, -1)">
                <text x="0" y="0" id="Fig:densplot_01.ticklabels.bottom.panel.1.1.1.3.text" text-anchor="middle" stroke="rgb(0,0,0)" opacity="1" fill="rgb(0,0,0)" stroke-opacity="1" fill-opacity="1" font-size="9.6" font-weight="normal" font-style="normal">
                  <tspan id="Fig:densplot_01.ticklabels.bottom.panel.1.1.1.3.tspan.1" dy="7.18" x="0">4</tspan>
                </text>
              </g>
            </g>
            <g id="Fig:densplot_01.ticklabels.bottom.panel.1.1.1.4" transform="translate(156.13, 30.85)" stroke-width="0.1">
              <g id="Fig:densplot_01.ticklabels.bottom.panel.1.1.1.4.scale" transform="scale(1, -1)">
                <text x="0" y="0" id="Fig:densplot_01.ticklabels.bottom.panel.1.1.1.4.text" text-anchor="middle" stroke="rgb(0,0,0)" opacity="1" fill="rgb(0,0,0)" stroke-opacity="1" fill-opacity="1" font-size="9.6" font-weight="normal" font-style="normal">
                  <tspan id="Fig:densplot_01.ticklabels.bottom.panel.1.1.1.4.tspan.1" dy="7.18" x="0">6</tspan>
                </text>
              </g>
            </g>
            <g id="Fig:densplot_01.ticklabels.bottom.panel.1.1.1.5" transform="translate(189.52, 30.85)" stroke-width="0.1">
              <g id="Fig:densplot_01.ticklabels.bottom.panel.1.1.1.5.scale" transform="scale(1, -1)">
                <text x="0" y="0" id="Fig:densplot_01.ticklabels.bottom.panel.1.1.1.5.text" text-anchor="middle" stroke="rgb(0,0,0)" opacity="1" fill="rgb(0,0,0)" stroke-opacity="1" fill-opacity="1" font-size="9.6" font-weight="normal" font-style="normal">
                  <tspan id="Fig:densplot_01.ticklabels.bottom.panel.1.1.1.5.tspan.1" dy="7.18" x="0">8</tspan>
                </text>
              </g>
            </g>
            <g id="Fig:densplot_01.ticklabels.bottom.panel.1.1.1.6" transform="translate(222.92, 30.85)" stroke-width="0.1">
              <g id="Fig:densplot_01.ticklabels.bottom.panel.1.1.1.6.scale" transform="scale(1, -1)">
                <text x="0" y="0" id="Fig:densplot_01.ticklabels.bottom.panel.1.1.1.6.text" text-anchor="middle" stroke="rgb(0,0,0)" opacity="1" fill="rgb(0,0,0)" stroke-opacity="1" fill-opacity="1" font-size="9.6" font-weight="normal" font-style="normal">
                  <tspan id="Fig:densplot_01.ticklabels.bottom.panel.1.1.1.6.tspan.1" dy="7.18" x="0">10</tspan>
                </text>
              </g>
            </g>
            <g id="Fig:densplot_01.ticklabels.bottom.panel.1.1.1.7" transform="translate(256.32, 30.85)" stroke-width="0.1">
              <g id="Fig:densplot_01.ticklabels.bottom.panel.1.1.1.7.scale" transform="scale(1, -1)">
                <text x="0" y="0" id="Fig:densplot_01.ticklabels.bottom.panel.1.1.1.7.text" text-anchor="middle" stroke="rgb(0,0,0)" opacity="1" fill="rgb(0,0,0)" stroke-opacity="1" fill-opacity="1" font-size="9.6" font-weight="normal" font-style="normal">
                  <tspan id="Fig:densplot_01.ticklabels.bottom.panel.1.1.1.7.tspan.1" dy="7.18" x="0">12</tspan>
                </text>
              </g>
            </g>
          </g>
        </g>
        <defs>
          <clipPath id="Fig:densplot_01.panel.1.1.vp.2.clipPath">
            <rect x="44.8" y="42.19" width="231.2" height="200.52" fill="none" stroke="none"/>
          </clipPath>
        </defs>
        <g id="Fig:densplot_01.panel.1.1.vp.2" clip-path="url(#Fig:densplot_01.panel.1.1.vp.2.clipPath)">
          <g id="Fig:densplot_01.xyplot.lines.group.1.panel.1.1.1">
            <polyline id="Fig:densplot_01.xyplot.lines.group.1.panel.1.1.1.1" points="59.17,54.51 59.57,54.52 59.96,54.53 60.36,54.55 60.76,54.57 61.15,54.59 61.55,54.62 61.95,54.66 62.34,54.7 62.74,54.76 63.13,54.82 63.53,54.9 63.93,54.99 64.32,55.1 64.72,55.24 65.12,55.4 65.51,55.59 65.91,55.8 66.3,56.05 66.7,56.35 67.1,56.69 67.49,57.08 67.89,57.52 68.29,58.02 68.68,58.58 69.08,59.21 69.47,59.93 69.87,60.73 70.27,61.61 70.66,62.57 71.06,63.63 71.46,64.8 71.85,66.08 72.25,67.47 72.64,68.96 73.04,70.56 73.44,72.28 73.83,74.13 74.23,76.1 74.63,78.18 75.02,80.38 75.42,82.7 75.81,85.13 76.21,87.69 76.61,90.37 77,93.15 77.4,96.03 77.8,99.01 78.19,102.09 78.59,105.28 78.98,108.55 79.38,111.9 79.78,115.32 80.17,118.81 80.57,122.36 80.97,125.98 81.36,129.64 81.76,133.34 82.15,137.07 82.55,140.82 82.95,144.58 83.34,148.34 83.74,152.1 84.14,155.84 84.53,159.56 84.93,163.24 85.32,166.88 85.72,170.45 86.12,173.96 86.51,177.4 86.91,180.76 87.31,184.03 87.7,187.2 88.1,190.26 88.49,193.2 88.89,196.02 89.29,198.73 89.68,201.32 90.08,203.77 90.48,206.07 90.87,208.24 91.27,210.28 91.66,212.19 92.06,213.97 92.46,215.6 92.85,217.09 93.25,218.45 93.65,219.69 94.04,220.81 94.44,221.81 94.84,222.69 95.23,223.44 95.63,224.08 96.02,224.63 96.42,225.08 96.82,225.43 97.21,225.69 97.61,225.86 98.01,225.94 98.4,225.95 98.8,225.89 99.19,225.76 99.59,225.56 99.99,225.3 100.38,224.97 100.78,224.6 101.18,224.17 101.57,223.69 101.97,223.17 102.36,222.59 102.76,221.98 103.16,221.33 103.55,220.65 103.95,219.93 104.35,219.18 104.74,218.39 105.14,217.58 105.53,216.75 105.93,215.89 106.33,215.01 106.72,214.11 107.12,213.19 107.52,212.25 107.91,211.3 108.31,210.33 108.7,209.35 109.1,208.35 109.5,207.33 109.89,206.3 110.29,205.26 110.69,204.2 111.08,203.12 111.48,202.03 111.87,200.92 112.27,199.8 112.67,198.66 113.06,197.5 113.46,196.33 113.86,195.14 114.25,193.93 114.65,192.72 115.04,191.48 115.44,190.24 115.84,188.99 116.23,187.73 116.63,186.47 117.03,185.2 117.42,183.93 117.82,182.67 118.21,181.41 118.61,180.16 119.01,178.92 119.4,177.69 119.8,176.48 120.2,175.28 120.59,174.1 120.99,172.93 121.38,171.79 121.78,170.67 122.18,169.56 122.57,168.47 122.97,167.39 123.37,166.34 123.76,165.3 124.16,164.27 124.55,163.26 124.95,162.26 125.35,161.27 125.74,160.29 126.14,159.31 126.54,158.35 126.93,157.39 127.33,156.44 127.72,155.5 128.12,154.56 128.52,153.64 128.91,152.72 129.31,151.81 129.71,150.91 130.1,150.03 130.5,149.16 130.89,148.31 131.29,147.47 131.69,146.65 132.08,145.85 132.48,145.07 132.88,144.32 133.27,143.6 133.67,142.9 134.06,142.22 134.46,141.57 134.86,140.95 135.25,140.36 135.65,139.8 136.05,139.27 136.44,138.76 136.84,138.28 137.24,137.83 137.63,137.4 138.03,136.99 138.42,136.61 138.82,136.24 139.22,135.89 139.61,135.56 140.01,135.24 140.41,134.94 140.8,134.64 141.2,134.35 141.59,134.06 141.99,133.78 142.39,133.51 142.78,133.23 143.18,132.95 143.58,132.67 143.97,132.39 144.37,132.11 144.76,131.82 145.16,131.53 145.56,131.25 145.95,130.96 146.35,130.67 146.75,130.38 147.14,130.1 147.54,129.82 147.93,129.55 148.33,129.29 148.73,129.04 149.12,128.8 149.52,128.58 149.92,128.38 150.31,128.2 150.71,128.04 151.1,127.9 151.5,127.79 151.9,127.7 152.29,127.64 152.69,127.61 153.09,127.61 153.48,127.63 153.88,127.69 154.27,127.77 154.67,127.88 155.07,128.01 155.46,128.17 155.86,128.35 156.26,128.55 156.65,128.77 157.05,129.01 157.44,129.26 157.84,129.52 158.24,129.8 158.63,130.08 159.03,130.37 159.43,130.66 159.82,130.95 160.22,131.24 160.61,131.53 161.01,131.82 161.41,132.1 161.8,132.38 162.2,132.65 162.6,132.91 162.99,133.17 163.39,133.43 163.78,133.68 164.18,133.93 164.58,134.18 164.97,134.44 165.37,134.69 165.77,134.95 166.16,135.23 166.56,135.51 166.95,135.8 167.35,136.12 167.75,136.45 168.14,136.81 168.54,137.18 168.94,137.59 169.33,138.01 169.73,138.46 170.12,138.95 170.52,139.45 170.92,139.99 171.31,140.54 171.71,141.12 172.11,141.71 172.5,142.33 172.9,142.95 173.29,143.59 173.69,144.23 174.09,144.87 174.48,145.51 174.88,146.14 175.28,146.76 175.67,147.36 176.07,147.94 176.46,148.5 176.86,149.04 177.26,149.53 177.65,150 178.05,150.43 178.45,150.82 178.84,151.18 179.24,151.5 179.64,151.78 180.03,152.02 180.43,152.23 180.82,152.4 181.22,152.55 181.62,152.66 182.01,152.74 182.41,152.8 182.81,152.83 183.2,152.85 183.6,152.85 183.99,152.84 184.39,152.81 184.79,152.78 185.18,152.73 185.58,152.68 185.98,152.62 186.37,152.55 186.77,152.47 187.16,152.39 187.56,152.3 187.96,152.21 188.35,152.1 188.75,151.99 189.15,151.86 189.54,151.72 189.94,151.57 190.33,151.41 190.73,151.23 191.13,151.03 191.52,150.81 191.92,150.58 192.32,150.33 192.71,150.06 193.11,149.77 193.5,149.46 193.9,149.13 194.3,148.78 194.69,148.41 195.09,148.03 195.49,147.62 195.88,147.19 196.28,146.75 196.67,146.28 197.07,145.8 197.47,145.3 197.86,144.79 198.26,144.26 198.66,143.71 199.05,143.14 199.45,142.56 199.84,141.97 200.24,141.36 200.64,140.74 201.03,140.11 201.43,139.47 201.83,138.82 202.22,138.16 202.62,137.49 203.01,136.81 203.41,136.13 203.81,135.44 204.2,134.75 204.6,134.06 205,133.36 205.39,132.66 205.79,131.96 206.18,131.26 206.58,130.55 206.98,129.84 207.37,129.13 207.77,128.42 208.17,127.71 208.56,126.99 208.96,126.27 209.35,125.55 209.75,124.82 210.15,124.09 210.54,123.35 210.94,122.61 211.34,121.86 211.73,121.1 212.13,120.34 212.52,119.58 212.92,118.8 213.32,118.02 213.71,117.24 214.11,116.45 214.51,115.65 214.9,114.85 215.3,114.05 215.69,113.24 216.09,112.43 216.49,111.62 216.88,110.81 217.28,110 217.68,109.18 218.07,108.37 218.47,107.57 218.86,106.76 219.26,105.96 219.66,105.17 220.05,104.38 220.45,103.59 220.85,102.82 221.24,102.05 221.64,101.29 222.03,100.53 222.43,99.79 222.83,99.05 223.22,98.32 223.62,97.6 224.02,96.89 224.41,96.19 224.81,95.49 225.21,94.8 225.6,94.12 226,93.44 226.39,92.77 226.79,92.11 227.19,91.46 227.58,90.81 227.98,90.17 228.38,89.54 228.77,88.91 229.17,88.29 229.56,87.68 229.96,87.08 230.36,86.48 230.75,85.89 231.15,85.31 231.55,84.73 231.94,84.17 232.34,83.61 232.73,83.07 233.13,82.52 233.53,81.99 233.92,81.47 234.32,80.95 234.72,80.44 235.11,79.93 235.51,79.43 235.9,78.93 236.3,78.43 236.7,77.94 237.09,77.44 237.49,76.94 237.89,76.45 238.28,75.94 238.68,75.43 239.07,74.91 239.47,74.39 239.87,73.85 240.26,73.31 240.66,72.75 241.06,72.18 241.45,71.6 241.85,71.01 242.24,70.41 242.64,69.79 243.04,69.16 243.43,68.53 243.83,67.89 244.23,67.24 244.62,66.59 245.02,65.94 245.41,65.29 245.81,64.64 246.21,64 246.6,63.37 247,62.75 247.4,62.15 247.79,61.56 248.19,61 248.58,60.45 248.98,59.93 249.38,59.43 249.77,58.96 250.17,58.52 250.57,58.11 250.96,57.72 251.36,57.36 251.75,57.03 252.15,56.72 252.55,56.45 252.94,56.2 253.34,55.98 253.74,55.77 254.13,55.59 254.53,55.43 254.92,55.29 255.32,55.17 255.72,55.06 256.11,54.97 256.51,54.89 256.91,54.82 257.3,54.76 257.7,54.71 258.09,54.67 258.49,54.63 258.89,54.6 259.28,54.58 259.68,54.56 260.08,54.54 260.47,54.53 260.87,54.52 261.26,54.51 261.66,54.5" stroke-dasharray="none" stroke="rgb(228,26,28)" stroke-width="0.75" opacity="1" stroke-opacity="1" fill="none"/>
          </g>
          <g id="Fig:densplot_01.xyplot.lines.group.2.panel.1.1.1">
            <polyline id="Fig:densplot_01.xyplot.lines.group.2.panel.1.1.1.1" points="59,54.51 59.4,54.52 59.79,54.54 60.19,54.55 60.59,54.57 60.98,54.6 61.38,54.63 61.78,54.67 62.18,54.71 62.57,54.77 62.97,54.84 63.37,54.92 63.76,55.03 64.16,55.14 64.56,55.28 64.95,55.45 65.35,55.65 65.75,55.89 66.14,56.16 66.54,56.47 66.94,56.82 67.33,57.24 67.73,57.72 68.13,58.26 68.53,58.87 68.92,59.55 69.32,60.32 69.72,61.19 70.11,62.15 70.51,63.21 70.91,64.38 71.3,65.65 71.7,67.04 72.1,68.58 72.49,70.23 72.89,72.02 73.29,73.93 73.68,75.97 74.08,78.15 74.48,80.49 74.88,82.96 75.27,85.56 75.67,88.29 76.07,91.14 76.46,94.14 76.86,97.26 77.26,100.5 77.65,103.85 78.05,107.3 78.45,110.84 78.84,114.48 79.24,118.21 79.64,122 80.03,125.85 80.43,129.75 80.83,133.69 81.23,137.66 81.62,141.64 82.02,145.63 82.42,149.61 82.81,153.57 83.21,157.5 83.61,161.38 84,165.2 84.4,168.95 84.8,172.63 85.19,176.22 85.59,179.72 85.99,183.09 86.38,186.35 86.78,189.48 87.18,192.49 87.58,195.37 87.97,198.11 88.37,200.69 88.77,203.12 89.16,205.41 89.56,207.55 89.96,209.56 90.35,211.43 90.75,213.12 91.15,214.69 91.54,216.13 91.94,217.44 92.34,218.63 92.73,219.7 93.13,220.64 93.53,221.47 93.93,222.2 94.32,222.84 94.72,223.39 95.12,223.84 95.51,224.19 95.91,224.47 96.31,224.67 96.7,224.79 97.1,224.85 97.5,224.83 97.89,224.74 98.29,224.58 98.69,224.36 99.08,224.08 99.48,223.75 99.88,223.35 100.28,222.89 100.67,222.38 101.07,221.82 101.47,221.21 101.86,220.56 102.26,219.85 102.66,219.1 103.05,218.32 103.45,217.5 103.85,216.64 104.24,215.76 104.64,214.84 105.04,213.89 105.43,212.93 105.83,211.94 106.23,210.93 106.63,209.91 107.02,208.87 107.42,207.81 107.82,206.75 108.21,205.68 108.61,204.59 109.01,203.5 109.4,202.41 109.8,201.3 110.2,200.19 110.59,199.08 110.99,197.96 111.39,196.84 111.78,195.72 112.18,194.59 112.58,193.46 112.98,192.33 113.37,191.19 113.77,190.05 114.17,188.9 114.56,187.75 114.96,186.6 115.36,185.44 115.75,184.28 116.15,183.11 116.55,181.93 116.94,180.75 117.34,179.56 117.74,178.37 118.13,177.18 118.53,175.98 118.93,174.77 119.33,173.57 119.72,172.36 120.12,171.15 120.52,169.94 120.91,168.73 121.31,167.53 121.71,166.33 122.1,165.14 122.5,163.96 122.9,162.79 123.29,161.64 123.69,160.5 124.09,159.37 124.48,158.26 124.88,157.17 125.28,156.09 125.68,155.04 126.07,154.02 126.47,153.01 126.87,152.03 127.26,151.06 127.66,150.12 128.06,149.21 128.45,148.32 128.85,147.46 129.25,146.62 129.64,145.8 130.04,145.01 130.44,144.24 130.83,143.5 131.23,142.79 131.63,142.1 132.03,141.43 132.42,140.78 132.82,140.17 133.22,139.58 133.61,139.01 134.01,138.47 134.41,137.95 134.8,137.46 135.2,136.99 135.6,136.54 135.99,136.12 136.39,135.72 136.79,135.34 137.18,134.98 137.58,134.64 137.98,134.32 138.38,134.01 138.77,133.72 139.17,133.45 139.57,133.19 139.96,132.94 140.36,132.7 140.76,132.47 141.15,132.25 141.55,132.03 141.95,131.83 142.34,131.62 142.74,131.43 143.14,131.23 143.53,131.04 143.93,130.86 144.33,130.68 144.73,130.5 145.12,130.32 145.52,130.15 145.92,129.98 146.31,129.82 146.71,129.66 147.11,129.51 147.5,129.37 147.9,129.23 148.3,129.09 148.69,128.97 149.09,128.85 149.49,128.74 149.88,128.64 150.28,128.54 150.68,128.46 151.08,128.38 151.47,128.31 151.87,128.25 152.27,128.2 152.66,128.16 153.06,128.13 153.46,128.11 153.85,128.1 154.25,128.1 154.65,128.11 155.04,128.13 155.44,128.16 155.84,128.21 156.23,128.27 156.63,128.34 157.03,128.43 157.43,128.53 157.82,128.65 158.22,128.79 158.62,128.94 159.01,129.11 159.41,129.3 159.81,129.5 160.2,129.73 160.6,129.97 161,130.23 161.39,130.52 161.79,130.82 162.19,131.14 162.58,131.47 162.98,131.83 163.38,132.21 163.78,132.6 164.17,133.01 164.57,133.44 164.97,133.88 165.36,134.33 165.76,134.81 166.16,135.29 166.55,135.78 166.95,136.29 167.35,136.8 167.74,137.32 168.14,137.85 168.54,138.38 168.93,138.91 169.33,139.45 169.73,139.99 170.13,140.52 170.52,141.06 170.92,141.59 171.32,142.12 171.71,142.65 172.11,143.16 172.51,143.68 172.9,144.18 173.3,144.68 173.7,145.17 174.09,145.65 174.49,146.12 174.89,146.58 175.28,147.02 175.68,147.46 176.08,147.89 176.48,148.31 176.87,148.71 177.27,149.1 177.67,149.48 178.06,149.84 178.46,150.19 178.86,150.53 179.25,150.85 179.65,151.15 180.05,151.44 180.44,151.72 180.84,151.98 181.24,152.22 181.63,152.45 182.03,152.66 182.43,152.86 182.83,153.04 183.22,153.21 183.62,153.36 184.02,153.5 184.41,153.62 184.81,153.72 185.21,153.81 185.6,153.89 186,153.95 186.4,154 186.79,154.02 187.19,154.04 187.59,154.03 187.98,154 188.38,153.96 188.78,153.89 189.18,153.81 189.57,153.7 189.97,153.56 190.37,153.41 190.76,153.23 191.16,153.02 191.56,152.78 191.95,152.52 192.35,152.24 192.75,151.93 193.14,151.59 193.54,151.22 193.94,150.84 194.33,150.42 194.73,149.99 195.13,149.54 195.53,149.06 195.92,148.56 196.32,148.05 196.72,147.52 197.11,146.98 197.51,146.42 197.91,145.85 198.3,145.27 198.7,144.68 199.1,144.08 199.49,143.48 199.89,142.86 200.29,142.24 200.68,141.61 201.08,140.98 201.48,140.34 201.88,139.69 202.27,139.04 202.67,138.37 203.07,137.7 203.46,137.03 203.86,136.34 204.26,135.65 204.65,134.94 205.05,134.23 205.45,133.51 205.84,132.78 206.24,132.03 206.64,131.28 207.03,130.52 207.43,129.76 207.83,128.98 208.23,128.19 208.62,127.4 209.02,126.6 209.42,125.8 209.81,124.99 210.21,124.18 210.61,123.36 211,122.55 211.4,121.73 211.8,120.91 212.19,120.09 212.59,119.28 212.99,118.47 213.38,117.66 213.78,116.85 214.18,116.04 214.58,115.24 214.97,114.44 215.37,113.65 215.77,112.85 216.16,112.06 216.56,111.27 216.96,110.49 217.35,109.7 217.75,108.92 218.15,108.14 218.54,107.36 218.94,106.59 219.34,105.81 219.73,105.04 220.13,104.26 220.53,103.5 220.93,102.73 221.32,101.96 221.72,101.2 222.12,100.45 222.51,99.7 222.91,98.95 223.31,98.21 223.7,97.48 224.1,96.76 224.5,96.04 224.89,95.33 225.29,94.63 225.69,93.94 226.08,93.26 226.48,92.59 226.88,91.93 227.28,91.28 227.67,90.64 228.07,90.01 228.47,89.39 228.86,88.78 229.26,88.18 229.66,87.59 230.05,87.01 230.45,86.44 230.85,85.88 231.24,85.33 231.64,84.78 232.04,84.25 232.43,83.72 232.83,83.19 233.23,82.68 233.63,82.17 234.02,81.66 234.42,81.17 234.82,80.67 235.21,80.18 235.61,79.69 236.01,79.2 236.4,78.71 236.8,78.22 237.2,77.73 237.59,77.23 237.99,76.73 238.39,76.23 238.78,75.72 239.18,75.2 239.58,74.67 239.98,74.13 240.37,73.58 240.77,73.02 241.17,72.44 241.56,71.86 241.96,71.26 242.36,70.65 242.75,70.03 243.15,69.4 243.55,68.75 243.94,68.11 244.34,67.45 244.74,66.79 245.13,66.13 245.53,65.47 245.93,64.82 246.33,64.17 246.72,63.53 247.12,62.9 247.52,62.29 247.91,61.69 248.31,61.12 248.71,60.56 249.1,60.03 249.5,59.53 249.9,59.05 250.29,58.6 250.69,58.18 251.09,57.78 251.48,57.41 251.88,57.08 252.28,56.77 252.68,56.49 253.07,56.24 253.47,56 253.87,55.8 254.26,55.61 254.66,55.45 255.06,55.31 255.45,55.18 255.85,55.07 256.25,54.98 256.64,54.9 257.04,54.83 257.44,54.77 257.83,54.72 258.23,54.67 258.63,54.64 259.03,54.61 259.42,54.58 259.82,54.56 260.22,54.55 260.61,54.53 261.01,54.52 261.41,54.51 261.8,54.51" stroke-dasharray="none" stroke="rgb(228,26,28)" stroke-width="0.75" opacity="1" stroke-opacity="1" fill="none"/>
          </g>
          <g id="Fig:densplot_01.xyplot.lines.group.3.panel.1.1.1">
            <polyline id="Fig:densplot_01.xyplot.lines.group.3.panel.1.1.1.1" points="59.18,54.52 59.58,54.53 59.98,54.54 60.37,54.56 60.77,54.58 61.17,54.61 61.56,54.64 61.96,54.68 62.35,54.73 62.75,54.79 63.15,54.86 63.54,54.94 63.94,55.05 64.34,55.17 64.73,55.31 65.13,55.49 65.52,55.69 65.92,55.92 66.32,56.19 66.71,56.5 67.11,56.86 67.51,57.28 67.9,57.75 68.3,58.28 68.69,58.87 69.09,59.54 69.49,60.3 69.88,61.14 70.28,62.06 70.67,63.08 71.07,64.19 71.47,65.41 71.86,66.76 72.26,68.21 72.66,69.77 73.05,71.45 73.45,73.25 73.84,75.17 74.24,77.23 74.64,79.42 75.03,81.72 75.43,84.14 75.83,86.67 76.22,89.33 76.62,92.12 77.01,95.02 77.41,98.01 77.81,101.11 78.2,104.29 78.6,107.57 78.99,110.94 79.39,114.38 79.79,117.88 80.18,121.44 80.58,125.04 80.98,128.7 81.37,132.38 81.77,136.08 82.16,139.79 82.56,143.51 82.96,147.22 83.35,150.92 83.75,154.58 84.15,158.22 84.54,161.81 84.94,165.35 85.33,168.83 85.73,172.23 86.13,175.56 86.52,178.81 86.92,181.96 87.31,185.03 87.71,188 88.11,190.85 88.5,193.59 88.9,196.22 89.3,198.73 89.69,201.14 90.09,203.43 90.48,205.57 90.88,207.6 91.28,209.51 91.67,211.3 92.07,212.98 92.47,214.55 92.86,215.98 93.26,217.3 93.65,218.52 94.05,219.64 94.45,220.66 94.84,221.58 95.24,222.39 95.64,223.11 96.03,223.74 96.43,224.29 96.82,224.76 97.22,225.15 97.62,225.45 98.01,225.68 98.41,225.84 98.8,225.93 99.2,225.96 99.6,225.92 99.99,225.81 100.39,225.63 100.79,225.4 101.18,225.11 101.58,224.77 101.97,224.38 102.37,223.92 102.77,223.42 103.16,222.87 103.56,222.28 103.96,221.64 104.35,220.97 104.75,220.25 105.14,219.5 105.54,218.72 105.94,217.91 106.33,217.07 106.73,216.2 107.12,215.31 107.52,214.39 107.92,213.45 108.31,212.5 108.71,211.53 109.11,210.53 109.5,209.52 109.9,208.5 110.29,207.46 110.69,206.41 111.09,205.34 111.48,204.26 111.88,203.16 112.28,202.05 112.67,200.94 113.07,199.81 113.46,198.67 113.86,197.52 114.26,196.36 114.65,195.19 115.05,194.02 115.44,192.84 115.84,191.66 116.24,190.47 116.63,189.27 117.03,188.07 117.43,186.87 117.82,185.67 118.22,184.46 118.61,183.25 119.01,182.03 119.41,180.82 119.8,179.6 120.2,178.38 120.6,177.16 120.99,175.93 121.39,174.7 121.78,173.47 122.18,172.24 122.58,171 122.97,169.76 123.37,168.52 123.77,167.28 124.16,166.04 124.56,164.8 124.95,163.56 125.35,162.33 125.75,161.1 126.14,159.88 126.54,158.66 126.93,157.45 127.33,156.26 127.73,155.08 128.12,153.91 128.52,152.77 128.92,151.64 129.31,150.53 129.71,149.45 130.1,148.39 130.5,147.36 130.9,146.36 131.29,145.38 131.69,144.44 132.09,143.52 132.48,142.65 132.88,141.8 133.27,140.99 133.67,140.21 134.07,139.46 134.46,138.75 134.86,138.06 135.25,137.42 135.65,136.79 136.05,136.2 136.44,135.63 136.84,135.09 137.24,134.57 137.63,134.08 138.03,133.61 138.42,133.16 138.82,132.73 139.22,132.31 139.61,131.91 140.01,131.53 140.41,131.16 140.8,130.8 141.2,130.46 141.59,130.13 141.99,129.82 142.39,129.52 142.78,129.24 143.18,128.97 143.57,128.71 143.97,128.46 144.37,128.24 144.76,128.03 145.16,127.84 145.56,127.66 145.95,127.5 146.35,127.35 146.74,127.22 147.14,127.11 147.54,127.01 147.93,126.93 148.33,126.86 148.73,126.8 149.12,126.76 149.52,126.73 149.91,126.7 150.31,126.69 150.71,126.68 151.1,126.68 151.5,126.69 151.9,126.7 152.29,126.72 152.69,126.74 153.08,126.77 153.48,126.8 153.88,126.84 154.27,126.88 154.67,126.93 155.06,126.99 155.46,127.06 155.86,127.13 156.25,127.22 156.65,127.32 157.05,127.43 157.44,127.55 157.84,127.68 158.23,127.82 158.63,127.98 159.03,128.15 159.42,128.33 159.82,128.52 160.22,128.72 160.61,128.94 161.01,129.17 161.4,129.4 161.8,129.65 162.2,129.91 162.59,130.18 162.99,130.46 163.38,130.75 163.78,131.05 164.18,131.37 164.57,131.7 164.97,132.04 165.37,132.4 165.76,132.77 166.16,133.17 166.55,133.58 166.95,134.01 167.35,134.46 167.74,134.94 168.14,135.44 168.54,135.97 168.93,136.51 169.33,137.08 169.72,137.66 170.12,138.27 170.52,138.89 170.91,139.53 171.31,140.18 171.7,140.84 172.1,141.51 172.5,142.18 172.89,142.85 173.29,143.51 173.69,144.17 174.08,144.82 174.48,145.46 174.87,146.08 175.27,146.67 175.67,147.25 176.06,147.8 176.46,148.33 176.86,148.83 177.25,149.29 177.65,149.73 178.04,150.14 178.44,150.52 178.84,150.86 179.23,151.18 179.63,151.46 180.03,151.72 180.42,151.94 180.82,152.14 181.21,152.32 181.61,152.47 182.01,152.59 182.4,152.7 182.8,152.78 183.19,152.85 183.59,152.91 183.99,152.95 184.38,152.98 184.78,152.99 185.18,153 185.57,153.01 185.97,153 186.36,152.99 186.76,152.98 187.16,152.96 187.55,152.93 187.95,152.91 188.35,152.87 188.74,152.83 189.14,152.79 189.53,152.73 189.93,152.67 190.33,152.59 190.72,152.5 191.12,152.39 191.51,152.26 191.91,152.12 192.31,151.95 192.7,151.76 193.1,151.54 193.5,151.3 193.89,151.02 194.29,150.72 194.68,150.38 195.08,150.02 195.48,149.63 195.87,149.21 196.27,148.75 196.67,148.27 197.06,147.76 197.46,147.23 197.85,146.67 198.25,146.09 198.65,145.48 199.04,144.86 199.44,144.22 199.83,143.56 200.23,142.89 200.63,142.21 201.02,141.51 201.42,140.81 201.82,140.09 202.21,139.37 202.61,138.64 203,137.9 203.4,137.16 203.8,136.41 204.19,135.66 204.59,134.91 204.99,134.15 205.38,133.39 205.78,132.62 206.17,131.86 206.57,131.09 206.97,130.32 207.36,129.55 207.76,128.78 208.16,128 208.55,127.23 208.95,126.46 209.34,125.68 209.74,124.91 210.14,124.13 210.53,123.36 210.93,122.59 211.32,121.81 211.72,121.04 212.12,120.26 212.51,119.48 212.91,118.7 213.31,117.92 213.7,117.13 214.1,116.34 214.49,115.55 214.89,114.75 215.29,113.95 215.68,113.14 216.08,112.33 216.48,111.52 216.87,110.7 217.27,109.87 217.66,109.05 218.06,108.22 218.46,107.39 218.85,106.55 219.25,105.72 219.64,104.89 220.04,104.07 220.44,103.25 220.83,102.43 221.23,101.62 221.63,100.82 222.02,100.03 222.42,99.25 222.81,98.48 223.21,97.72 223.61,96.98 224,96.25 224.4,95.53 224.8,94.82 225.19,94.13 225.59,93.45 225.98,92.78 226.38,92.13 226.78,91.48 227.17,90.85 227.57,90.23 227.96,89.61 228.36,89 228.76,88.41 229.15,87.82 229.55,87.24 229.95,86.66 230.34,86.09 230.74,85.52 231.13,84.97 231.53,84.41 231.93,83.87 232.32,83.33 232.72,82.79 233.12,82.26 233.51,81.74 233.91,81.22 234.3,80.71 234.7,80.2 235.1,79.7 235.49,79.21 235.89,78.71 236.29,78.23 236.68,77.74 237.08,77.26 237.47,76.78 237.87,76.29 238.27,75.81 238.66,75.32 239.06,74.82 239.45,74.32 239.85,73.81 240.25,73.29 240.64,72.76 241.04,72.22 241.44,71.66 241.83,71.1 242.23,70.52 242.62,69.92 243.02,69.32 243.42,68.7 243.81,68.08 244.21,67.44 244.61,66.8 245,66.16 245.4,65.52 245.79,64.87 246.19,64.23 246.59,63.6 246.98,62.98 247.38,62.37 247.77,61.77 248.17,61.2 248.57,60.64 248.96,60.11 249.36,59.6 249.76,59.12 250.15,58.66 250.55,58.24 250.94,57.84 251.34,57.46 251.74,57.12 252.13,56.81 252.53,56.52 252.93,56.26 253.32,56.03 253.72,55.82 254.11,55.63 254.51,55.47 254.91,55.32 255.3,55.19 255.7,55.08 256.09,54.98 256.49,54.9 256.89,54.83 257.28,54.77 257.68,54.72 258.08,54.67 258.47,54.64 258.87,54.61 259.26,54.58 259.66,54.56 260.06,54.55 260.45,54.53 260.85,54.52 261.25,54.51 261.64,54.51" stroke-dasharray="none" stroke="rgb(228,26,28)" stroke-width="0.75" opacity="1" stroke-opacity="1" fill="none"/>
          </g>
          <g id="Fig:densplot_01.xyplot.lines.group.4.panel.1.1.1">
            <polyline id="Fig:densplot_01.xyplot.lines.group.4.panel.1.1.1.1" points="59.1,54.52 59.5,54.53 59.9,54.54 60.29,54.56 60.69,54.58 61.09,54.61 61.48,54.64 61.88,54.68 62.28,54.73 62.67,54.79 63.07,54.87 63.47,54.96 63.86,55.06 64.26,55.19 64.66,55.34 65.05,55.52 65.45,55.73 65.84,55.98 66.24,56.26 66.64,56.58 67.03,56.96 67.43,57.4 67.83,57.89 68.22,58.45 68.62,59.07 69.02,59.77 69.41,60.56 69.81,61.45 70.21,62.42 70.6,63.49 71,64.66 71.4,65.93 71.79,67.34 72.19,68.86 72.59,70.49 72.98,72.25 73.38,74.12 73.78,76.11 74.17,78.25 74.57,80.5 74.96,82.88 75.36,85.37 75.76,87.96 76.15,90.68 76.55,93.52 76.95,96.45 77.34,99.48 77.74,102.6 78.14,105.79 78.53,109.07 78.93,112.43 79.33,115.84 79.72,119.3 80.12,122.81 80.52,126.36 80.91,129.94 81.31,133.54 81.71,137.16 82.1,140.78 82.5,144.4 82.89,148.02 83.29,151.62 83.69,155.2 84.08,158.74 84.48,162.26 84.88,165.73 85.27,169.16 85.67,172.53 86.07,175.84 86.46,179.08 86.86,182.25 87.26,185.36 87.65,188.39 88.05,191.32 88.45,194.16 88.84,196.91 89.24,199.57 89.64,202.13 90.03,204.59 90.43,206.92 90.82,209.15 91.22,211.26 91.62,213.27 92.01,215.16 92.41,216.95 92.81,218.59 93.2,220.11 93.6,221.52 94,222.81 94.39,223.98 94.79,225.04 95.19,225.96 95.58,226.76 95.98,227.45 96.38,228.02 96.77,228.49 97.17,228.85 97.57,229.08 97.96,229.22 98.36,229.25 98.76,229.19 99.15,229.04 99.55,228.8 99.94,228.46 100.34,228.05 100.74,227.56 101.13,227.01 101.53,226.39 101.93,225.72 102.32,224.98 102.72,224.2 103.12,223.38 103.51,222.52 103.91,221.64 104.31,220.73 104.7,219.79 105.1,218.84 105.5,217.88 105.89,216.91 106.29,215.93 106.69,214.95 107.08,213.97 107.48,213 107.87,212.02 108.27,211.05 108.67,210.08 109.06,209.12 109.46,208.16 109.86,207.2 110.25,206.24 110.65,205.28 111.05,204.32 111.44,203.35 111.84,202.37 112.24,201.38 112.63,200.38 113.03,199.37 113.43,198.34 113.82,197.28 114.22,196.21 114.62,195.11 115.01,193.99 115.41,192.85 115.8,191.68 116.2,190.49 116.6,189.27 116.99,188.03 117.39,186.77 117.79,185.48 118.18,184.18 118.58,182.87 118.98,181.54 119.37,180.2 119.77,178.85 120.17,177.5 120.56,176.15 120.96,174.8 121.36,173.46 121.75,172.13 122.15,170.8 122.55,169.5 122.94,168.21 123.34,166.94 123.74,165.7 124.13,164.48 124.53,163.29 124.92,162.12 125.32,160.98 125.72,159.88 126.11,158.8 126.51,157.75 126.91,156.72 127.3,155.72 127.7,154.75 128.1,153.81 128.49,152.89 128.89,151.99 129.29,151.11 129.68,150.24 130.08,149.39 130.48,148.56 130.87,147.74 131.27,146.94 131.67,146.14 132.06,145.35 132.46,144.57 132.85,143.81 133.25,143.05 133.65,142.3 134.04,141.57 134.44,140.84 134.84,140.13 135.23,139.43 135.63,138.74 136.03,138.07 136.42,137.42 136.82,136.79 137.22,136.17 137.61,135.58 138.01,135.01 138.41,134.45 138.8,133.92 139.2,133.41 139.6,132.93 139.99,132.46 140.39,132.02 140.79,131.59 141.18,131.19 141.58,130.8 141.97,130.43 142.37,130.07 142.77,129.73 143.16,129.4 143.56,129.08 143.96,128.77 144.35,128.48 144.75,128.19 145.15,127.91 145.54,127.64 145.94,127.38 146.34,127.13 146.73,126.88 147.13,126.65 147.53,126.42 147.92,126.21 148.32,126 148.72,125.81 149.11,125.63 149.51,125.47 149.9,125.32 150.3,125.19 150.7,125.08 151.09,124.98 151.49,124.9 151.89,124.85 152.28,124.81 152.68,124.79 153.08,124.79 153.47,124.81 153.87,124.86 154.27,124.92 154.66,125 155.06,125.1 155.46,125.21 155.85,125.34 156.25,125.49 156.65,125.65 157.04,125.82 157.44,126.01 157.83,126.21 158.23,126.42 158.63,126.64 159.02,126.87 159.42,127.11 159.82,127.35 160.21,127.61 160.61,127.88 161.01,128.16 161.4,128.45 161.8,128.74 162.2,129.05 162.59,129.37 162.99,129.7 163.39,130.05 163.78,130.4 164.18,130.77 164.58,131.16 164.97,131.56 165.37,131.97 165.77,132.4 166.16,132.84 166.56,133.3 166.95,133.77 167.35,134.26 167.75,134.76 168.14,135.27 168.54,135.8 168.94,136.33 169.33,136.87 169.73,137.42 170.13,137.98 170.52,138.54 170.92,139.11 171.32,139.67 171.71,140.24 172.11,140.81 172.51,141.37 172.9,141.93 173.3,142.48 173.7,143.03 174.09,143.57 174.49,144.1 174.88,144.61 175.28,145.12 175.68,145.61 176.07,146.1 176.47,146.56 176.87,147.02 177.26,147.45 177.66,147.87 178.06,148.28 178.45,148.66 178.85,149.03 179.25,149.39 179.64,149.72 180.04,150.03 180.44,150.33 180.83,150.6 181.23,150.86 181.63,151.1 182.02,151.32 182.42,151.53 182.81,151.71 183.21,151.88 183.61,152.03 184,152.16 184.4,152.28 184.8,152.38 185.19,152.46 185.59,152.53 185.99,152.59 186.38,152.63 186.78,152.65 187.18,152.66 187.57,152.67 187.97,152.65 188.37,152.63 188.76,152.59 189.16,152.54 189.56,152.48 189.95,152.4 190.35,152.3 190.75,152.2 191.14,152.07 191.54,151.93 191.93,151.76 192.33,151.58 192.73,151.37 193.12,151.14 193.52,150.88 193.92,150.59 194.31,150.27 194.71,149.92 195.11,149.54 195.5,149.13 195.9,148.68 196.3,148.19 196.69,147.68 197.09,147.13 197.49,146.55 197.88,145.94 198.28,145.3 198.68,144.64 199.07,143.95 199.47,143.24 199.86,142.51 200.26,141.77 200.66,141.01 201.05,140.24 201.45,139.47 201.85,138.7 202.24,137.92 202.64,137.15 203.04,136.38 203.43,135.61 203.83,134.86 204.23,134.11 204.62,133.36 205.02,132.63 205.42,131.91 205.81,131.19 206.21,130.49 206.61,129.79 207,129.1 207.4,128.41 207.79,127.73 208.19,127.05 208.59,126.37 208.98,125.7 209.38,125.02 209.78,124.33 210.17,123.65 210.57,122.96 210.97,122.26 211.36,121.56 211.76,120.86 212.16,120.14 212.55,119.42 212.95,118.69 213.35,117.95 213.74,117.21 214.14,116.46 214.54,115.7 214.93,114.94 215.33,114.17 215.73,113.4 216.12,112.62 216.52,111.84 216.91,111.06 217.31,110.27 217.71,109.48 218.1,108.69 218.5,107.9 218.9,107.1 219.29,106.31 219.69,105.52 220.09,104.73 220.48,103.94 220.88,103.15 221.28,102.37 221.67,101.59 222.07,100.81 222.47,100.04 222.86,99.27 223.26,98.5 223.66,97.74 224.05,96.99 224.45,96.24 224.84,95.5 225.24,94.76 225.64,94.03 226.03,93.31 226.43,92.59 226.83,91.89 227.22,91.19 227.62,90.5 228.02,89.82 228.41,89.14 228.81,88.48 229.21,87.83 229.6,87.18 230,86.54 230.4,85.92 230.79,85.3 231.19,84.7 231.59,84.11 231.98,83.52 232.38,82.95 232.78,82.39 233.17,81.84 233.57,81.3 233.96,80.76 234.36,80.24 234.76,79.73 235.15,79.22 235.55,78.72 235.95,78.22 236.34,77.73 236.74,77.25 237.14,76.76 237.53,76.28 237.93,75.79 238.33,75.31 238.72,74.82 239.12,74.32 239.52,73.82 239.91,73.31 240.31,72.8 240.71,72.27 241.1,71.73 241.5,71.18 241.89,70.62 242.29,70.05 242.69,69.47 243.08,68.88 243.48,68.28 243.88,67.67 244.27,67.05 244.67,66.43 245.07,65.81 245.46,65.19 245.86,64.56 246.26,63.95 246.65,63.34 247.05,62.74 247.45,62.15 247.84,61.58 248.24,61.02 248.64,60.49 249.03,59.97 249.43,59.48 249.82,59.02 250.22,58.58 250.62,58.16 251.01,57.78 251.41,57.41 251.81,57.08 252.2,56.78 252.6,56.5 253,56.25 253.39,56.02 253.79,55.81 254.19,55.62 254.58,55.46 254.98,55.32 255.38,55.19 255.77,55.08 256.17,54.98 256.57,54.9 256.96,54.83 257.36,54.77 257.76,54.72 258.15,54.68 258.55,54.64 258.94,54.61 259.34,54.58 259.74,54.56 260.13,54.55 260.53,54.53 260.93,54.52 261.32,54.51 261.72,54.51" stroke-dasharray="none" stroke="rgb(228,26,28)" stroke-width="0.75" opacity="1" stroke-opacity="1" fill="none"/>
          </g>
          <g id="Fig:densplot_01.xyplot.lines.group.5.panel.1.1.1">
            <polyline id="Fig:densplot_01.xyplot.lines.group.5.panel.1.1.1.1" points="59.09,54.52 59.48,54.53 59.88,54.55 60.27,54.57 60.67,54.59 61.07,54.62 61.46,54.66 61.86,54.7 62.26,54.76 62.65,54.82 63.05,54.9 63.45,55 63.84,55.12 64.24,55.25 64.64,55.41 65.03,55.61 65.43,55.83 65.83,56.1 66.22,56.4 66.62,56.74 67.02,57.15 67.41,57.61 67.81,58.13 68.21,58.73 68.6,59.39 69,60.13 69.4,60.96 69.79,61.9 70.19,62.92 70.59,64.05 70.98,65.28 71.38,66.61 71.78,68.09 72.17,69.68 72.57,71.39 72.97,73.22 73.36,75.18 73.76,77.26 74.16,79.49 74.55,81.84 74.95,84.31 75.35,86.9 75.74,89.61 76.14,92.43 76.54,95.39 76.93,98.44 77.33,101.59 77.72,104.82 78.12,108.14 78.52,111.54 78.91,115.02 79.31,118.56 79.71,122.14 80.1,125.76 80.5,129.42 80.9,133.1 81.29,136.8 81.69,140.49 82.09,144.18 82.48,147.86 82.88,151.51 83.28,155.13 83.67,158.69 84.07,162.21 84.47,165.67 84.86,169.06 85.26,172.38 85.66,175.62 86.05,178.75 86.45,181.8 86.85,184.75 87.24,187.6 87.64,190.35 88.04,192.98 88.43,195.49 88.83,197.89 89.23,200.18 89.62,202.36 90.02,204.43 90.42,206.37 90.81,208.19 91.21,209.91 91.61,211.52 92,213.03 92.4,214.43 92.8,215.72 93.19,216.91 93.59,218.01 93.99,219.01 94.38,219.93 94.78,220.76 95.18,221.48 95.57,222.13 95.97,222.69 96.36,223.17 96.76,223.57 97.16,223.89 97.55,224.12 97.95,224.27 98.35,224.35 98.74,224.35 99.14,224.27 99.54,224.13 99.93,223.89 100.33,223.59 100.73,223.22 101.12,222.78 101.52,222.29 101.92,221.73 102.31,221.11 102.71,220.43 103.11,219.71 103.5,218.95 103.9,218.15 104.3,217.31 104.69,216.43 105.09,215.53 105.49,214.61 105.88,213.67 106.28,212.71 106.68,211.74 107.07,210.75 107.47,209.76 107.87,208.76 108.26,207.76 108.66,206.75 109.06,205.74 109.45,204.72 109.85,203.7 110.25,202.67 110.64,201.64 111.04,200.6 111.44,199.56 111.83,198.51 112.23,197.45 112.63,196.38 113.02,195.3 113.42,194.22 113.81,193.12 114.21,192.01 114.61,190.89 115,189.75 115.4,188.61 115.8,187.46 116.19,186.3 116.59,185.13 116.99,183.95 117.38,182.77 117.78,181.57 118.18,180.38 118.57,179.18 118.97,177.98 119.37,176.77 119.76,175.57 120.16,174.37 120.56,173.17 120.95,171.98 121.35,170.79 121.75,169.61 122.14,168.44 122.54,167.28 122.94,166.12 123.33,164.99 123.73,163.86 124.13,162.75 124.52,161.65 124.92,160.58 125.32,159.51 125.71,158.47 126.11,157.45 126.51,156.44 126.9,155.46 127.3,154.49 127.7,153.55 128.09,152.63 128.49,151.72 128.89,150.84 129.28,149.97 129.68,149.13 130.08,148.3 130.47,147.49 130.87,146.7 131.26,145.93 131.66,145.17 132.06,144.43 132.45,143.71 132.85,143.01 133.25,142.32 133.64,141.65 134.04,140.99 134.44,140.36 134.83,139.74 135.23,139.15 135.63,138.57 136.02,138.01 136.42,137.47 136.82,136.95 137.21,136.46 137.61,135.99 138.01,135.54 138.4,135.11 138.8,134.71 139.2,134.32 139.59,133.96 139.99,133.62 140.39,133.29 140.78,132.99 141.18,132.7 141.58,132.43 141.97,132.18 142.37,131.93 142.77,131.7 143.16,131.48 143.56,131.27 143.96,131.06 144.35,130.86 144.75,130.66 145.15,130.47 145.54,130.28 145.94,130.1 146.34,129.92 146.73,129.74 147.13,129.56 147.53,129.39 147.92,129.22 148.32,129.05 148.71,128.89 149.11,128.73 149.51,128.58 149.9,128.44 150.3,128.3 150.7,128.18 151.09,128.06 151.49,127.96 151.89,127.87 152.28,127.79 152.68,127.72 153.08,127.67 153.47,127.63 153.87,127.61 154.27,127.61 154.66,127.62 155.06,127.65 155.46,127.69 155.85,127.76 156.25,127.84 156.65,127.94 157.04,128.06 157.44,128.2 157.84,128.36 158.23,128.54 158.63,128.74 159.03,128.95 159.42,129.19 159.82,129.44 160.22,129.71 160.61,130.01 161.01,130.32 161.41,130.64 161.8,130.99 162.2,131.35 162.6,131.72 162.99,132.12 163.39,132.53 163.79,132.95 164.18,133.38 164.58,133.83 164.98,134.28 165.37,134.75 165.77,135.23 166.16,135.72 166.56,136.22 166.96,136.72 167.35,137.24 167.75,137.75 168.15,138.27 168.54,138.8 168.94,139.33 169.34,139.86 169.73,140.38 170.13,140.91 170.53,141.44 170.92,141.96 171.32,142.48 171.72,142.99 172.11,143.5 172.51,144 172.91,144.48 173.3,144.96 173.7,145.42 174.1,145.87 174.49,146.31 174.89,146.73 175.29,147.13 175.68,147.52 176.08,147.89 176.48,148.24 176.87,148.57 177.27,148.89 177.67,149.18 178.06,149.45 178.46,149.71 178.86,149.95 179.25,150.17 179.65,150.37 180.05,150.56 180.44,150.72 180.84,150.87 181.24,151.01 181.63,151.13 182.03,151.23 182.43,151.31 182.82,151.39 183.22,151.44 183.62,151.49 184.01,151.52 184.41,151.54 184.8,151.54 185.2,151.54 185.6,151.52 185.99,151.49 186.39,151.45 186.79,151.39 187.18,151.33 187.58,151.25 187.98,151.17 188.37,151.07 188.77,150.97 189.17,150.85 189.56,150.73 189.96,150.59 190.36,150.45 190.75,150.29 191.15,150.13 191.55,149.95 191.94,149.77 192.34,149.57 192.74,149.37 193.13,149.15 193.53,148.92 193.93,148.68 194.32,148.43 194.72,148.16 195.12,147.88 195.51,147.58 195.91,147.26 196.31,146.93 196.7,146.58 197.1,146.21 197.5,145.83 197.89,145.42 198.29,144.99 198.69,144.54 199.08,144.07 199.48,143.58 199.88,143.06 200.27,142.53 200.67,141.96 201.07,141.38 201.46,140.77 201.86,140.14 202.25,139.5 202.65,138.83 203.05,138.15 203.44,137.44 203.84,136.72 204.24,135.99 204.63,135.25 205.03,134.49 205.43,133.72 205.82,132.95 206.22,132.17 206.62,131.38 207.01,130.6 207.41,129.8 207.81,129.01 208.2,128.21 208.6,127.42 209,126.62 209.39,125.83 209.79,125.03 210.19,124.23 210.58,123.44 210.98,122.64 211.38,121.84 211.77,121.04 212.17,120.24 212.57,119.43 212.96,118.62 213.36,117.8 213.76,116.99 214.15,116.17 214.55,115.34 214.95,114.51 215.34,113.68 215.74,112.84 216.14,112 216.53,111.16 216.93,110.32 217.33,109.48 217.72,108.64 218.12,107.79 218.52,106.96 218.91,106.12 219.31,105.29 219.7,104.47 220.1,103.65 220.5,102.85 220.89,102.05 221.29,101.26 221.69,100.48 222.08,99.71 222.48,98.96 222.88,98.21 223.27,97.48 223.67,96.77 224.07,96.06 224.46,95.38 224.86,94.71 225.26,94.05 225.65,93.4 226.05,92.77 226.45,92.15 226.84,91.54 227.24,90.95 227.64,90.37 228.03,89.79 228.43,89.23 228.83,88.67 229.22,88.12 229.62,87.58 230.02,87.04 230.41,86.51 230.81,85.98 231.21,85.45 231.6,84.93 232,84.4 232.4,83.88 232.79,83.35 233.19,82.83 233.59,82.3 233.98,81.78 234.38,81.25 234.78,80.72 235.17,80.19 235.57,79.66 235.97,79.12 236.36,78.59 236.76,78.05 237.15,77.51 237.55,76.97 237.95,76.42 238.34,75.87 238.74,75.32 239.14,74.76 239.53,74.2 239.93,73.63 240.33,73.05 240.72,72.46 241.12,71.87 241.52,71.27 241.91,70.66 242.31,70.04 242.71,69.42 243.1,68.79 243.5,68.15 243.9,67.51 244.29,66.87 244.69,66.22 245.09,65.58 245.48,64.94 245.88,64.3 246.28,63.68 246.67,63.06 247.07,62.45 247.47,61.87 247.86,61.3 248.26,60.75 248.66,60.22 249.05,59.71 249.45,59.22 249.85,58.77 250.24,58.34 250.64,57.94 251.04,57.57 251.43,57.22 251.83,56.9 252.23,56.61 252.62,56.35 253.02,56.11 253.42,55.89 253.81,55.7 254.21,55.53 254.6,55.38 255,55.24 255.4,55.13 255.79,55.02 256.19,54.93 256.59,54.86 256.98,54.8 257.38,54.74 257.78,54.69 258.17,54.65 258.57,54.62 258.97,54.59 259.36,54.57 259.76,54.55 260.16,54.54 260.55,54.53 260.95,54.52 261.35,54.51 261.74,54.5" stroke-dasharray="none" stroke="rgb(55,126,184)" stroke-width="0.75" opacity="1" stroke-opacity="1" fill="none"/>
          </g>
          <g id="Fig:densplot_01.xyplot.lines.group.6.panel.1.1.1">
            <polyline id="Fig:densplot_01.xyplot.lines.group.6.panel.1.1.1.1" points="59.13,54.51 59.53,54.52 59.92,54.54 60.32,54.55 60.72,54.57 61.11,54.6 61.51,54.63 61.9,54.66 62.3,54.71 62.7,54.77 63.09,54.84 63.49,54.92 63.89,55.02 64.28,55.14 64.68,55.28 65.08,55.45 65.47,55.65 65.87,55.88 66.26,56.15 66.66,56.47 67.06,56.83 67.45,57.25 67.85,57.73 68.25,58.27 68.64,58.87 69.04,59.57 69.44,60.34 69.83,61.21 70.23,62.16 70.62,63.22 71.02,64.37 71.42,65.64 71.81,67.03 72.21,68.54 72.61,70.16 73,71.9 73.4,73.76 73.8,75.77 74.19,77.9 74.59,80.15 74.98,82.52 75.38,85.01 75.78,87.62 76.17,90.36 76.57,93.21 76.97,96.16 77.36,99.2 77.76,102.34 78.16,105.56 78.55,108.88 78.95,112.28 79.34,115.73 79.74,119.24 80.14,122.8 80.53,126.4 80.93,130.04 81.33,133.71 81.72,137.39 82.12,141.07 82.51,144.76 82.91,148.43 83.31,152.09 83.7,155.71 84.1,159.3 84.5,162.85 84.89,166.35 85.29,169.78 85.69,173.14 86.08,176.42 86.48,179.62 86.87,182.74 87.27,185.76 87.67,188.68 88.06,191.48 88.46,194.16 88.86,196.74 89.25,199.21 89.65,201.56 90.05,203.78 90.44,205.87 90.84,207.83 91.23,209.67 91.63,211.4 92.03,213.01 92.42,214.49 92.82,215.84 93.22,217.07 93.61,218.2 94.01,219.22 94.41,220.13 94.8,220.93 95.2,221.62 95.59,222.21 95.99,222.71 96.39,223.12 96.78,223.44 97.18,223.66 97.58,223.8 97.97,223.86 98.37,223.84 98.77,223.75 99.16,223.59 99.56,223.35 99.95,223.04 100.35,222.68 100.75,222.25 101.14,221.77 101.54,221.24 101.94,220.65 102.33,220.01 102.73,219.32 103.12,218.59 103.52,217.83 103.92,217.02 104.31,216.18 104.71,215.3 105.11,214.4 105.5,213.46 105.9,212.51 106.3,211.52 106.69,210.52 107.09,209.49 107.48,208.45 107.88,207.39 108.28,206.32 108.67,205.23 109.07,204.14 109.47,203.04 109.86,201.93 110.26,200.82 110.66,199.7 111.05,198.58 111.45,197.46 111.84,196.34 112.24,195.22 112.64,194.1 113.03,192.98 113.43,191.86 113.83,190.74 114.22,189.62 114.62,188.49 115.02,187.37 115.41,186.24 115.81,185.11 116.2,183.98 116.6,182.84 117,181.69 117.39,180.54 117.79,179.38 118.19,178.22 118.58,177.06 118.98,175.88 119.38,174.71 119.77,173.53 120.17,172.34 120.56,171.16 120.96,169.98 121.36,168.8 121.75,167.62 122.15,166.45 122.55,165.28 122.94,164.13 123.34,162.99 123.73,161.86 124.13,160.75 124.53,159.66 124.92,158.59 125.32,157.54 125.72,156.51 126.11,155.51 126.51,154.53 126.91,153.58 127.3,152.66 127.7,151.76 128.09,150.9 128.49,150.07 128.89,149.26 129.28,148.48 129.68,147.72 130.08,147 130.47,146.3 130.87,145.63 131.27,144.98 131.66,144.35 132.06,143.74 132.45,143.16 132.85,142.6 133.25,142.06 133.64,141.54 134.04,141.04 134.44,140.55 134.83,140.09 135.23,139.64 135.63,139.21 136.02,138.8 136.42,138.4 136.81,138.02 137.21,137.66 137.61,137.32 138,137 138.4,136.69 138.8,136.4 139.19,136.13 139.59,135.88 139.99,135.64 140.38,135.42 140.78,135.21 141.17,135.01 141.57,134.82 141.97,134.64 142.36,134.47 142.76,134.3 143.16,134.14 143.55,133.98 143.95,133.81 144.34,133.65 144.74,133.48 145.14,133.3 145.53,133.12 145.93,132.93 146.33,132.73 146.72,132.52 147.12,132.31 147.52,132.09 147.91,131.86 148.31,131.63 148.7,131.39 149.1,131.16 149.5,130.92 149.89,130.69 150.29,130.47 150.69,130.25 151.08,130.05 151.48,129.86 151.88,129.69 152.27,129.53 152.67,129.4 153.06,129.29 153.46,129.21 153.86,129.15 154.25,129.13 154.65,129.13 155.05,129.15 155.44,129.21 155.84,129.3 156.24,129.41 156.63,129.56 157.03,129.73 157.42,129.92 157.82,130.13 158.22,130.37 158.61,130.63 159.01,130.91 159.41,131.2 159.8,131.5 160.2,131.82 160.6,132.14 160.99,132.48 161.39,132.82 161.78,133.16 162.18,133.52 162.58,133.87 162.97,134.23 163.37,134.59 163.77,134.96 164.16,135.33 164.56,135.71 164.95,136.09 165.35,136.48 165.75,136.87 166.14,137.28 166.54,137.69 166.94,138.11 167.33,138.54 167.73,138.99 168.13,139.44 168.52,139.91 168.92,140.39 169.31,140.88 169.71,141.38 170.11,141.9 170.5,142.42 170.9,142.94 171.3,143.48 171.69,144.01 172.09,144.55 172.49,145.09 172.88,145.62 173.28,146.15 173.67,146.67 174.07,147.19 174.47,147.69 174.86,148.18 175.26,148.65 175.66,149.11 176.05,149.55 176.45,149.97 176.85,150.38 177.24,150.76 177.64,151.13 178.03,151.47 178.43,151.8 178.83,152.1 179.22,152.39 179.62,152.65 180.02,152.89 180.41,153.12 180.81,153.32 181.21,153.51 181.6,153.67 182,153.81 182.39,153.94 182.79,154.04 183.19,154.12 183.58,154.19 183.98,154.23 184.38,154.25 184.77,154.24 185.17,154.22 185.56,154.18 185.96,154.12 186.36,154.04 186.75,153.94 187.15,153.81 187.55,153.67 187.94,153.51 188.34,153.34 188.74,153.14 189.13,152.93 189.53,152.7 189.92,152.46 190.32,152.2 190.72,151.93 191.11,151.65 191.51,151.35 191.91,151.04 192.3,150.71 192.7,150.38 193.1,150.04 193.49,149.68 193.89,149.31 194.28,148.94 194.68,148.55 195.08,148.16 195.47,147.76 195.87,147.35 196.27,146.93 196.66,146.5 197.06,146.07 197.46,145.63 197.85,145.18 198.25,144.72 198.64,144.26 199.04,143.79 199.44,143.31 199.83,142.82 200.23,142.32 200.63,141.81 201.02,141.29 201.42,140.76 201.82,140.22 202.21,139.67 202.61,139.11 203,138.53 203.4,137.93 203.8,137.32 204.19,136.7 204.59,136.06 204.99,135.4 205.38,134.73 205.78,134.04 206.17,133.33 206.57,132.6 206.97,131.86 207.36,131.11 207.76,130.33 208.16,129.54 208.55,128.74 208.95,127.93 209.35,127.1 209.74,126.27 210.14,125.42 210.53,124.56 210.93,123.7 211.33,122.83 211.72,121.95 212.12,121.08 212.52,120.19 212.91,119.31 213.31,118.43 213.71,117.54 214.1,116.66 214.5,115.78 214.89,114.9 215.29,114.02 215.69,113.14 216.08,112.27 216.48,111.4 216.88,110.54 217.27,109.68 217.67,108.82 218.07,107.97 218.46,107.13 218.86,106.29 219.25,105.46 219.65,104.63 220.05,103.81 220.44,103 220.84,102.2 221.24,101.4 221.63,100.62 222.03,99.85 222.43,99.08 222.82,98.33 223.22,97.59 223.61,96.85 224.01,96.13 224.41,95.42 224.8,94.73 225.2,94.04 225.6,93.36 225.99,92.69 226.39,92.04 226.78,91.39 227.18,90.75 227.58,90.11 227.97,89.49 228.37,88.86 228.77,88.25 229.16,87.64 229.56,87.03 229.96,86.43 230.35,85.83 230.75,85.24 231.14,84.65 231.54,84.06 231.94,83.48 232.33,82.9 232.73,82.33 233.13,81.76 233.52,81.2 233.92,80.65 234.32,80.1 234.71,79.56 235.11,79.03 235.5,78.5 235.9,77.98 236.3,77.47 236.69,76.96 237.09,76.45 237.49,75.95 237.88,75.45 238.28,74.95 238.68,74.45 239.07,73.95 239.47,73.44 239.86,72.92 240.26,72.4 240.66,71.87 241.05,71.33 241.45,70.78 241.85,70.22 242.24,69.65 242.64,69.06 243.04,68.47 243.43,67.87 243.83,67.26 244.22,66.64 244.62,66.02 245.02,65.4 245.41,64.78 245.81,64.16 246.21,63.54 246.6,62.94 247,62.34 247.39,61.76 247.79,61.2 248.19,60.66 248.58,60.14 248.98,59.63 249.38,59.16 249.77,58.7 250.17,58.28 250.57,57.89 250.96,57.52 251.36,57.18 251.75,56.86 252.15,56.57 252.55,56.31 252.94,56.08 253.34,55.86 253.74,55.67 254.13,55.5 254.53,55.35 254.93,55.22 255.32,55.11 255.72,55.01 256.11,54.92 256.51,54.85 256.91,54.79 257.3,54.73 257.7,54.69 258.1,54.65 258.49,54.62 258.89,54.59 259.29,54.57 259.68,54.55 260.08,54.54 260.47,54.52 260.87,54.52 261.27,54.51 261.66,54.5" stroke-dasharray="none" stroke="rgb(55,126,184)" stroke-width="0.75" opacity="1" stroke-opacity="1" fill="none"/>
          </g>
          <g id="Fig:densplot_01.xyplot.lines.group.7.panel.1.1.1">
            <polyline id="Fig:densplot_01.xyplot.lines.group.7.panel.1.1.1.1" points="59.39,54.52 59.79,54.53 60.18,54.54 60.58,54.56 60.97,54.58 61.37,54.61 61.76,54.65 62.16,54.69 62.55,54.74 62.95,54.8 63.34,54.88 63.74,54.97 64.13,55.08 64.53,55.22 64.92,55.37 65.32,55.56 65.71,55.77 66.11,56.03 66.51,56.32 66.9,56.66 67.3,57.05 67.69,57.49 68.09,57.99 68.48,58.56 68.88,59.21 69.27,59.93 69.67,60.73 70.06,61.61 70.46,62.59 70.85,63.68 71.25,64.87 71.64,66.16 72.04,67.55 72.43,69.04 72.83,70.66 73.22,72.4 73.62,74.26 74.02,76.22 74.41,78.29 74.81,80.48 75.2,82.77 75.6,85.18 75.99,87.7 76.39,90.3 76.78,93 77.18,95.78 77.57,98.65 77.97,101.6 78.36,104.62 78.76,107.69 79.15,110.82 79.55,114 79.94,117.23 80.34,120.49 80.74,123.78 81.13,127.08 81.53,130.4 81.92,133.73 82.32,137.06 82.71,140.38 83.11,143.69 83.5,146.97 83.9,150.23 84.29,153.46 84.69,156.65 85.08,159.79 85.48,162.88 85.87,165.91 86.27,168.88 86.66,171.79 87.06,174.62 87.45,177.37 87.85,180.04 88.25,182.63 88.64,185.14 89.04,187.56 89.43,189.88 89.83,192.1 90.22,194.23 90.62,196.27 91.01,198.21 91.41,200.06 91.8,201.82 92.2,203.47 92.59,205.03 92.99,206.5 93.38,207.9 93.78,209.21 94.17,210.43 94.57,211.56 94.97,212.61 95.36,213.6 95.76,214.51 96.15,215.35 96.55,216.12 96.94,216.81 97.34,217.44 97.73,218.01 98.13,218.51 98.52,218.96 98.92,219.33 99.31,219.65 99.71,219.9 100.1,220.1 100.5,220.25 100.89,220.33 101.29,220.37 101.68,220.34 102.08,220.26 102.48,220.13 102.87,219.95 103.27,219.72 103.66,219.44 104.06,219.12 104.45,218.75 104.85,218.34 105.24,217.89 105.64,217.4 106.03,216.87 106.43,216.3 106.82,215.69 107.22,215.05 107.61,214.38 108.01,213.68 108.4,212.94 108.8,212.17 109.2,211.38 109.59,210.55 109.99,209.7 110.38,208.82 110.78,207.91 111.17,206.97 111.57,206.01 111.96,205.03 112.36,204.03 112.75,203 113.15,201.95 113.54,200.89 113.94,199.8 114.33,198.71 114.73,197.59 115.12,196.47 115.52,195.34 115.91,194.19 116.31,193.05 116.71,191.89 117.1,190.74 117.5,189.58 117.89,188.43 118.29,187.28 118.68,186.13 119.08,184.98 119.47,183.84 119.87,182.71 120.26,181.58 120.66,180.46 121.05,179.35 121.45,178.24 121.84,177.14 122.24,176.04 122.63,174.95 123.03,173.86 123.42,172.77 123.82,171.69 124.22,170.6 124.61,169.52 125.01,168.44 125.4,167.36 125.8,166.27 126.19,165.19 126.59,164.1 126.98,163.02 127.38,161.94 127.77,160.86 128.17,159.78 128.56,158.71 128.96,157.65 129.35,156.6 129.75,155.57 130.14,154.55 130.54,153.55 130.94,152.57 131.33,151.61 131.73,150.68 132.12,149.78 132.52,148.91 132.91,148.08 133.31,147.28 133.7,146.51 134.1,145.78 134.49,145.09 134.89,144.44 135.28,143.82 135.68,143.25 136.07,142.7 136.47,142.2 136.86,141.72 137.26,141.29 137.65,140.88 138.05,140.5 138.45,140.15 138.84,139.82 139.24,139.52 139.63,139.24 140.03,138.98 140.42,138.73 140.82,138.5 141.21,138.27 141.61,138.06 142,137.86 142.4,137.66 142.79,137.47 143.19,137.28 143.58,137.09 143.98,136.9 144.37,136.71 144.77,136.52 145.17,136.32 145.56,136.12 145.96,135.91 146.35,135.7 146.75,135.48 147.14,135.25 147.54,135.02 147.93,134.79 148.33,134.55 148.72,134.31 149.12,134.07 149.51,133.83 149.91,133.6 150.3,133.37 150.7,133.15 151.09,132.95 151.49,132.76 151.88,132.59 152.28,132.44 152.68,132.31 153.07,132.2 153.47,132.12 153.86,132.07 154.26,132.05 154.65,132.06 155.05,132.1 155.44,132.16 155.84,132.26 156.23,132.4 156.63,132.55 157.02,132.74 157.42,132.95 157.81,133.18 158.21,133.44 158.6,133.72 159,134.01 159.4,134.32 159.79,134.64 160.19,134.97 160.58,135.31 160.98,135.66 161.37,136.01 161.77,136.37 162.16,136.72 162.56,137.08 162.95,137.43 163.35,137.78 163.74,138.12 164.14,138.46 164.53,138.8 164.93,139.13 165.32,139.46 165.72,139.77 166.11,140.09 166.51,140.39 166.91,140.7 167.3,140.99 167.7,141.29 168.09,141.58 168.49,141.86 168.88,142.14 169.28,142.43 169.67,142.71 170.07,142.98 170.46,143.26 170.86,143.54 171.25,143.82 171.65,144.09 172.04,144.37 172.44,144.65 172.83,144.92 173.23,145.2 173.63,145.47 174.02,145.74 174.42,146.01 174.81,146.27 175.21,146.52 175.6,146.77 176,147.01 176.39,147.24 176.79,147.47 177.18,147.68 177.58,147.87 177.97,148.06 178.37,148.23 178.76,148.39 179.16,148.54 179.55,148.67 179.95,148.79 180.34,148.9 180.74,148.99 181.14,149.07 181.53,149.13 181.93,149.18 182.32,149.23 182.72,149.25 183.11,149.27 183.51,149.28 183.9,149.28 184.3,149.27 184.69,149.25 185.09,149.22 185.48,149.18 185.88,149.14 186.27,149.08 186.67,149.02 187.06,148.95 187.46,148.87 187.86,148.78 188.25,148.69 188.65,148.58 189.04,148.47 189.44,148.36 189.83,148.23 190.23,148.1 190.62,147.96 191.02,147.81 191.41,147.65 191.81,147.49 192.2,147.32 192.6,147.14 192.99,146.94 193.39,146.74 193.78,146.53 194.18,146.3 194.57,146.07 194.97,145.81 195.37,145.55 195.76,145.27 196.16,144.97 196.55,144.65 196.95,144.31 197.34,143.95 197.74,143.58 198.13,143.18 198.53,142.75 198.92,142.31 199.32,141.83 199.71,141.34 200.11,140.82 200.5,140.27 200.9,139.7 201.29,139.1 201.69,138.47 202.09,137.83 202.48,137.16 202.88,136.46 203.27,135.74 203.67,135 204.06,134.24 204.46,133.47 204.85,132.67 205.25,131.87 205.64,131.05 206.04,130.21 206.43,129.37 206.83,128.52 207.22,127.66 207.62,126.8 208.01,125.93 208.41,125.07 208.8,124.2 209.2,123.33 209.6,122.46 209.99,121.59 210.39,120.72 210.78,119.86 211.18,119 211.57,118.14 211.97,117.29 212.36,116.44 212.76,115.6 213.15,114.76 213.55,113.92 213.94,113.1 214.34,112.28 214.73,111.46 215.13,110.66 215.52,109.86 215.92,109.07 216.31,108.29 216.71,107.51 217.11,106.75 217.5,106 217.9,105.26 218.29,104.52 218.69,103.8 219.08,103.08 219.48,102.38 219.87,101.68 220.27,100.99 220.66,100.31 221.06,99.63 221.45,98.96 221.85,98.3 222.24,97.64 222.64,96.98 223.03,96.33 223.43,95.68 223.83,95.04 224.22,94.4 224.62,93.75 225.01,93.12 225.41,92.48 225.8,91.84 226.2,91.21 226.59,90.57 226.99,89.94 227.38,89.32 227.78,88.69 228.17,88.07 228.57,87.45 228.96,86.83 229.36,86.22 229.75,85.62 230.15,85.02 230.54,84.42 230.94,83.83 231.34,83.25 231.73,82.68 232.13,82.12 232.52,81.56 232.92,81.01 233.31,80.47 233.71,79.94 234.1,79.42 234.5,78.91 234.89,78.41 235.29,77.91 235.68,77.42 236.08,76.93 236.47,76.45 236.87,75.97 237.26,75.5 237.66,75.02 238.06,74.54 238.45,74.06 238.85,73.58 239.24,73.09 239.64,72.59 240.03,72.09 240.43,71.58 240.82,71.06 241.22,70.52 241.61,69.98 242.01,69.43 242.4,68.86 242.8,68.29 243.19,67.71 243.59,67.12 243.98,66.53 244.38,65.93 244.77,65.33 245.17,64.73 245.57,64.13 245.96,63.54 246.36,62.96 246.75,62.38 247.15,61.82 247.54,61.27 247.94,60.74 248.33,60.22 248.73,59.73 249.12,59.26 249.52,58.82 249.91,58.39 250.31,57.99 250.7,57.62 251.1,57.28 251.49,56.96 251.89,56.67 252.29,56.4 252.68,56.16 253.08,55.94 253.47,55.75 253.87,55.57 254.26,55.41 254.66,55.28 255.05,55.15 255.45,55.05 255.84,54.96 256.24,54.88 256.63,54.81 257.03,54.75 257.42,54.7 257.82,54.66 258.21,54.63 258.61,54.6 259,54.58 259.4,54.56 259.8,54.54 260.19,54.53 260.59,54.52 260.98,54.51 261.38,54.5" stroke-dasharray="none" stroke="rgb(55,126,184)" stroke-width="0.75" opacity="1" stroke-opacity="1" fill="none"/>
          </g>
          <g id="Fig:densplot_01.xyplot.lines.group.8.panel.1.1.1">
            <polyline id="Fig:densplot_01.xyplot.lines.group.8.panel.1.1.1.1" points="59.02,54.52 59.42,54.54 59.81,54.55 60.21,54.57 60.61,54.6 61,54.63 61.4,54.66 61.8,54.71 62.19,54.77 62.59,54.84 62.99,54.92 63.38,55.02 63.78,55.14 64.18,55.29 64.57,55.45 64.97,55.66 65.37,55.89 65.76,56.17 66.16,56.49 66.56,56.85 66.95,57.27 67.35,57.76 67.75,58.32 68.14,58.94 68.54,59.64 68.94,60.43 69.34,61.3 69.73,62.29 70.13,63.38 70.53,64.57 70.92,65.88 71.32,67.3 71.72,68.84 72.11,70.54 72.51,72.35 72.91,74.3 73.3,76.37 73.7,78.57 74.1,80.91 74.49,83.4 74.89,86.01 75.29,88.75 75.68,91.6 76.08,94.56 76.48,97.64 76.87,100.83 77.27,104.12 77.67,107.49 78.06,110.94 78.46,114.46 78.86,118.05 79.25,121.69 79.65,125.37 80.05,129.09 80.44,132.82 80.84,136.57 81.24,140.33 81.64,144.08 82.03,147.82 82.43,151.53 82.83,155.22 83.22,158.87 83.62,162.46 84.02,166.01 84.41,169.49 84.81,172.9 85.21,176.25 85.6,179.53 86,182.7 86.4,185.79 86.79,188.78 87.19,191.68 87.59,194.48 87.98,197.18 88.38,199.75 88.78,202.21 89.17,204.56 89.57,206.8 89.97,208.92 90.36,210.92 90.76,212.77 91.16,214.51 91.55,216.12 91.95,217.61 92.35,218.99 92.74,220.24 93.14,221.35 93.54,222.34 93.94,223.22 94.33,223.99 94.73,224.66 95.13,225.21 95.52,225.64 95.92,225.97 96.32,226.21 96.71,226.37 97.11,226.44 97.51,226.42 97.9,226.31 98.3,226.13 98.7,225.89 99.09,225.59 99.49,225.22 99.89,224.8 100.28,224.31 100.68,223.79 101.08,223.21 101.47,222.6 101.87,221.95 102.27,221.26 102.66,220.54 103.06,219.79 103.46,219.01 103.85,218.2 104.25,217.38 104.65,216.52 105.04,215.64 105.44,214.74 105.84,213.83 106.24,212.89 106.63,211.93 107.03,210.95 107.43,209.95 107.82,208.93 108.22,207.89 108.62,206.84 109.01,205.76 109.41,204.66 109.81,203.54 110.2,202.4 110.6,201.24 111,200.06 111.39,198.86 111.79,197.65 112.19,196.42 112.58,195.17 112.98,193.91 113.38,192.64 113.77,191.36 114.17,190.07 114.57,188.77 114.96,187.47 115.36,186.17 115.76,184.87 116.15,183.56 116.55,182.27 116.95,180.97 117.35,179.68 117.74,178.4 118.14,177.13 118.54,175.87 118.93,174.62 119.33,173.38 119.73,172.15 120.12,170.94 120.52,169.74 120.92,168.56 121.31,167.4 121.71,166.25 122.11,165.11 122.5,164 122.9,162.9 123.3,161.82 123.69,160.75 124.09,159.71 124.49,158.68 124.88,157.67 125.28,156.68 125.68,155.7 126.07,154.75 126.47,153.81 126.87,152.89 127.26,151.99 127.66,151.1 128.06,150.23 128.45,149.38 128.85,148.54 129.25,147.72 129.65,146.91 130.04,146.11 130.44,145.33 130.84,144.56 131.23,143.81 131.63,143.06 132.03,142.33 132.42,141.61 132.82,140.9 133.22,140.21 133.61,139.52 134.01,138.85 134.41,138.19 134.8,137.55 135.2,136.92 135.6,136.3 135.99,135.7 136.39,135.11 136.79,134.55 137.18,134 137.58,133.47 137.98,132.96 138.37,132.47 138.77,132.01 139.17,131.56 139.56,131.14 139.96,130.74 140.36,130.37 140.75,130.02 141.15,129.69 141.55,129.38 141.95,129.1 142.34,128.84 142.74,128.61 143.14,128.39 143.53,128.19 143.93,128.01 144.33,127.84 144.72,127.69 145.12,127.56 145.52,127.44 145.91,127.32 146.31,127.22 146.71,127.13 147.1,127.05 147.5,126.97 147.9,126.9 148.29,126.83 148.69,126.77 149.09,126.72 149.48,126.67 149.88,126.63 150.28,126.6 150.67,126.57 151.07,126.55 151.47,126.55 151.86,126.55 152.26,126.56 152.66,126.59 153.05,126.63 153.45,126.68 153.85,126.75 154.25,126.84 154.64,126.95 155.04,127.07 155.44,127.21 155.83,127.37 156.23,127.55 156.63,127.75 157.02,127.96 157.42,128.19 157.82,128.44 158.21,128.71 158.61,128.99 159.01,129.28 159.4,129.59 159.8,129.91 160.2,130.24 160.59,130.59 160.99,130.94 161.39,131.3 161.78,131.67 162.18,132.05 162.58,132.44 162.97,132.83 163.37,133.23 163.77,133.63 164.16,134.05 164.56,134.47 164.96,134.89 165.35,135.33 165.75,135.77 166.15,136.22 166.55,136.67 166.94,137.13 167.34,137.6 167.74,138.08 168.13,138.57 168.53,139.06 168.93,139.55 169.32,140.05 169.72,140.55 170.12,141.06 170.51,141.56 170.91,142.07 171.31,142.57 171.7,143.07 172.1,143.56 172.5,144.05 172.89,144.53 173.29,144.99 173.69,145.45 174.08,145.89 174.48,146.32 174.88,146.74 175.27,147.14 175.67,147.52 176.07,147.88 176.46,148.23 176.86,148.57 177.26,148.88 177.65,149.18 178.05,149.46 178.45,149.72 178.85,149.97 179.24,150.2 179.64,150.41 180.04,150.61 180.43,150.79 180.83,150.96 181.23,151.11 181.62,151.24 182.02,151.36 182.42,151.47 182.81,151.55 183.21,151.63 183.61,151.69 184,151.73 184.4,151.76 184.8,151.77 185.19,151.77 185.59,151.75 185.99,151.72 186.38,151.68 186.78,151.63 187.18,151.56 187.57,151.49 187.97,151.41 188.37,151.32 188.76,151.22 189.16,151.11 189.56,151 189.95,150.88 190.35,150.75 190.75,150.62 191.15,150.48 191.54,150.33 191.94,150.17 192.34,150.01 192.73,149.83 193.13,149.65 193.53,149.44 193.92,149.22 194.32,148.99 194.72,148.74 195.11,148.47 195.51,148.17 195.91,147.85 196.3,147.51 196.7,147.15 197.1,146.76 197.49,146.35 197.89,145.91 198.29,145.44 198.68,144.94 199.08,144.42 199.48,143.88 199.87,143.32 200.27,142.73 200.67,142.12 201.06,141.49 201.46,140.84 201.86,140.18 202.25,139.5 202.65,138.8 203.05,138.09 203.45,137.36 203.84,136.62 204.24,135.88 204.64,135.12 205.03,134.35 205.43,133.57 205.83,132.79 206.22,132 206.62,131.2 207.02,130.39 207.41,129.58 207.81,128.76 208.21,127.94 208.6,127.11 209,126.28 209.4,125.45 209.79,124.61 210.19,123.77 210.59,122.94 210.98,122.1 211.38,121.26 211.78,120.43 212.17,119.59 212.57,118.76 212.97,117.94 213.36,117.11 213.76,116.3 214.16,115.48 214.55,114.67 214.95,113.87 215.35,113.07 215.75,112.28 216.14,111.49 216.54,110.7 216.94,109.92 217.33,109.15 217.73,108.37 218.13,107.6 218.52,106.84 218.92,106.08 219.32,105.32 219.71,104.57 220.11,103.82 220.51,103.07 220.9,102.33 221.3,101.59 221.7,100.85 222.09,100.13 222.49,99.4 222.89,98.68 223.28,97.97 223.68,97.26 224.08,96.56 224.47,95.87 224.87,95.18 225.27,94.5 225.66,93.83 226.06,93.17 226.46,92.51 226.85,91.87 227.25,91.23 227.65,90.59 228.05,89.97 228.44,89.35 228.84,88.74 229.24,88.13 229.63,87.54 230.03,86.95 230.43,86.36 230.82,85.78 231.22,85.21 231.62,84.65 232.01,84.09 232.41,83.53 232.81,82.98 233.2,82.44 233.6,81.9 234,81.36 234.39,80.83 234.79,80.3 235.19,79.78 235.58,79.26 235.98,78.74 236.38,78.22 236.77,77.7 237.17,77.18 237.57,76.67 237.96,76.14 238.36,75.62 238.76,75.09 239.15,74.56 239.55,74.02 239.95,73.47 240.35,72.91 240.74,72.34 241.14,71.77 241.54,71.18 241.93,70.59 242.33,69.99 242.73,69.37 243.12,68.75 243.52,68.12 243.92,67.48 244.31,66.84 244.71,66.2 245.11,65.56 245.5,64.92 245.9,64.29 246.3,63.66 246.69,63.04 247.09,62.44 247.49,61.85 247.88,61.28 248.28,60.73 248.68,60.2 249.07,59.69 249.47,59.21 249.87,58.75 250.26,58.33 250.66,57.93 251.06,57.55 251.45,57.2 251.85,56.89 252.25,56.6 252.65,56.34 253.04,56.1 253.44,55.88 253.84,55.69 254.23,55.52 254.63,55.37 255.03,55.24 255.42,55.12 255.82,55.02 256.22,54.93 256.61,54.86 257.01,54.79 257.41,54.74 257.8,54.69 258.2,54.65 258.6,54.62 258.99,54.59 259.39,54.57 259.79,54.55 260.18,54.54 260.58,54.53 260.98,54.52 261.37,54.51 261.77,54.5" stroke-dasharray="none" stroke="rgb(55,126,184)" stroke-width="0.75" opacity="1" stroke-opacity="1" fill="none"/>
          </g>
          <g id="Fig:densplot_01.xyplot.lines.group.9.panel.1.1.1">
            <polyline id="Fig:densplot_01.xyplot.lines.group.9.panel.1.1.1.1" points="59.22,54.52 59.62,54.53 60.01,54.54 60.41,54.56 60.81,54.58 61.2,54.61 61.6,54.64 62,54.68 62.39,54.74 62.79,54.8 63.18,54.87 63.58,54.96 63.98,55.07 64.37,55.2 64.77,55.35 65.16,55.53 65.56,55.74 65.96,55.98 66.35,56.26 66.75,56.59 67.14,56.97 67.54,57.4 67.94,57.89 68.33,58.45 68.73,59.06 69.12,59.77 69.52,60.56 69.92,61.43 70.31,62.39 70.71,63.44 71.1,64.59 71.5,65.87 71.9,67.25 72.29,68.75 72.69,70.35 73.08,72.07 73.48,73.91 73.88,75.89 74.27,77.99 74.67,80.2 75.06,82.53 75.46,84.97 75.86,87.53 76.25,90.22 76.65,93.02 77.05,95.92 77.44,98.91 77.84,102 78.23,105.18 78.63,108.46 79.03,111.81 79.42,115.23 79.82,118.71 80.21,122.24 80.61,125.83 81.01,129.46 81.4,133.12 81.8,136.81 82.19,140.51 82.59,144.21 82.99,147.92 83.38,151.61 83.78,155.28 84.17,158.92 84.57,162.53 84.97,166.09 85.36,169.59 85.76,173.02 86.15,176.38 86.55,179.67 86.95,182.87 87.34,185.99 87.74,189.01 88.13,191.91 88.53,194.7 88.93,197.4 89.32,199.98 89.72,202.45 90.11,204.8 90.51,207.02 90.91,209.13 91.3,211.12 91.7,213.01 92.1,214.77 92.49,216.42 92.89,217.94 93.28,219.35 93.68,220.66 94.08,221.87 94.47,222.97 94.87,223.95 95.26,224.83 95.66,225.61 96.06,226.29 96.45,226.88 96.85,227.37 97.24,227.76 97.64,228.05 98.04,228.25 98.43,228.37 98.83,228.39 99.22,228.34 99.62,228.19 100.02,227.95 100.41,227.63 100.81,227.25 101.2,226.78 101.6,226.25 102,225.64 102.39,224.97 102.79,224.24 103.18,223.45 103.58,222.61 103.98,221.73 104.37,220.8 104.77,219.82 105.16,218.81 105.56,217.78 105.96,216.71 106.35,215.63 106.75,214.52 107.14,213.4 107.54,212.26 107.94,211.11 108.33,209.96 108.73,208.8 109.13,207.64 109.52,206.48 109.92,205.32 110.31,204.16 110.71,203 111.11,201.84 111.5,200.69 111.9,199.54 112.29,198.4 112.69,197.25 113.09,196.11 113.48,194.98 113.88,193.84 114.27,192.71 114.67,191.57 115.07,190.44 115.46,189.3 115.86,188.16 116.25,187.02 116.65,185.87 117.05,184.71 117.44,183.55 117.84,182.38 118.23,181.21 118.63,180.02 119.03,178.83 119.42,177.63 119.82,176.42 120.21,175.2 120.61,173.97 121.01,172.74 121.4,171.5 121.8,170.26 122.19,169.02 122.59,167.77 122.99,166.53 123.38,165.3 123.78,164.07 124.18,162.85 124.57,161.64 124.97,160.45 125.36,159.27 125.76,158.12 126.16,156.98 126.55,155.88 126.95,154.79 127.34,153.73 127.74,152.71 128.14,151.72 128.53,150.75 128.93,149.82 129.32,148.92 129.72,148.06 130.12,147.23 130.51,146.43 130.91,145.66 131.3,144.93 131.7,144.22 132.1,143.55 132.49,142.91 132.89,142.29 133.28,141.7 133.68,141.14 134.08,140.6 134.47,140.08 134.87,139.58 135.26,139.11 135.66,138.65 136.06,138.21 136.45,137.78 136.85,137.37 137.24,136.97 137.64,136.58 138.04,136.21 138.43,135.84 138.83,135.48 139.23,135.12 139.62,134.78 140.02,134.44 140.41,134.11 140.81,133.78 141.21,133.45 141.6,133.14 142,132.82 142.39,132.52 142.79,132.22 143.19,131.93 143.58,131.64 143.98,131.36 144.37,131.09 144.77,130.83 145.17,130.58 145.56,130.34 145.96,130.12 146.35,129.9 146.75,129.7 147.15,129.51 147.54,129.34 147.94,129.18 148.33,129.03 148.73,128.89 149.13,128.77 149.52,128.67 149.92,128.58 150.31,128.5 150.71,128.43 151.11,128.37 151.5,128.33 151.9,128.3 152.29,128.29 152.69,128.28 153.09,128.29 153.48,128.3 153.88,128.33 154.27,128.38 154.67,128.43 155.07,128.49 155.46,128.57 155.86,128.66 156.26,128.77 156.65,128.88 157.05,129.02 157.44,129.16 157.84,129.32 158.24,129.5 158.63,129.69 159.03,129.9 159.42,130.12 159.82,130.35 160.22,130.6 160.61,130.87 161.01,131.15 161.4,131.45 161.8,131.76 162.2,132.08 162.59,132.42 162.99,132.77 163.38,133.14 163.78,133.51 164.18,133.9 164.57,134.31 164.97,134.72 165.36,135.15 165.76,135.6 166.16,136.06 166.55,136.53 166.95,137.01 167.34,137.51 167.74,138.03 168.14,138.56 168.53,139.11 168.93,139.67 169.32,140.24 169.72,140.82 170.12,141.42 170.51,142.02 170.91,142.64 171.31,143.25 171.7,143.87 172.1,144.5 172.49,145.12 172.89,145.73 173.29,146.33 173.68,146.93 174.08,147.51 174.47,148.07 174.87,148.61 175.27,149.12 175.66,149.61 176.06,150.06 176.45,150.49 176.85,150.89 177.25,151.25 177.64,151.57 178.04,151.85 178.43,152.11 178.83,152.32 179.23,152.51 179.62,152.65 180.02,152.75 180.41,152.83 180.81,152.88 181.21,152.9 181.6,152.89 182,152.86 182.39,152.8 182.79,152.73 183.19,152.64 183.58,152.54 183.98,152.42 184.37,152.29 184.77,152.16 185.17,152.01 185.56,151.87 185.96,151.72 186.36,151.57 186.75,151.42 187.15,151.27 187.54,151.12 187.94,150.97 188.34,150.83 188.73,150.69 189.13,150.54 189.52,150.4 189.92,150.26 190.32,150.12 190.71,149.98 191.11,149.84 191.5,149.69 191.9,149.53 192.3,149.37 192.69,149.2 193.09,149.02 193.48,148.82 193.88,148.62 194.28,148.39 194.67,148.15 195.07,147.89 195.46,147.61 195.86,147.3 196.26,146.97 196.65,146.62 197.05,146.24 197.44,145.84 197.84,145.41 198.24,144.95 198.63,144.46 199.03,143.95 199.42,143.41 199.82,142.84 200.22,142.26 200.61,141.64 201.01,141 201.41,140.34 201.8,139.66 202.2,138.96 202.59,138.24 202.99,137.51 203.39,136.76 203.78,136 204.18,135.23 204.57,134.45 204.97,133.67 205.37,132.87 205.76,132.07 206.16,131.27 206.55,130.47 206.95,129.66 207.35,128.85 207.74,128.04 208.14,127.24 208.53,126.43 208.93,125.62 209.33,124.81 209.72,124 210.12,123.2 210.51,122.39 210.91,121.58 211.31,120.77 211.7,119.95 212.1,119.14 212.49,118.32 212.89,117.5 213.29,116.68 213.68,115.86 214.08,115.03 214.47,114.2 214.87,113.37 215.27,112.54 215.66,111.7 216.06,110.87 216.45,110.03 216.85,109.2 217.25,108.36 217.64,107.53 218.04,106.71 218.44,105.88 218.83,105.07 219.23,104.25 219.62,103.45 220.02,102.66 220.42,101.87 220.81,101.09 221.21,100.32 221.6,99.56 222,98.81 222.4,98.07 222.79,97.34 223.19,96.62 223.58,95.91 223.98,95.21 224.38,94.52 224.77,93.83 225.17,93.16 225.56,92.5 225.96,91.84 226.36,91.2 226.75,90.56 227.15,89.93 227.54,89.32 227.94,88.7 228.34,88.1 228.73,87.51 229.13,86.92 229.52,86.35 229.92,85.78 230.32,85.22 230.71,84.68 231.11,84.14 231.5,83.61 231.9,83.09 232.3,82.58 232.69,82.07 233.09,81.58 233.49,81.09 233.88,80.6 234.28,80.13 234.67,79.65 235.07,79.18 235.47,78.71 235.86,78.25 236.26,77.78 236.65,77.31 237.05,76.83 237.45,76.36 237.84,75.88 238.24,75.38 238.63,74.89 239.03,74.38 239.43,73.86 239.82,73.33 240.22,72.79 240.61,72.24 241.01,71.68 241.41,71.1 241.8,70.51 242.2,69.91 242.59,69.3 242.99,68.68 243.39,68.05 243.78,67.41 244.18,66.77 244.57,66.13 244.97,65.49 245.37,64.85 245.76,64.22 246.16,63.59 246.55,62.97 246.95,62.37 247.35,61.78 247.74,61.21 248.14,60.66 248.54,60.13 248.93,59.63 249.33,59.15 249.72,58.69 250.12,58.27 250.52,57.87 250.91,57.5 251.31,57.16 251.7,56.84 252.1,56.56 252.5,56.3 252.89,56.06 253.29,55.85 253.68,55.66 254.08,55.49 254.48,55.34 254.87,55.21 255.27,55.1 255.66,55 256.06,54.92 256.46,54.84 256.85,54.78 257.25,54.73 257.64,54.68 258.04,54.65 258.44,54.61 258.83,54.59 259.23,54.57 259.62,54.55 260.02,54.54 260.42,54.52 260.81,54.51 261.21,54.51 261.6,54.5" stroke-dasharray="none" stroke="rgb(77,175,74)" stroke-width="0.75" opacity="1" stroke-opacity="1" fill="none"/>
          </g>
          <g id="Fig:densplot_01.xyplot.lines.group.10.panel.1.1.1">
            <polyline id="Fig:densplot_01.xyplot.lines.group.10.panel.1.1.1.1" points="59.1,54.51 59.5,54.52 59.9,54.54 60.29,54.55 60.69,54.57 61.09,54.6 61.48,54.63 61.88,54.66 62.28,54.71 62.67,54.77 63.07,54.83 63.47,54.92 63.86,55.01 64.26,55.13 64.65,55.27 65.05,55.44 65.45,55.63 65.84,55.86 66.24,56.13 66.64,56.43 67.03,56.78 67.43,57.19 67.83,57.66 68.22,58.19 68.62,58.78 69.02,59.45 69.41,60.21 69.81,61.05 70.21,61.99 70.6,63.03 71,64.16 71.4,65.4 71.79,66.77 72.19,68.27 72.59,69.88 72.98,71.61 73.38,73.47 73.77,75.45 74.17,77.59 74.57,79.86 74.96,82.26 75.36,84.78 75.76,87.42 76.15,90.19 76.55,93.1 76.95,96.13 77.34,99.26 77.74,102.49 78.14,105.82 78.53,109.24 78.93,112.76 79.33,116.35 79.72,120 80.12,123.71 80.52,127.46 80.91,131.25 81.31,135.08 81.71,138.92 82.1,142.77 82.5,146.62 82.89,150.45 83.29,154.27 83.69,158.06 84.08,161.8 84.48,165.5 84.88,169.15 85.27,172.73 85.67,176.24 86.07,179.66 86.46,183 86.86,186.25 87.26,189.41 87.65,192.47 88.05,195.42 88.45,198.24 88.84,200.95 89.24,203.55 89.64,206.03 90.03,208.39 90.43,210.62 90.82,212.72 91.22,214.69 91.62,216.55 92.01,218.28 92.41,219.89 92.81,221.37 93.2,222.72 93.6,223.96 94,225.09 94.39,226.1 94.79,227 95.19,227.78 95.58,228.45 95.98,229.02 96.38,229.49 96.77,229.87 97.17,230.15 97.57,230.32 97.96,230.4 98.36,230.39 98.76,230.3 99.15,230.12 99.55,229.87 99.94,229.52 100.34,229.1 100.74,228.6 101.13,228.04 101.53,227.41 101.93,226.72 102.32,225.96 102.72,225.14 103.12,224.27 103.51,223.36 103.91,222.4 104.31,221.4 104.7,220.35 105.1,219.28 105.5,218.17 105.89,217.04 106.29,215.89 106.69,214.72 107.08,213.53 107.48,212.32 107.88,211.1 108.27,209.87 108.67,208.62 109.06,207.37 109.46,206.1 109.86,204.82 110.25,203.54 110.65,202.24 111.05,200.94 111.44,199.62 111.84,198.3 112.24,196.96 112.63,195.61 113.03,194.26 113.43,192.9 113.82,191.52 114.22,190.14 114.62,188.76 115.01,187.37 115.41,185.97 115.81,184.58 116.2,183.19 116.6,181.8 117,180.42 117.39,179.05 117.79,177.69 118.18,176.33 118.58,175 118.98,173.68 119.37,172.38 119.77,171.1 120.17,169.84 120.56,168.59 120.96,167.38 121.36,166.18 121.75,165 122.15,163.84 122.55,162.7 122.94,161.58 123.34,160.47 123.74,159.38 124.13,158.3 124.53,157.24 124.93,156.18 125.32,155.14 125.72,154.11 126.11,153.08 126.51,152.06 126.91,151.05 127.3,150.05 127.7,149.05 128.1,148.07 128.49,147.1 128.89,146.15 129.29,145.21 129.68,144.29 130.08,143.39 130.48,142.52 130.87,141.67 131.27,140.85 131.67,140.07 132.06,139.31 132.46,138.6 132.86,137.92 133.25,137.29 133.65,136.69 134.05,136.13 134.44,135.6 134.84,135.12 135.23,134.67 135.63,134.26 136.03,133.87 136.42,133.52 136.82,133.19 137.22,132.88 137.61,132.6 138.01,132.33 138.41,132.07 138.8,131.83 139.2,131.59 139.6,131.35 139.99,131.12 140.39,130.89 140.79,130.66 141.18,130.43 141.58,130.19 141.98,129.95 142.37,129.71 142.77,129.47 143.17,129.22 143.56,128.97 143.96,128.72 144.35,128.48 144.75,128.23 145.15,127.99 145.54,127.75 145.94,127.52 146.34,127.29 146.73,127.08 147.13,126.87 147.53,126.68 147.92,126.49 148.32,126.32 148.72,126.17 149.11,126.03 149.51,125.9 149.91,125.8 150.3,125.71 150.7,125.64 151.1,125.59 151.49,125.56 151.89,125.55 152.29,125.57 152.68,125.61 153.08,125.67 153.47,125.76 153.87,125.88 154.27,126.02 154.66,126.18 155.06,126.37 155.46,126.58 155.85,126.82 156.25,127.09 156.65,127.37 157.04,127.68 157.44,128.01 157.84,128.36 158.23,128.73 158.63,129.12 159.03,129.52 159.42,129.94 159.82,130.37 160.22,130.81 160.61,131.26 161.01,131.72 161.4,132.19 161.8,132.66 162.2,133.13 162.59,133.61 162.99,134.1 163.39,134.58 163.78,135.06 164.18,135.54 164.58,136.01 164.97,136.49 165.37,136.96 165.77,137.43 166.16,137.89 166.56,138.35 166.96,138.8 167.35,139.26 167.75,139.71 168.15,140.15 168.54,140.6 168.94,141.04 169.34,141.48 169.73,141.92 170.13,142.36 170.52,142.81 170.92,143.25 171.32,143.69 171.71,144.14 172.11,144.59 172.51,145.03 172.9,145.48 173.3,145.93 173.7,146.38 174.09,146.83 174.49,147.27 174.89,147.71 175.28,148.14 175.68,148.57 176.08,148.99 176.47,149.4 176.87,149.79 177.27,150.18 177.66,150.54 178.06,150.89 178.46,151.23 178.85,151.55 179.25,151.84 179.64,152.12 180.04,152.37 180.44,152.61 180.83,152.83 181.23,153.02 181.63,153.2 182.02,153.36 182.42,153.49 182.82,153.62 183.21,153.72 183.61,153.81 184.01,153.88 184.4,153.94 184.8,153.99 185.2,154.02 185.59,154.04 185.99,154.05 186.39,154.04 186.78,154.03 187.18,154 187.58,153.96 187.97,153.91 188.37,153.84 188.76,153.77 189.16,153.67 189.56,153.56 189.95,153.44 190.35,153.3 190.75,153.15 191.14,152.97 191.54,152.78 191.94,152.56 192.33,152.33 192.73,152.07 193.13,151.8 193.52,151.5 193.92,151.18 194.32,150.84 194.71,150.48 195.11,150.1 195.51,149.7 195.9,149.28 196.3,148.83 196.69,148.37 197.09,147.89 197.49,147.39 197.88,146.88 198.28,146.34 198.68,145.79 199.07,145.22 199.47,144.64 199.87,144.05 200.26,143.44 200.66,142.81 201.06,142.17 201.45,141.52 201.85,140.85 202.25,140.17 202.64,139.48 203.04,138.78 203.44,138.06 203.83,137.33 204.23,136.58 204.63,135.83 205.02,135.06 205.42,134.28 205.81,133.49 206.21,132.68 206.61,131.87 207,131.05 207.4,130.21 207.8,129.37 208.19,128.52 208.59,127.67 208.99,126.81 209.38,125.94 209.78,125.07 210.18,124.2 210.57,123.33 210.97,122.46 211.37,121.59 211.76,120.73 212.16,119.86 212.56,119.01 212.95,118.15 213.35,117.31 213.75,116.47 214.14,115.63 214.54,114.81 214.93,113.99 215.33,113.18 215.73,112.38 216.12,111.58 216.52,110.79 216.92,110.01 217.31,109.24 217.71,108.46 218.11,107.7 218.5,106.93 218.9,106.17 219.3,105.42 219.69,104.67 220.09,103.92 220.49,103.17 220.88,102.42 221.28,101.68 221.68,100.94 222.07,100.2 222.47,99.46 222.86,98.73 223.26,98 223.66,97.28 224.05,96.56 224.45,95.85 224.85,95.14 225.24,94.44 225.64,93.74 226.04,93.05 226.43,92.37 226.83,91.7 227.23,91.04 227.62,90.39 228.02,89.74 228.42,89.1 228.81,88.48 229.21,87.86 229.61,87.25 230,86.65 230.4,86.06 230.8,85.47 231.19,84.9 231.59,84.33 231.98,83.77 232.38,83.21 232.78,82.66 233.17,82.12 233.57,81.58 233.97,81.04 234.36,80.51 234.76,79.99 235.16,79.46 235.55,78.94 235.95,78.42 236.35,77.9 236.74,77.38 237.14,76.86 237.54,76.34 237.93,75.81 238.33,75.28 238.73,74.75 239.12,74.21 239.52,73.67 239.92,73.12 240.31,72.56 240.71,71.99 241.1,71.41 241.5,70.83 241.9,70.23 242.29,69.63 242.69,69.02 243.09,68.4 243.48,67.78 243.88,67.15 244.28,66.52 244.67,65.89 245.07,65.26 245.47,64.63 245.86,64.01 246.26,63.4 246.66,62.79 247.05,62.2 247.45,61.63 247.85,61.07 248.24,60.54 248.64,60.02 249.04,59.53 249.43,59.06 249.83,58.62 250.22,58.21 250.62,57.82 251.02,57.45 251.41,57.12 251.81,56.81 252.21,56.53 252.6,56.28 253,56.05 253.4,55.84 253.79,55.65 254.19,55.48 254.59,55.34 254.98,55.21 255.38,55.1 255.78,55 256.17,54.92 256.57,54.84 256.97,54.78 257.36,54.73 257.76,54.68 258.15,54.65 258.55,54.61 258.95,54.59 259.34,54.57 259.74,54.55 260.14,54.54 260.53,54.52 260.93,54.51 261.33,54.51 261.72,54.5" stroke-dasharray="none" stroke="rgb(77,175,74)" stroke-width="0.75" opacity="1" stroke-opacity="1" fill="none"/>
          </g>
          <g id="Fig:densplot_01.xyplot.lines.group.11.panel.1.1.1">
            <polyline id="Fig:densplot_01.xyplot.lines.group.11.panel.1.1.1.1" points="59.03,54.52 59.43,54.53 59.83,54.54 60.22,54.56 60.62,54.59 61.02,54.61 61.42,54.65 61.81,54.69 62.21,54.75 62.61,54.81 63,54.89 63.4,54.99 63.8,55.1 64.19,55.24 64.59,55.4 64.99,55.59 65.38,55.82 65.78,56.08 66.18,56.39 66.57,56.74 66.97,57.15 67.37,57.62 67.76,58.16 68.16,58.77 68.56,59.46 68.95,60.22 69.35,61.08 69.75,62.05 70.14,63.13 70.54,64.3 70.94,65.59 71.33,67 71.73,68.53 72.13,70.21 72.53,72.01 72.92,73.94 73.32,76 73.72,78.19 74.11,80.52 74.51,83 74.91,85.6 75.3,88.32 75.7,91.16 76.1,94.12 76.49,97.2 76.89,100.38 77.29,103.67 77.68,107.04 78.08,110.48 78.48,114 78.87,117.6 79.27,121.25 79.67,124.95 80.06,128.68 80.46,132.44 80.86,136.23 81.25,140.02 81.65,143.82 82.05,147.61 82.44,151.39 82.84,155.15 83.24,158.88 83.64,162.57 84.03,166.2 84.43,169.79 84.83,173.32 85.22,176.78 85.62,180.18 86.02,183.47 86.41,186.69 86.81,189.81 87.21,192.84 87.6,195.76 88,198.59 88.4,201.27 88.79,203.85 89.19,206.31 89.59,208.65 89.98,210.87 90.38,212.96 90.78,214.91 91.17,216.73 91.57,218.42 91.97,220 92.36,221.45 92.76,222.77 93.16,223.95 93.55,225.02 93.95,225.97 94.35,226.82 94.74,227.55 95.14,228.18 95.54,228.68 95.94,229.09 96.33,229.41 96.73,229.64 97.13,229.78 97.52,229.82 97.92,229.78 98.32,229.66 98.71,229.46 99.11,229.2 99.51,228.86 99.9,228.44 100.3,227.96 100.7,227.41 101.09,226.79 101.49,226.12 101.89,225.39 102.28,224.59 102.68,223.73 103.08,222.82 103.47,221.86 103.87,220.85 104.27,219.8 104.66,218.69 105.06,217.55 105.46,216.36 105.85,215.15 106.25,213.9 106.65,212.63 107.05,211.32 107.44,210 107.84,208.66 108.24,207.32 108.63,205.96 109.03,204.59 109.43,203.22 109.82,201.85 110.22,200.48 110.62,199.12 111.01,197.75 111.41,196.4 111.81,195.04 112.2,193.7 112.6,192.36 113,191.03 113.39,189.71 113.79,188.39 114.19,187.08 114.58,185.77 114.98,184.47 115.38,183.17 115.77,181.88 116.17,180.59 116.57,179.3 116.96,178.02 117.36,176.75 117.76,175.48 118.16,174.22 118.55,172.96 118.95,171.72 119.35,170.48 119.74,169.26 120.14,168.05 120.54,166.85 120.93,165.67 121.33,164.51 121.73,163.37 122.12,162.25 122.52,161.15 122.92,160.08 123.31,159.02 123.71,157.99 124.11,156.99 124.5,156.01 124.9,155.04 125.3,154.11 125.69,153.19 126.09,152.3 126.49,151.43 126.88,150.57 127.28,149.74 127.68,148.92 128.07,148.12 128.47,147.34 128.87,146.57 129.27,145.81 129.66,145.07 130.06,144.34 130.46,143.63 130.85,142.93 131.25,142.24 131.65,141.57 132.04,140.91 132.44,140.27 132.84,139.64 133.23,139.03 133.63,138.44 134.03,137.87 134.42,137.31 134.82,136.77 135.22,136.26 135.61,135.76 136.01,135.29 136.41,134.83 136.8,134.39 137.2,133.97 137.6,133.58 137.99,133.2 138.39,132.84 138.79,132.49 139.18,132.16 139.58,131.84 139.98,131.54 140.38,131.26 140.77,130.98 141.17,130.71 141.57,130.45 141.96,130.2 142.36,129.96 142.76,129.73 143.15,129.5 143.55,129.28 143.95,129.06 144.34,128.85 144.74,128.64 145.14,128.44 145.53,128.25 145.93,128.06 146.33,127.88 146.72,127.7 147.12,127.53 147.52,127.37 147.91,127.22 148.31,127.07 148.71,126.94 149.1,126.81 149.5,126.7 149.9,126.6 150.29,126.51 150.69,126.44 151.09,126.37 151.49,126.33 151.88,126.31 152.28,126.3 152.68,126.3 153.07,126.33 153.47,126.38 153.87,126.45 154.26,126.55 154.66,126.66 155.06,126.8 155.45,126.96 155.85,127.15 156.25,127.36 156.64,127.59 157.04,127.85 157.44,128.12 157.83,128.42 158.23,128.74 158.63,129.08 159.02,129.44 159.42,129.81 159.82,130.19 160.21,130.59 160.61,131 161.01,131.43 161.4,131.86 161.8,132.3 162.2,132.74 162.6,133.2 162.99,133.65 163.39,134.11 163.79,134.58 164.18,135.04 164.58,135.51 164.98,135.99 165.37,136.46 165.77,136.94 166.17,137.43 166.56,137.92 166.96,138.41 167.36,138.9 167.75,139.41 168.15,139.91 168.55,140.43 168.94,140.94 169.34,141.46 169.74,141.98 170.13,142.51 170.53,143.03 170.93,143.56 171.32,144.08 171.72,144.6 172.12,145.12 172.51,145.62 172.91,146.12 173.31,146.6 173.71,147.07 174.1,147.53 174.5,147.97 174.9,148.39 175.29,148.79 175.69,149.17 176.09,149.53 176.48,149.87 176.88,150.18 177.28,150.47 177.67,150.74 178.07,150.98 178.47,151.21 178.86,151.41 179.26,151.59 179.66,151.75 180.05,151.89 180.45,152.01 180.85,152.11 181.24,152.2 181.64,152.27 182.04,152.32 182.43,152.36 182.83,152.39 183.23,152.4 183.62,152.4 184.02,152.39 184.42,152.37 184.82,152.34 185.21,152.29 185.61,152.24 186.01,152.18 186.4,152.11 186.8,152.04 187.2,151.95 187.59,151.86 187.99,151.76 188.39,151.65 188.78,151.53 189.18,151.41 189.58,151.28 189.97,151.14 190.37,150.99 190.77,150.83 191.16,150.66 191.56,150.48 191.96,150.29 192.35,150.09 192.75,149.87 193.15,149.65 193.54,149.4 193.94,149.13 194.34,148.86 194.73,148.56 195.13,148.24 195.53,147.91 195.92,147.55 196.32,147.17 196.72,146.76 197.12,146.34 197.51,145.89 197.91,145.42 198.31,144.93 198.7,144.4 199.1,143.86 199.5,143.3 199.89,142.71 200.29,142.09 200.69,141.46 201.08,140.8 201.48,140.12 201.88,139.43 202.27,138.72 202.67,137.99 203.07,137.24 203.46,136.48 203.86,135.71 204.26,134.93 204.65,134.14 205.05,133.34 205.45,132.54 205.84,131.73 206.24,130.92 206.64,130.11 207.03,129.3 207.43,128.49 207.83,127.68 208.23,126.88 208.62,126.08 209.02,125.29 209.42,124.5 209.81,123.73 210.21,122.95 210.61,122.19 211,121.44 211.4,120.69 211.8,119.94 212.19,119.21 212.59,118.48 212.99,117.75 213.38,117.03 213.78,116.31 214.18,115.6 214.57,114.88 214.97,114.16 215.37,113.44 215.76,112.72 216.16,111.99 216.56,111.26 216.95,110.52 217.35,109.77 217.75,109.01 218.14,108.25 218.54,107.48 218.94,106.7 219.34,105.92 219.73,105.12 220.13,104.32 220.53,103.52 220.92,102.7 221.32,101.89 221.72,101.07 222.11,100.26 222.51,99.44 222.91,98.63 223.3,97.82 223.7,97.02 224.1,96.22 224.49,95.44 224.89,94.66 225.29,93.9 225.68,93.15 226.08,92.41 226.48,91.69 226.87,90.99 227.27,90.3 227.67,89.62 228.06,88.96 228.46,88.32 228.86,87.7 229.25,87.09 229.65,86.49 230.05,85.9 230.45,85.33 230.84,84.77 231.24,84.22 231.64,83.68 232.03,83.14 232.43,82.62 232.83,82.1 233.22,81.59 233.62,81.08 234.02,80.57 234.41,80.07 234.81,79.57 235.21,79.07 235.6,78.58 236,78.08 236.4,77.58 236.79,77.09 237.19,76.59 237.59,76.08 237.98,75.58 238.38,75.06 238.78,74.55 239.17,74.03 239.57,73.5 239.97,72.96 240.36,72.42 240.76,71.86 241.16,71.3 241.56,70.73 241.95,70.15 242.35,69.56 242.75,68.96 243.14,68.36 243.54,67.74 243.94,67.13 244.33,66.51 244.73,65.88 245.13,65.26 245.52,64.64 245.92,64.03 246.32,63.42 246.71,62.82 247.11,62.24 247.51,61.67 247.9,61.12 248.3,60.58 248.7,60.07 249.09,59.57 249.49,59.1 249.89,58.66 250.28,58.25 250.68,57.86 251.08,57.49 251.47,57.16 251.87,56.85 252.27,56.57 252.67,56.31 253.06,56.07 253.46,55.86 253.86,55.67 254.25,55.51 254.65,55.36 255.05,55.23 255.44,55.11 255.84,55.01 256.24,54.93 256.63,54.85 257.03,54.79 257.43,54.74 257.82,54.69 258.22,54.65 258.62,54.62 259.01,54.59 259.41,54.57 259.81,54.55 260.2,54.54 260.6,54.53 261,54.52 261.39,54.51 261.79,54.5" stroke-dasharray="none" stroke="rgb(77,175,74)" stroke-width="0.75" opacity="1" stroke-opacity="1" fill="none"/>
          </g>
        </g>
        <g id="Fig:densplot_01.panel.1.1.off.vp.2">
          <g id="Fig:densplot_01.border.panel.1.1.1">
            <rect id="Fig:densplot_01.border.panel.1.1.1.1" x="44.8" y="42.19" width="231.2" height="200.52" transform="" stroke="rgb(0,0,0)" stroke-dasharray="none" stroke-width="0.75" opacity="1" fill="none" stroke-opacity="1" fill-opacity="0"/>
          </g>
        </g>
        <g id="Fig:densplot_01..1"/>
      </g>
    </g>
  </g>
</svg>