<?xml version="1.0" encoding="UTF-8"?>
<svg xmlns="http://www.w3.org/2000/svg" xmlns:xlink="http://www.w3.org/1999/xlink" width="288px" height="295.2px" viewBox="0 0 288 295.2" version="1.1" id="Fig:dens">
  <metadata xmlns:gridsvg="http://www.stat.auckland.ac.nz/~paul/R/gridSVG/">
    <gridsvg:generator name="gridSVG" version="1.7-2" time="2022-11-08 10:23:33"/>
    <gridsvg:argument name="name" value="/media/mferrer/Datos/Mireia/Scripts/Paquets_mireia/maUEB/vignettes/results/QCDir.Raw/dens.svg"/>
    <gridsvg:argument name="exportCoords" value="none"/>
    <gridsvg:argument name="exportMappings" value="none"/>
    <gridsvg:argument name="exportJS" value="none"/>
    <gridsvg:argument name="res" value="72"/>
    <gridsvg:argument name="prefix" value="Fig:dens"/>
    <gridsvg:argument name="addClasses" value="FALSE"/>
    <gridsvg:argument name="indent" value="TRUE"/>
    <gridsvg:argument name="htmlWrapper" value="FALSE"/>
    <gridsvg:argument name="usePaths" value="none"/>
    <gridsvg:argument name="uniqueNames" value="TRUE"/>
    <gridsvg:separator name="id.sep" value="."/>
    <gridsvg:separator name="gPath.sep" value="::"/>
    <gridsvg:separator name="vpPath.sep" value="::"/>
  </metadata>
  <g transform="translate(0, 295.2) scale(1, -1)">
    <g id="Fig:densgridSVG" fill="none" stroke="rgb(0,0,0)" stroke-dasharray="none" stroke-width="0.75" font-size="12" font-family="Helvetica, Arial, FreeSans, Liberation Sans, Nimbus Sans L, sans-serif" opacity="1" stroke-linecap="round" stroke-linejoin="round" stroke-miterlimit="10" stroke-opacity="1" fill-opacity="0" font-weight="normal" font-style="normal">
      <g id="Fig:densplot_01.background.1">
        <rect id="Fig:densplot_01.background.1.1" x="0" y="0" width="288" height="295.2" transform="" fill="none" stroke="none" stroke-opacity="0" fill-opacity="0"/>
      </g>
      <g id="Fig:densplot_01.toplevel.vp.1" font-size="12">
        <g id="Fig:densplot_01.main.vp.1">
          <g id="Fig:densGRID.VP.127.1">
            <g id="Fig:dens.key.frame.1">
              <g id="Fig:densGRID.VP.128.1">
                <g id="Fig:densGRID.cellGrob.386.1">
                  <g id="Fig:dens.key.background.1">
                    <rect id="Fig:dens.key.background.1.1" x="100.64" y="254.71" width="86.71" height="34.49" transform="" fill="none" opacity="1" stroke="none" stroke-opacity="0" fill-opacity="0"/>
                  </g>
                </g>
              </g>
              <g id="Fig:densGRID.VP.129.1">
                <g id="Fig:densGRID.cellGrob.387.1">
                  <g id="Fig:dens.key.rect.1.1.1">
                    <rect id="Fig:dens.key.rect.1.1.1.1" x="107.32" y="277.7" width="33.36" height="11.5" transform="" opacity="1" fill="rgb(228,26,28)" stroke="rgb(0,0,0)" stroke-opacity="1" fill-opacity="1"/>
                  </g>
                </g>
              </g>
              <g id="Fig:densGRID.VP.130.1">
                <g id="Fig:densGRID.cellGrob.388.1">
                  <g id="Fig:dens.key.rect.1.2.1">
                    <rect id="Fig:dens.key.rect.1.2.1.1" x="107.32" y="266.21" width="33.36" height="11.5" transform="" opacity="1" fill="rgb(55,126,184)" stroke="rgb(0,0,0)" stroke-opacity="1" fill-opacity="1"/>
                  </g>
                </g>
              </g>
              <g id="Fig:densGRID.VP.131.1">
                <g id="Fig:densGRID.cellGrob.389.1">
                  <g id="Fig:dens.key.rect.1.3.1">
                    <rect id="Fig:dens.key.rect.1.3.1.1" x="107.32" y="254.71" width="33.36" height="11.5" transform="" opacity="1" fill="rgb(77,175,74)" stroke="rgb(0,0,0)" stroke-opacity="1" fill-opacity="1"/>
                  </g>
                </g>
              </g>
              <g id="Fig:densGRID.VP.132.1">
                <g id="Fig:densGRID.cellGrob.390.1">
                  <g id="Fig:dens.key.text.2.1.1">
                    <g id="Fig:dens.key.text.2.1.1.1" transform="translate(154.02, 283.45)" stroke-width="0.1">
                      <g id="Fig:dens.key.text.2.1.1.1.scale" transform="scale(1, -1)">
                        <text x="0" y="0" id="Fig:dens.key.text.2.1.1.1.text" text-anchor="start" stroke="rgb(0,0,0)" opacity="1" fill="rgb(0,0,0)" stroke-opacity="1" fill-opacity="1" font-size="12" font-weight="normal" font-style="normal">
                          <tspan id="Fig:dens.key.text.2.1.1.1.tspan.1" dy="4.31" x="0">CTL</tspan>
                        </text>
                      </g>
                    </g>
                  </g>
                </g>
              </g>
              <g id="Fig:densGRID.VP.133.1">
                <g id="Fig:densGRID.cellGrob.391.1">
                  <g id="Fig:dens.key.text.2.2.1">
                    <g id="Fig:dens.key.text.2.2.1.1" transform="translate(154.02, 271.96)" stroke-width="0.1">
                      <g id="Fig:dens.key.text.2.2.1.1.scale" transform="scale(1, -1)">
                        <text x="0" y="0" id="Fig:dens.key.text.2.2.1.1.text" text-anchor="start" stroke="rgb(0,0,0)" opacity="1" fill="rgb(0,0,0)" stroke-opacity="1" fill-opacity="1" font-size="12" font-weight="normal" font-style="normal">
                          <tspan id="Fig:dens.key.text.2.2.1.1.tspan.1" dy="4.31" x="0">PD1</tspan>
                        </text>
                      </g>
                    </g>
                  </g>
                </g>
              </g>
              <g id="Fig:densGRID.VP.134.1">
                <g id="Fig:densGRID.cellGrob.392.1">
                  <g id="Fig:dens.key.text.2.3.1">
                    <g id="Fig:dens.key.text.2.3.1.1" transform="translate(154.02, 260.46)" stroke-width="0.1">
                      <g id="Fig:dens.key.text.2.3.1.1.scale" transform="scale(1, -1)">
                        <text x="0" y="0" id="Fig:dens.key.text.2.3.1.1.text" text-anchor="start" stroke="rgb(0,0,0)" opacity="1" fill="rgb(0,0,0)" stroke-opacity="1" fill-opacity="1" font-size="12" font-weight="normal" font-style="normal">
                          <tspan id="Fig:dens.key.text.2.3.1.1.tspan.1" dy="4.31" x="0">CMP</tspan>
                        </text>
                      </g>
                    </g>
                  </g>
                </g>
              </g>
            </g>
          </g>
        </g>
        <g id="Fig:densplot_01.ylab.vp.1">
          <g id="Fig:densplot_01.ylab.1">
            <g id="Fig:densplot_01.ylab.1.1" transform="translate(10.31, 142.45)" stroke-width="0.1">
              <g id="Fig:densplot_01.ylab.1.1.scale" transform="scale(1, -1)">
                <text x="0" y="0" id="Fig:densplot_01.ylab.1.1.text" transform="rotate(-90)" text-anchor="middle" opacity="1" stroke="rgb(0,0,0)" fill="rgb(0,0,0)" stroke-opacity="1" fill-opacity="1" font-size="12" font-weight="normal" font-style="normal">
                  <tspan id="Fig:densplot_01.ylab.1.1.tspan.1" dy="4.31" x="0">Density</tspan>
                </text>
              </g>
            </g>
          </g>
        </g>
        <g id="Fig:densplot_01.figure.vp.1"/>
        <defs>
          <clipPath id="Fig:densplot_01.panel.1.1.vp.1.clipPath">
            <rect x="44.8" y="42.19" width="231.2" height="200.52" fill="none" stroke="none"/>
          </clipPath>
        </defs>
        <g id="Fig:densplot_01.panel.1.1.vp.1" clip-path="url(#Fig:densplot_01.panel.1.1.vp.1.clipPath)"/>
        <g id="Fig:densplot_01.strip.1.1.off.vp.1"/>
        <g id="Fig:densplot_01.strip.left.1.1.off.vp.1">
          <g id="Fig:densplot_01.ticks.left.panel.1.1.1">
            <polyline id="Fig:densplot_01.ticks.left.panel.1.1.1.1" points="44.8,54.5 39.13,54.5" stroke="rgb(0,0,0)" opacity="1" stroke-dasharray="none" stroke-width="0.75" stroke-opacity="1" fill="none"/>
            <polyline id="Fig:densplot_01.ticks.left.panel.1.1.1.2" points="44.8,89.35 39.13,89.35" stroke="rgb(0,0,0)" opacity="1" stroke-dasharray="none" stroke-width="0.75" stroke-opacity="1" fill="none"/>
            <polyline id="Fig:densplot_01.ticks.left.panel.1.1.1.3" points="44.8,124.2 39.13,124.2" stroke="rgb(0,0,0)" opacity="1" stroke-dasharray="none" stroke-width="0.75" stroke-opacity="1" fill="none"/>
            <polyline id="Fig:densplot_01.ticks.left.panel.1.1.1.4" points="44.8,159.04 39.13,159.04" stroke="rgb(0,0,0)" opacity="1" stroke-dasharray="none" stroke-width="0.75" stroke-opacity="1" fill="none"/>
            <polyline id="Fig:densplot_01.ticks.left.panel.1.1.1.5" points="44.8,193.89 39.13,193.89" stroke="rgb(0,0,0)" opacity="1" stroke-dasharray="none" stroke-width="0.75" stroke-opacity="1" fill="none"/>
            <polyline id="Fig:densplot_01.ticks.left.panel.1.1.1.6" points="44.8,228.74 39.13,228.74" stroke="rgb(0,0,0)" opacity="1" stroke-dasharray="none" stroke-width="0.75" stroke-opacity="1" fill="none"/>
          </g>
          <g id="Fig:densplot_01.ticklabels.left.panel.1.1.1">
            <g id="Fig:densplot_01.ticklabels.left.panel.1.1.1.1" transform="translate(33.47, 54.5)" stroke-width="0.1">
              <g id="Fig:densplot_01.ticklabels.left.panel.1.1.1.1.scale" transform="scale(1, -1)">
                <text x="0" y="0" id="Fig:densplot_01.ticklabels.left.panel.1.1.1.1.text" transform="rotate(-90)" text-anchor="middle" stroke="rgb(0,0,0)" opacity="1" fill="rgb(0,0,0)" stroke-opacity="1" fill-opacity="1" font-size="9.6" font-weight="normal" font-style="normal">
                  <tspan id="Fig:densplot_01.ticklabels.left.panel.1.1.1.1.tspan.1" dy="0" x="0">0.000</tspan>
                </text>
              </g>
            </g>
            <g id="Fig:densplot_01.ticklabels.left.panel.1.1.1.2" transform="translate(33.47, 89.35)" stroke-width="0.1">
              <g id="Fig:densplot_01.ticklabels.left.panel.1.1.1.2.scale" transform="scale(1, -1)">
                <text x="0" y="0" id="Fig:densplot_01.ticklabels.left.panel.1.1.1.2.text" transform="rotate(-90)" text-anchor="middle" stroke="rgb(0,0,0)" opacity="1" fill="rgb(0,0,0)" stroke-opacity="1" fill-opacity="1" font-size="9.6" font-weight="normal" font-style="normal">
                  <tspan id="Fig:densplot_01.ticklabels.left.panel.1.1.1.2.tspan.1" dy="0" x="0">0.005</tspan>
                </text>
              </g>
            </g>
            <g id="Fig:densplot_01.ticklabels.left.panel.1.1.1.3" transform="translate(33.47, 124.2)" stroke-width="0.1">
              <g id="Fig:densplot_01.ticklabels.left.panel.1.1.1.3.scale" transform="scale(1, -1)">
                <text x="0" y="0" id="Fig:densplot_01.ticklabels.left.panel.1.1.1.3.text" transform="rotate(-90)" text-anchor="middle" stroke="rgb(0,0,0)" opacity="1" fill="rgb(0,0,0)" stroke-opacity="1" fill-opacity="1" font-size="9.6" font-weight="normal" font-style="normal">
                  <tspan id="Fig:densplot_01.ticklabels.left.panel.1.1.1.3.tspan.1" dy="0" x="0">0.010</tspan>
                </text>
              </g>
            </g>
            <g id="Fig:densplot_01.ticklabels.left.panel.1.1.1.4" transform="translate(33.47, 159.04)" stroke-width="0.1">
              <g id="Fig:densplot_01.ticklabels.left.panel.1.1.1.4.scale" transform="scale(1, -1)">
                <text x="0" y="0" id="Fig:densplot_01.ticklabels.left.panel.1.1.1.4.text" transform="rotate(-90)" text-anchor="middle" stroke="rgb(0,0,0)" opacity="1" fill="rgb(0,0,0)" stroke-opacity="1" fill-opacity="1" font-size="9.6" font-weight="normal" font-style="normal">
                  <tspan id="Fig:densplot_01.ticklabels.left.panel.1.1.1.4.tspan.1" dy="0" x="0">0.015</tspan>
                </text>
              </g>
            </g>
            <g id="Fig:densplot_01.ticklabels.left.panel.1.1.1.5" transform="translate(33.47, 193.89)" stroke-width="0.1">
              <g id="Fig:densplot_01.ticklabels.left.panel.1.1.1.5.scale" transform="scale(1, -1)">
                <text x="0" y="0" id="Fig:densplot_01.ticklabels.left.panel.1.1.1.5.text" transform="rotate(-90)" text-anchor="middle" stroke="rgb(0,0,0)" opacity="1" fill="rgb(0,0,0)" stroke-opacity="1" fill-opacity="1" font-size="9.6" font-weight="normal" font-style="normal">
                  <tspan id="Fig:densplot_01.ticklabels.left.panel.1.1.1.5.tspan.1" dy="0" x="0">0.020</tspan>
                </text>
              </g>
            </g>
            <g id="Fig:densplot_01.ticklabels.left.panel.1.1.1.6" transform="translate(33.47, 228.74)" stroke-width="0.1">
              <g id="Fig:densplot_01.ticklabels.left.panel.1.1.1.6.scale" transform="scale(1, -1)">
                <text x="0" y="0" id="Fig:densplot_01.ticklabels.left.panel.1.1.1.6.text" transform="rotate(-90)" text-anchor="middle" stroke="rgb(0,0,0)" opacity="1" fill="rgb(0,0,0)" stroke-opacity="1" fill-opacity="1" font-size="9.6" font-weight="normal" font-style="normal">
                  <tspan id="Fig:densplot_01.ticklabels.left.panel.1.1.1.6.tspan.1" dy="0" x="0">0.025</tspan>
                </text>
              </g>
            </g>
          </g>
        </g>
        <g id="Fig:densplot_01.panel.1.1.off.vp.1">
          <g id="Fig:densplot_01.ticks.bottom.panel.1.1.1">
            <polyline id="Fig:densplot_01.ticks.bottom.panel.1.1.1.1" points="59.81,42.19 59.81,36.52" stroke="rgb(0,0,0)" opacity="1" stroke-dasharray="none" stroke-width="0.75" stroke-opacity="1" fill="none"/>
            <polyline id="Fig:densplot_01.ticks.bottom.panel.1.1.1.2" points="100.06,42.19 100.06,36.52" stroke="rgb(0,0,0)" opacity="1" stroke-dasharray="none" stroke-width="0.75" stroke-opacity="1" fill="none"/>
            <polyline id="Fig:densplot_01.ticks.bottom.panel.1.1.1.3" points="140.32,42.19 140.32,36.52" stroke="rgb(0,0,0)" opacity="1" stroke-dasharray="none" stroke-width="0.75" stroke-opacity="1" fill="none"/>
            <polyline id="Fig:densplot_01.ticks.bottom.panel.1.1.1.4" points="180.57,42.19 180.57,36.52" stroke="rgb(0,0,0)" opacity="1" stroke-dasharray="none" stroke-width="0.75" stroke-opacity="1" fill="none"/>
            <polyline id="Fig:densplot_01.ticks.bottom.panel.1.1.1.5" points="220.82,42.19 220.82,36.52" stroke="rgb(0,0,0)" opacity="1" stroke-dasharray="none" stroke-width="0.75" stroke-opacity="1" fill="none"/>
            <polyline id="Fig:densplot_01.ticks.bottom.panel.1.1.1.6" points="261.07,42.19 261.07,36.52" stroke="rgb(0,0,0)" opacity="1" stroke-dasharray="none" stroke-width="0.75" stroke-opacity="1" fill="none"/>
          </g>
          <g id="Fig:densplot_01.ticklabels.bottom.panel.1.1.1">
            <g id="Fig:densplot_01.ticklabels.bottom.panel.1.1.1.1" transform="translate(59.81, 30.85)" stroke-width="0.1">
              <g id="Fig:densplot_01.ticklabels.bottom.panel.1.1.1.1.scale" transform="scale(1, -1)">
                <text x="0" y="0" id="Fig:densplot_01.ticklabels.bottom.panel.1.1.1.1.text" text-anchor="middle" stroke="rgb(0,0,0)" opacity="1" fill="rgb(0,0,0)" stroke-opacity="1" fill-opacity="1" font-size="9.6" font-weight="normal" font-style="normal">
                  <tspan id="Fig:densplot_01.ticklabels.bottom.panel.1.1.1.1.tspan.1" dy="7.18" x="0">0</tspan>
                </text>
              </g>
            </g>
            <g id="Fig:densplot_01.ticklabels.bottom.panel.1.1.1.2" transform="translate(100.06, 30.85)" stroke-width="0.1">
              <g id="Fig:densplot_01.ticklabels.bottom.panel.1.1.1.2.scale" transform="scale(1, -1)">
                <text x="0" y="0" id="Fig:densplot_01.ticklabels.bottom.panel.1.1.1.2.text" text-anchor="middle" stroke="rgb(0,0,0)" opacity="1" fill="rgb(0,0,0)" stroke-opacity="1" fill-opacity="1" font-size="9.6" font-weight="normal" font-style="normal">
                  <tspan id="Fig:densplot_01.ticklabels.bottom.panel.1.1.1.2.tspan.1" dy="7.18" x="0">500</tspan>
                </text>
              </g>
            </g>
            <g id="Fig:densplot_01.ticklabels.bottom.panel.1.1.1.3" transform="translate(140.32, 30.85)" stroke-width="0.1">
              <g id="Fig:densplot_01.ticklabels.bottom.panel.1.1.1.3.scale" transform="scale(1, -1)">
                <text x="0" y="0" id="Fig:densplot_01.ticklabels.bottom.panel.1.1.1.3.text" text-anchor="middle" stroke="rgb(0,0,0)" opacity="1" fill="rgb(0,0,0)" stroke-opacity="1" fill-opacity="1" font-size="9.6" font-weight="normal" font-style="normal">
                  <tspan id="Fig:densplot_01.ticklabels.bottom.panel.1.1.1.3.tspan.1" dy="7.18" x="0">1000</tspan>
                </text>
              </g>
            </g>
            <g id="Fig:densplot_01.ticklabels.bottom.panel.1.1.1.4" transform="translate(180.57, 30.85)" stroke-width="0.1">
              <g id="Fig:densplot_01.ticklabels.bottom.panel.1.1.1.4.scale" transform="scale(1, -1)">
                <text x="0" y="0" id="Fig:densplot_01.ticklabels.bottom.panel.1.1.1.4.text" text-anchor="middle" stroke="rgb(0,0,0)" opacity="1" fill="rgb(0,0,0)" stroke-opacity="1" fill-opacity="1" font-size="9.6" font-weight="normal" font-style="normal">
                  <tspan id="Fig:densplot_01.ticklabels.bottom.panel.1.1.1.4.tspan.1" dy="7.18" x="0">1500</tspan>
                </text>
              </g>
            </g>
            <g id="Fig:densplot_01.ticklabels.bottom.panel.1.1.1.5" transform="translate(220.82, 30.85)" stroke-width="0.1">
              <g id="Fig:densplot_01.ticklabels.bottom.panel.1.1.1.5.scale" transform="scale(1, -1)">
                <text x="0" y="0" id="Fig:densplot_01.ticklabels.bottom.panel.1.1.1.5.text" text-anchor="middle" stroke="rgb(0,0,0)" opacity="1" fill="rgb(0,0,0)" stroke-opacity="1" fill-opacity="1" font-size="9.6" font-weight="normal" font-style="normal">
                  <tspan id="Fig:densplot_01.ticklabels.bottom.panel.1.1.1.5.tspan.1" dy="7.18" x="0">2000</tspan>
                </text>
              </g>
            </g>
            <g id="Fig:densplot_01.ticklabels.bottom.panel.1.1.1.6" transform="translate(261.07, 30.85)" stroke-width="0.1">
              <g id="Fig:densplot_01.ticklabels.bottom.panel.1.1.1.6.scale" transform="scale(1, -1)">
                <text x="0" y="0" id="Fig:densplot_01.ticklabels.bottom.panel.1.1.1.6.text" text-anchor="middle" stroke="rgb(0,0,0)" opacity="1" fill="rgb(0,0,0)" stroke-opacity="1" fill-opacity="1" font-size="9.6" font-weight="normal" font-style="normal">
                  <tspan id="Fig:densplot_01.ticklabels.bottom.panel.1.1.1.6.tspan.1" dy="7.18" x="0">2500</tspan>
                </text>
              </g>
            </g>
          </g>
        </g>
        <defs>
          <clipPath id="Fig:densplot_01.panel.1.1.vp.2.clipPath">
            <rect x="44.8" y="42.19" width="231.2" height="200.52" fill="none" stroke="none"/>
          </clipPath>
        </defs>
        <g id="Fig:densplot_01.panel.1.1.vp.2" clip-path="url(#Fig:densplot_01.panel.1.1.vp.2.clipPath)">
          <g id="Fig:densplot_01.xyplot.lines.group.1.panel.1.1.1">
            <polyline id="Fig:densplot_01.xyplot.lines.group.1.panel.1.1.1.1" points="59.59,54.55 59.99,54.83 60.38,56.21 60.78,61.1 61.17,73.81 61.57,97.84 61.96,129.69 62.36,156.72 62.75,166.14 63.15,156.74 63.54,138.04 63.94,119.91 64.33,106.47 64.73,97.4 65.12,91.12 65.52,86.49 65.91,82.85 66.3,79.85 66.7,77.29 67.09,75.08 67.49,73.18 67.88,71.57 68.28,70.18 68.67,68.94 69.07,67.81 69.46,66.79 69.86,65.89 70.25,65.11 70.65,64.44 71.04,63.88 71.44,63.39 71.83,62.96 72.23,62.57 72.62,62.2 73.01,61.87 73.41,61.58 73.8,61.31 74.2,61.07 74.59,60.81 74.99,60.54 75.38,60.28 75.78,60.07 76.17,59.89 76.57,59.74 76.96,59.6 77.36,59.47 77.75,59.35 78.15,59.23 78.54,59.08 78.94,58.91 79.33,58.75 79.72,58.62 80.12,58.51 80.51,58.42 80.91,58.33 81.3,58.24 81.7,58.14 82.09,58.04 82.49,57.97 82.88,57.92 83.28,57.87 83.67,57.82 84.07,57.76 84.46,57.7 84.86,57.64 85.25,57.57 85.65,57.48 86.04,57.4 86.43,57.34 86.83,57.3 87.22,57.28 87.62,57.25 88.01,57.21 88.41,57.16 88.8,57.11 89.2,57.05 89.59,56.95 89.99,56.85 90.38,56.78 90.78,56.75 91.17,56.74 91.57,56.74 91.96,56.71 92.36,56.68 92.75,56.64 93.14,56.6 93.54,56.57 93.93,56.55 94.33,56.56 94.72,56.58 95.12,56.56 95.51,56.5 95.91,56.42 96.3,56.36 96.7,56.33 97.09,56.31 97.49,56.3 97.88,56.29 98.28,56.28 98.67,56.27 99.07,56.25 99.46,56.22 99.85,56.18 100.25,56.12 100.64,56.07 101.04,56.03 101.43,56 101.83,55.99 102.22,55.97 102.62,55.95 103.01,55.92 103.41,55.89 103.8,55.87 104.2,55.85 104.59,55.85 104.99,55.83 105.38,55.8 105.78,55.76 106.17,55.74 106.56,55.73 106.96,55.74 107.35,55.75 107.75,55.74 108.14,55.72 108.54,55.69 108.93,55.65 109.33,55.61 109.72,55.58 110.12,55.55 110.51,55.55 110.91,55.56 111.3,55.58 111.7,55.58 112.09,55.57 112.49,55.56 112.88,55.55 113.27,55.54 113.67,55.53 114.06,55.52 114.46,55.52 114.85,55.51 115.25,55.5 115.64,55.48 116.04,55.47 116.43,55.45 116.83,55.45 117.22,55.45 117.62,55.45 118.01,55.45 118.41,55.44 118.8,55.43 119.2,55.41 119.59,55.38 119.98,55.35 120.38,55.32 120.77,55.3 121.17,55.28 121.56,55.28 121.96,55.28 122.35,55.28 122.75,55.28 123.14,55.28 123.54,55.27 123.93,55.28 124.33,55.28 124.72,55.28 125.12,55.28 125.51,55.26 125.91,55.24 126.3,55.21 126.69,55.2 127.09,55.2 127.48,55.22 127.88,55.23 128.27,55.23 128.67,55.23 129.06,55.23 129.46,55.21 129.85,55.2 130.25,55.17 130.64,55.15 131.04,55.13 131.43,55.12 131.83,55.12 132.22,55.13 132.62,55.13 133.01,55.11 133.4,55.09 133.8,55.08 134.19,55.09 134.59,55.1 134.98,55.11 135.38,55.11 135.77,55.1 136.17,55.09 136.56,55.07 136.96,55.06 137.35,55.05 137.75,55.05 138.14,55.05 138.54,55.04 138.93,55.03 139.33,55.02 139.72,55.01 140.11,55 140.51,54.98 140.9,54.97 141.3,54.96 141.69,54.96 142.09,54.97 142.48,54.97 142.88,54.98 143.27,54.99 143.67,54.99 144.06,54.99 144.46,54.98 144.85,54.97 145.25,54.96 145.64,54.95 146.04,54.95 146.43,54.95 146.82,54.94 147.22,54.93 147.61,54.93 148.01,54.92 148.4,54.91 148.8,54.92 149.19,54.92 149.59,54.93 149.98,54.94 150.38,54.94 150.77,54.93 151.17,54.93 151.56,54.92 151.96,54.92 152.35,54.91 152.75,54.9 153.14,54.89 153.53,54.88 153.93,54.88 154.32,54.88 154.72,54.88 155.11,54.88 155.51,54.88 155.9,54.88 156.3,54.88 156.69,54.88 157.09,54.87 157.48,54.87 157.88,54.86 158.27,54.85 158.67,54.85 159.06,54.85 159.46,54.85 159.85,54.84 160.24,54.84 160.64,54.83 161.03,54.83 161.43,54.82 161.82,54.82 162.22,54.82 162.61,54.81 163.01,54.81 163.4,54.81 163.8,54.81 164.19,54.81 164.59,54.81 164.98,54.8 165.38,54.8 165.77,54.79 166.17,54.79 166.56,54.79 166.95,54.79 167.35,54.79 167.74,54.78 168.14,54.77 168.53,54.75 168.93,54.74 169.32,54.74 169.72,54.75 170.11,54.76 170.51,54.77 170.9,54.77 171.3,54.76 171.69,54.76 172.09,54.75 172.48,54.75 172.88,54.75 173.27,54.75 173.66,54.75 174.06,54.76 174.45,54.76 174.85,54.76 175.24,54.75 175.64,54.74 176.03,54.73 176.43,54.73 176.82,54.73 177.22,54.73 177.61,54.74 178.01,54.74 178.4,54.75 178.8,54.74 179.19,54.74 179.59,54.73 179.98,54.72 180.37,54.71 180.77,54.72 181.16,54.73 181.56,54.73 181.95,54.73 182.35,54.73 182.74,54.72 183.14,54.72 183.53,54.71 183.93,54.72 184.32,54.72 184.72,54.73 185.11,54.74 185.51,54.74 185.9,54.73 186.3,54.72 186.69,54.71 187.08,54.7 187.48,54.7 187.87,54.69 188.27,54.7 188.66,54.7 189.06,54.71 189.45,54.71 189.85,54.7 190.24,54.7 190.64,54.69 191.03,54.68 191.43,54.67 191.82,54.67 192.22,54.68 192.61,54.69 193.01,54.7 193.4,54.7 193.79,54.7 194.19,54.69 194.58,54.69 194.98,54.68 195.37,54.68 195.77,54.68 196.16,54.67 196.56,54.67 196.95,54.67 197.35,54.67 197.74,54.67 198.14,54.67 198.53,54.68 198.93,54.68 199.32,54.68 199.72,54.68 200.11,54.68 200.5,54.68 200.9,54.68 201.29,54.68 201.69,54.67 202.08,54.67 202.48,54.66 202.87,54.66 203.27,54.66 203.66,54.66 204.06,54.65 204.45,54.65 204.85,54.64 205.24,54.64 205.64,54.64 206.03,54.65 206.43,54.65 206.82,54.65 207.21,54.65 207.61,54.65 208,54.64 208.4,54.64 208.79,54.65 209.19,54.65 209.58,54.65 209.98,54.65 210.37,54.65 210.77,54.65 211.16,54.65 211.56,54.64 211.95,54.64 212.35,54.64 212.74,54.63 213.14,54.63 213.53,54.63 213.92,54.63 214.32,54.64 214.71,54.65 215.11,54.65 215.5,54.64 215.9,54.62 216.29,54.62 216.69,54.62 217.08,54.62 217.48,54.63 217.87,54.63 218.27,54.64 218.66,54.64 219.06,54.64 219.45,54.64 219.85,54.64 220.24,54.64 220.63,54.64 221.03,54.64 221.42,54.64 221.82,54.64 222.21,54.64 222.61,54.64 223,54.64 223.4,54.63 223.79,54.62 224.19,54.62 224.58,54.61 224.98,54.61 225.37,54.61 225.77,54.61 226.16,54.61 226.56,54.61 226.95,54.61 227.34,54.61 227.74,54.61 228.13,54.62 228.53,54.62 228.92,54.62 229.32,54.62 229.71,54.62 230.11,54.62 230.5,54.62 230.9,54.61 231.29,54.6 231.69,54.59 232.08,54.59 232.48,54.6 232.87,54.6 233.27,54.6 233.66,54.6 234.05,54.6 234.45,54.6 234.84,54.6 235.24,54.61 235.63,54.61 236.03,54.61 236.42,54.61 236.82,54.61 237.21,54.62 237.61,54.62 238,54.62 238.4,54.62 238.79,54.61 239.19,54.6 239.58,54.59 239.98,54.59 240.37,54.59 240.76,54.6 241.16,54.61 241.55,54.61 241.95,54.61 242.34,54.6 242.74,54.61 243.13,54.61 243.53,54.6 243.92,54.6 244.32,54.59 244.71,54.59 245.11,54.59 245.5,54.6 245.9,54.6 246.29,54.6 246.69,54.6 247.08,54.6 247.47,54.6 247.87,54.6 248.26,54.6 248.66,54.6 249.05,54.59 249.45,54.59 249.84,54.59 250.24,54.59 250.63,54.58 251.03,54.58 251.42,54.58 251.82,54.59 252.21,54.59 252.61,54.59 253,54.59 253.4,54.59 253.79,54.58 254.18,54.58 254.58,54.58 254.97,54.59 255.37,54.59 255.76,54.59 256.16,54.58 256.55,54.57 256.95,54.57 257.34,54.57 257.74,54.58 258.13,54.59 258.53,54.59 258.92,54.58 259.32,54.55 259.71,54.53 260.11,54.51 260.5,54.51 260.89,54.5 261.29,54.5" stroke-dasharray="none" stroke="rgb(228,26,28)" stroke-width="0.75" opacity="1" stroke-opacity="1" fill="none"/>
          </g>
          <g id="Fig:densplot_01.xyplot.lines.group.2.panel.1.1.1">
            <polyline id="Fig:densplot_01.xyplot.lines.group.2.panel.1.1.1.1" points="59.2,54.54 59.6,54.72 59.99,55.44 60.39,57.81 60.78,63.87 61.18,76.08 61.58,95.33 61.97,118.52 62.37,138.61 62.77,148.57 63.16,146.15 63.56,134.9 63.95,120.8 64.35,108.22 64.75,98.71 65.14,91.94 65.54,87.07 65.94,83.38 66.33,80.41 66.73,77.94 67.12,75.82 67.52,73.96 67.92,72.32 68.31,70.84 68.71,69.52 69.11,68.33 69.5,67.26 69.9,66.32 70.29,65.49 70.69,64.76 71.09,64.15 71.48,63.62 71.88,63.17 72.28,62.77 72.67,62.4 73.07,62.04 73.46,61.71 73.86,61.4 74.26,61.11 74.65,60.84 75.05,60.59 75.45,60.36 75.84,60.14 76.24,59.94 76.63,59.75 77.03,59.58 77.43,59.41 77.82,59.26 78.22,59.12 78.62,58.99 79.01,58.87 79.41,58.77 79.8,58.69 80.2,58.61 80.6,58.53 80.99,58.46 81.39,58.37 81.79,58.28 82.18,58.19 82.58,58.09 82.97,58.01 83.37,57.94 83.77,57.88 84.16,57.83 84.56,57.78 84.96,57.73 85.35,57.67 85.75,57.61 86.14,57.55 86.54,57.49 86.94,57.43 87.33,57.38 87.73,57.33 88.13,57.28 88.52,57.23 88.92,57.17 89.31,57.11 89.71,57.04 90.11,56.98 90.5,56.94 90.9,56.91 91.3,56.89 91.69,56.87 92.09,56.84 92.48,56.81 92.88,56.78 93.28,56.75 93.67,56.71 94.07,56.69 94.47,56.66 94.86,56.64 95.26,56.61 95.66,56.59 96.05,56.57 96.45,56.55 96.84,56.53 97.24,56.51 97.64,56.47 98.03,56.43 98.43,56.38 98.83,56.33 99.22,56.29 99.62,56.26 100.01,56.24 100.41,56.22 100.81,56.2 101.2,56.18 101.6,56.17 102,56.15 102.39,56.14 102.79,56.13 103.18,56.11 103.58,56.1 103.98,56.08 104.37,56.06 104.77,56.03 105.17,55.99 105.56,55.95 105.96,55.91 106.35,55.89 106.75,55.89 107.15,55.9 107.54,55.92 107.94,55.91 108.34,55.9 108.73,55.87 109.13,55.84 109.52,55.81 109.92,55.79 110.32,55.77 110.71,55.76 111.11,55.75 111.51,55.75 111.9,55.75 112.3,55.74 112.69,55.72 113.09,55.7 113.49,55.69 113.88,55.67 114.28,55.66 114.68,55.65 115.07,55.65 115.47,55.65 115.86,55.64 116.26,55.63 116.66,55.61 117.05,55.6 117.45,55.59 117.85,55.57 118.24,55.56 118.64,55.54 119.03,55.52 119.43,55.49 119.83,55.47 120.22,55.46 120.62,55.47 121.02,55.48 121.41,55.48 121.81,55.48 122.2,55.46 122.6,55.44 123,55.42 123.39,55.41 123.79,55.4 124.19,55.39 124.58,55.38 124.98,55.37 125.37,55.36 125.77,55.36 126.17,55.36 126.56,55.36 126.96,55.36 127.36,55.36 127.75,55.34 128.15,55.32 128.54,55.3 128.94,55.29 129.34,55.28 129.73,55.28 130.13,55.27 130.53,55.25 130.92,55.23 131.32,55.22 131.71,55.21 132.11,55.22 132.51,55.22 132.9,55.22 133.3,55.21 133.7,55.2 134.09,55.19 134.49,55.19 134.88,55.18 135.28,55.18 135.68,55.18 136.07,55.19 136.47,55.19 136.87,55.2 137.26,55.19 137.66,55.18 138.05,55.16 138.45,55.14 138.85,55.12 139.24,55.11 139.64,55.1 140.04,55.09 140.43,55.09 140.83,55.08 141.22,55.09 141.62,55.09 142.02,55.1 142.41,55.09 142.81,55.08 143.21,55.07 143.6,55.07 144,55.06 144.39,55.06 144.79,55.06 145.19,55.05 145.58,55.05 145.98,55.04 146.38,55.03 146.77,55.03 147.17,55.03 147.56,55.03 147.96,55.03 148.36,55.03 148.75,55.02 149.15,55.02 149.55,55.02 149.94,55.01 150.34,55.01 150.73,55 151.13,54.99 151.53,54.98 151.92,54.97 152.32,54.96 152.72,54.95 153.11,54.94 153.51,54.94 153.9,54.95 154.3,54.95 154.7,54.95 155.09,54.96 155.49,54.96 155.89,54.95 156.28,54.95 156.68,54.95 157.07,54.96 157.47,54.96 157.87,54.96 158.26,54.96 158.66,54.95 159.06,54.93 159.45,54.93 159.85,54.92 160.24,54.93 160.64,54.93 161.04,54.93 161.43,54.92 161.83,54.92 162.23,54.92 162.62,54.92 163.02,54.93 163.41,54.93 163.81,54.93 164.21,54.92 164.6,54.91 165,54.9 165.4,54.88 165.79,54.87 166.19,54.86 166.58,54.86 166.98,54.87 167.38,54.88 167.77,54.88 168.17,54.87 168.57,54.87 168.96,54.86 169.36,54.86 169.75,54.86 170.15,54.87 170.55,54.87 170.94,54.87 171.34,54.87 171.74,54.87 172.13,54.86 172.53,54.85 172.92,54.83 173.32,54.83 173.72,54.82 174.11,54.82 174.51,54.82 174.91,54.81 175.3,54.81 175.7,54.8 176.09,54.8 176.49,54.81 176.89,54.81 177.28,54.81 177.68,54.8 178.08,54.8 178.47,54.8 178.87,54.8 179.26,54.8 179.66,54.8 180.06,54.8 180.45,54.79 180.85,54.79 181.25,54.78 181.64,54.78 182.04,54.77 182.43,54.77 182.83,54.76 183.23,54.76 183.62,54.76 184.02,54.76 184.42,54.77 184.81,54.77 185.21,54.77 185.6,54.77 186,54.77 186.4,54.76 186.79,54.76 187.19,54.76 187.59,54.75 187.98,54.75 188.38,54.75 188.77,54.76 189.17,54.76 189.57,54.77 189.96,54.77 190.36,54.77 190.76,54.76 191.15,54.75 191.55,54.74 191.94,54.73 192.34,54.73 192.74,54.73 193.13,54.73 193.53,54.73 193.93,54.73 194.32,54.73 194.72,54.73 195.11,54.72 195.51,54.72 195.91,54.71 196.3,54.72 196.7,54.72 197.1,54.72 197.49,54.72 197.89,54.71 198.28,54.72 198.68,54.73 199.08,54.73 199.47,54.73 199.87,54.73 200.27,54.72 200.66,54.72 201.06,54.72 201.45,54.72 201.85,54.72 202.25,54.71 202.64,54.7 203.04,54.7 203.44,54.7 203.83,54.7 204.23,54.7 204.62,54.7 205.02,54.7 205.42,54.7 205.81,54.71 206.21,54.72 206.61,54.72 207,54.73 207.4,54.72 207.79,54.72 208.19,54.71 208.59,54.7 208.98,54.7 209.38,54.7 209.78,54.7 210.17,54.7 210.57,54.7 210.96,54.69 211.36,54.69 211.76,54.68 212.15,54.67 212.55,54.66 212.95,54.65 213.34,54.65 213.74,54.65 214.13,54.65 214.53,54.65 214.93,54.65 215.32,54.66 215.72,54.66 216.12,54.66 216.51,54.66 216.91,54.66 217.3,54.66 217.7,54.67 218.1,54.67 218.49,54.67 218.89,54.67 219.29,54.68 219.68,54.68 220.08,54.69 220.47,54.69 220.87,54.69 221.27,54.68 221.66,54.68 222.06,54.67 222.46,54.67 222.85,54.67 223.25,54.67 223.64,54.66 224.04,54.66 224.44,54.66 224.83,54.65 225.23,54.65 225.63,54.65 226.02,54.65 226.42,54.65 226.81,54.65 227.21,54.66 227.61,54.66 228,54.67 228.4,54.67 228.8,54.67 229.19,54.66 229.59,54.66 229.98,54.65 230.38,54.65 230.78,54.65 231.17,54.65 231.57,54.65 231.97,54.65 232.36,54.65 232.76,54.65 233.15,54.65 233.55,54.65 233.95,54.64 234.34,54.64 234.74,54.64 235.14,54.64 235.53,54.64 235.93,54.64 236.32,54.64 236.72,54.64 237.12,54.63 237.51,54.63 237.91,54.62 238.31,54.62 238.7,54.62 239.1,54.62 239.49,54.63 239.89,54.64 240.29,54.64 240.68,54.64 241.08,54.64 241.48,54.63 241.87,54.63 242.27,54.62 242.66,54.62 243.06,54.63 243.46,54.63 243.85,54.63 244.25,54.64 244.65,54.63 245.04,54.63 245.44,54.62 245.83,54.62 246.23,54.62 246.63,54.62 247.02,54.63 247.42,54.62 247.82,54.62 248.21,54.62 248.61,54.61 249,54.62 249.4,54.62 249.8,54.62 250.19,54.62 250.59,54.62 250.99,54.62 251.38,54.61 251.78,54.61 252.17,54.6 252.57,54.6 252.97,54.6 253.36,54.61 253.76,54.61 254.16,54.61 254.55,54.6 254.95,54.6 255.34,54.6 255.74,54.6 256.14,54.6 256.53,54.61 256.93,54.61 257.33,54.61 257.72,54.61 258.12,54.61 258.51,54.6 258.91,54.59 259.31,54.56 259.7,54.54 260.1,54.52 260.5,54.51 260.89,54.5 261.29,54.5 261.68,54.5" stroke-dasharray="none" stroke="rgb(228,26,28)" stroke-width="0.75" opacity="1" stroke-opacity="1" fill="none"/>
          </g>
          <g id="Fig:densplot_01.xyplot.lines.group.3.panel.1.1.1">
            <polyline id="Fig:densplot_01.xyplot.lines.group.3.panel.1.1.1.1" points="59.58,54.55 59.97,54.86 60.37,56.47 60.76,62.65 61.16,79.85 61.55,111.75 61.95,149.5 62.34,174.16 62.74,174.25 63.13,155.8 63.53,132.63 63.92,113.7 64.31,100.81 64.71,92.49 65.1,86.91 65.5,82.86 65.89,79.66 66.29,77.03 66.68,74.81 67.08,72.88 67.47,71.22 67.87,69.81 68.26,68.6 68.66,67.52 69.05,66.53 69.44,65.64 69.84,64.87 70.23,64.2 70.63,63.62 71.02,63.11 71.42,62.68 71.81,62.32 72.21,62.01 72.6,61.72 73,61.45 73.39,61.19 73.79,60.95 74.18,60.71 74.57,60.45 74.97,60.18 75.36,59.94 75.76,59.77 76.15,59.64 76.55,59.53 76.94,59.39 77.34,59.25 77.73,59.14 78.13,59.03 78.52,58.9 78.92,58.76 79.31,58.62 79.7,58.49 80.1,58.34 80.49,58.2 80.89,58.08 81.28,58.01 81.68,57.95 82.07,57.91 82.47,57.85 82.86,57.79 83.26,57.73 83.65,57.68 84.04,57.64 84.44,57.61 84.83,57.57 85.23,57.52 85.62,57.46 86.02,57.38 86.41,57.3 86.81,57.24 87.2,57.19 87.6,57.14 87.99,57.1 88.39,57.06 88.78,57.01 89.17,56.94 89.57,56.85 89.96,56.77 90.36,56.71 90.75,56.69 91.15,56.68 91.54,56.66 91.94,56.63 92.33,56.59 92.73,56.56 93.12,56.53 93.52,56.49 93.91,56.46 94.3,56.44 94.7,56.41 95.09,56.39 95.49,56.37 95.88,56.34 96.28,56.29 96.67,56.25 97.07,56.21 97.46,56.19 97.86,56.17 98.25,56.16 98.65,56.14 99.04,56.12 99.43,56.1 99.83,56.07 100.22,56.06 100.62,56.04 101.01,56.04 101.41,56.02 101.8,56 102.2,55.98 102.59,55.95 102.99,55.92 103.38,55.9 103.78,55.89 104.17,55.87 104.56,55.85 104.96,55.82 105.35,55.79 105.75,55.78 106.14,55.77 106.54,55.77 106.93,55.75 107.33,55.73 107.72,55.71 108.12,55.69 108.51,55.66 108.91,55.63 109.3,55.61 109.69,55.6 110.09,55.6 110.48,55.61 110.88,55.6 111.27,55.57 111.67,55.54 112.06,55.52 112.46,55.52 112.85,55.52 113.25,55.52 113.64,55.51 114.04,55.51 114.43,55.5 114.82,55.5 115.22,55.48 115.61,55.46 116.01,55.44 116.4,55.41 116.8,55.39 117.19,55.38 117.59,55.37 117.98,55.35 118.38,55.34 118.77,55.32 119.17,55.32 119.56,55.33 119.95,55.33 120.35,55.34 120.74,55.34 121.14,55.34 121.53,55.33 121.93,55.32 122.32,55.31 122.72,55.3 123.11,55.29 123.51,55.28 123.9,55.26 124.3,55.24 124.69,55.21 125.08,55.19 125.48,55.17 125.87,55.16 126.27,55.17 126.66,55.19 127.06,55.2 127.45,55.2 127.85,55.21 128.24,55.22 128.64,55.21 129.03,55.21 129.43,55.19 129.82,55.18 130.21,55.16 130.61,55.13 131,55.1 131.4,55.09 131.79,55.09 132.19,55.11 132.58,55.13 132.98,55.13 133.37,55.13 133.77,55.11 134.16,55.1 134.56,55.08 134.95,55.08 135.34,55.07 135.74,55.07 136.13,55.06 136.53,55.05 136.92,55.04 137.32,55.03 137.71,55.02 138.11,55.01 138.5,54.99 138.9,54.98 139.29,54.99 139.68,55 140.08,55.01 140.47,55.01 140.87,55.01 141.26,55.01 141.66,55.02 142.05,55.03 142.45,55.03 142.84,55.01 143.24,54.99 143.63,54.96 144.03,54.96 144.42,54.97 144.81,54.98 145.21,54.98 145.6,54.97 146,54.96 146.39,54.94 146.79,54.94 147.18,54.94 147.58,54.95 147.97,54.96 148.37,54.96 148.76,54.94 149.16,54.92 149.55,54.9 149.94,54.88 150.34,54.88 150.73,54.88 151.13,54.89 151.52,54.89 151.92,54.88 152.31,54.88 152.71,54.86 153.1,54.85 153.5,54.85 153.89,54.85 154.29,54.86 154.68,54.88 155.07,54.89 155.47,54.89 155.86,54.89 156.26,54.89 156.65,54.88 157.05,54.88 157.44,54.87 157.84,54.87 158.23,54.86 158.63,54.86 159.02,54.86 159.42,54.87 159.81,54.87 160.2,54.87 160.6,54.87 160.99,54.86 161.39,54.84 161.78,54.83 162.18,54.82 162.57,54.82 162.97,54.82 163.36,54.83 163.76,54.84 164.15,54.84 164.55,54.83 164.94,54.82 165.33,54.81 165.73,54.81 166.12,54.81 166.52,54.8 166.91,54.8 167.31,54.79 167.7,54.79 168.1,54.78 168.49,54.77 168.89,54.77 169.28,54.78 169.68,54.79 170.07,54.79 170.46,54.78 170.86,54.77 171.25,54.76 171.65,54.75 172.04,54.75 172.44,54.75 172.83,54.75 173.23,54.76 173.62,54.76 174.02,54.75 174.41,54.75 174.81,54.75 175.2,54.75 175.59,54.75 175.99,54.76 176.38,54.75 176.78,54.74 177.17,54.73 177.57,54.72 177.96,54.72 178.36,54.73 178.75,54.73 179.15,54.72 179.54,54.72 179.94,54.71 180.33,54.71 180.72,54.72 181.12,54.72 181.51,54.73 181.91,54.74 182.3,54.73 182.7,54.73 183.09,54.71 183.49,54.7 183.88,54.7 184.28,54.7 184.67,54.71 185.07,54.71 185.46,54.71 185.85,54.71 186.25,54.71 186.64,54.71 187.04,54.71 187.43,54.71 187.83,54.72 188.22,54.72 188.62,54.72 189.01,54.72 189.41,54.71 189.8,54.71 190.19,54.7 190.59,54.7 190.98,54.7 191.38,54.69 191.77,54.67 192.17,54.66 192.56,54.66 192.96,54.66 193.35,54.67 193.75,54.68 194.14,54.68 194.54,54.68 194.93,54.68 195.32,54.69 195.72,54.69 196.11,54.68 196.51,54.68 196.9,54.67 197.3,54.67 197.69,54.68 198.09,54.69 198.48,54.7 198.88,54.69 199.27,54.69 199.67,54.69 200.06,54.69 200.45,54.7 200.85,54.7 201.24,54.69 201.64,54.68 202.03,54.68 202.43,54.68 202.82,54.68 203.22,54.67 203.61,54.67 204.01,54.66 204.4,54.65 204.8,54.65 205.19,54.65 205.58,54.66 205.98,54.66 206.37,54.65 206.77,54.64 207.16,54.64 207.56,54.64 207.95,54.65 208.35,54.65 208.74,54.66 209.14,54.66 209.53,54.66 209.93,54.65 210.32,54.65 210.71,54.64 211.11,54.64 211.5,54.64 211.9,54.64 212.29,54.63 212.69,54.63 213.08,54.64 213.48,54.64 213.87,54.64 214.27,54.65 214.66,54.65 215.06,54.64 215.45,54.64 215.84,54.64 216.24,54.64 216.63,54.65 217.03,54.64 217.42,54.64 217.82,54.64 218.21,54.64 218.61,54.64 219,54.64 219.4,54.64 219.79,54.64 220.19,54.64 220.58,54.64 220.97,54.63 221.37,54.63 221.76,54.62 222.16,54.61 222.55,54.6 222.95,54.6 223.34,54.61 223.74,54.61 224.13,54.62 224.53,54.62 224.92,54.61 225.32,54.62 225.71,54.62 226.1,54.62 226.5,54.62 226.89,54.63 227.29,54.63 227.68,54.63 228.08,54.63 228.47,54.62 228.87,54.62 229.26,54.62 229.66,54.62 230.05,54.62 230.45,54.62 230.84,54.62 231.23,54.62 231.63,54.62 232.02,54.62 232.42,54.62 232.81,54.62 233.21,54.62 233.6,54.61 234,54.61 234.39,54.61 234.79,54.61 235.18,54.61 235.58,54.61 235.97,54.61 236.36,54.62 236.76,54.62 237.15,54.61 237.55,54.6 237.94,54.59 238.34,54.58 238.73,54.58 239.13,54.58 239.52,54.59 239.92,54.6 240.31,54.61 240.71,54.6 241.1,54.59 241.49,54.59 241.89,54.59 242.28,54.59 242.68,54.59 243.07,54.59 243.47,54.59 243.86,54.58 244.26,54.58 244.65,54.59 245.05,54.6 245.44,54.6 245.83,54.6 246.23,54.6 246.62,54.59 247.02,54.59 247.41,54.6 247.81,54.6 248.2,54.61 248.6,54.6 248.99,54.6 249.39,54.59 249.78,54.59 250.18,54.59 250.57,54.59 250.96,54.59 251.36,54.59 251.75,54.59 252.15,54.6 252.54,54.6 252.94,54.6 253.33,54.59 253.73,54.59 254.12,54.59 254.52,54.58 254.91,54.58 255.31,54.59 255.7,54.59 256.09,54.59 256.49,54.59 256.88,54.59 257.28,54.59 257.67,54.59 258.07,54.59 258.46,54.59 258.86,54.58 259.25,54.56 259.65,54.53 260.04,54.51 260.44,54.51 260.83,54.5 261.22,54.5" stroke-dasharray="none" stroke="rgb(228,26,28)" stroke-width="0.75" opacity="1" stroke-opacity="1" fill="none"/>
          </g>
          <g id="Fig:densplot_01.xyplot.lines.group.4.panel.1.1.1">
            <polyline id="Fig:densplot_01.xyplot.lines.group.4.panel.1.1.1.1" points="59.87,54.57 60.26,55.11 60.66,58.14 61.05,69.34 61.44,96.58 61.84,139.29 62.23,178.54 62.63,190.37 63.02,172.17 63.41,142.66 63.81,118.43 64.2,103.2 64.59,94.08 64.99,88.16 65.38,83.83 65.77,80.42 66.17,77.64 66.56,75.36 66.96,73.4 67.35,71.62 67.74,70.08 68.14,68.79 68.53,67.7 68.92,66.77 69.32,65.97 69.71,65.25 70.1,64.58 70.5,63.95 70.89,63.39 71.29,62.91 71.68,62.52 72.07,62.19 72.47,61.85 72.86,61.52 73.25,61.23 73.65,61.01 74.04,60.82 74.43,60.63 74.83,60.4 75.22,60.16 75.62,59.97 76.01,59.81 76.4,59.67 76.8,59.54 77.19,59.42 77.58,59.28 77.98,59.13 78.37,58.96 78.76,58.79 79.16,58.63 79.55,58.49 79.95,58.38 80.34,58.27 80.73,58.16 81.13,58.05 81.52,57.95 81.91,57.85 82.31,57.74 82.7,57.66 83.09,57.6 83.49,57.57 83.88,57.53 84.28,57.47 84.67,57.41 85.06,57.35 85.46,57.28 85.85,57.21 86.24,57.17 86.64,57.14 87.03,57.13 87.42,57.11 87.82,57.06 88.21,56.99 88.61,56.94 89,56.87 89.39,56.78 89.79,56.67 90.18,56.59 90.57,56.57 90.97,56.58 91.36,56.57 91.75,56.54 92.15,56.51 92.54,56.48 92.93,56.45 93.33,56.42 93.72,56.4 94.12,56.39 94.51,56.37 94.9,56.35 95.3,56.32 95.69,56.29 96.08,56.27 96.48,56.24 96.87,56.19 97.26,56.13 97.66,56.08 98.05,56.04 98.45,56 98.84,55.96 99.23,55.93 99.63,55.91 100.02,55.91 100.41,55.92 100.81,55.92 101.2,55.91 101.59,55.88 101.99,55.85 102.38,55.82 102.78,55.81 103.17,55.79 103.56,55.75 103.96,55.71 104.35,55.71 104.74,55.72 105.14,55.72 105.53,55.68 105.92,55.64 106.32,55.63 106.71,55.64 107.11,55.65 107.5,55.63 107.89,55.6 108.29,55.58 108.68,55.57 109.07,55.56 109.47,55.54 109.86,55.51 110.25,55.49 110.65,55.49 111.04,55.49 111.44,55.51 111.83,55.52 112.22,55.52 112.62,55.49 113.01,55.46 113.4,55.42 113.8,55.4 114.19,55.4 114.58,55.4 114.98,55.41 115.37,55.41 115.77,55.4 116.16,55.38 116.55,55.35 116.95,55.33 117.34,55.32 117.73,55.3 118.13,55.29 118.52,55.28 118.91,55.28 119.31,55.28 119.7,55.27 120.1,55.26 120.49,55.25 120.88,55.23 121.28,55.21 121.67,55.21 122.06,55.21 122.46,55.22 122.85,55.22 123.24,55.22 123.64,55.22 124.03,55.23 124.43,55.22 124.82,55.2 125.21,55.19 125.61,55.17 126,55.16 126.39,55.14 126.79,55.12 127.18,55.11 127.57,55.09 127.97,55.08 128.36,55.07 128.76,55.08 129.15,55.09 129.54,55.11 129.94,55.12 130.33,55.09 130.72,55.05 131.12,55.01 131.51,54.99 131.9,55 132.3,55.02 132.69,55.03 133.09,55.03 133.48,55.03 133.87,55.03 134.27,55.02 134.66,55.01 135.05,55.01 135.45,55.03 135.84,55.04 136.23,55.05 136.63,55.04 137.02,55.02 137.41,55.01 137.81,55 138.2,54.99 138.6,54.97 138.99,54.96 139.38,54.94 139.78,54.93 140.17,54.91 140.56,54.91 140.96,54.91 141.35,54.91 141.74,54.93 142.14,54.94 142.53,54.95 142.93,54.93 143.32,54.9 143.71,54.89 144.11,54.89 144.5,54.89 144.89,54.9 145.29,54.9 145.68,54.9 146.07,54.9 146.47,54.9 146.86,54.88 147.26,54.87 147.65,54.87 148.04,54.87 148.44,54.86 148.83,54.86 149.22,54.86 149.62,54.86 150.01,54.85 150.4,54.84 150.8,54.83 151.19,54.82 151.59,54.82 151.98,54.82 152.37,54.83 152.77,54.84 153.16,54.83 153.55,54.81 153.95,54.8 154.34,54.8 154.73,54.8 155.13,54.81 155.52,54.81 155.92,54.82 156.31,54.84 156.7,54.85 157.1,54.86 157.49,54.84 157.88,54.83 158.28,54.82 158.67,54.82 159.06,54.81 159.46,54.81 159.85,54.8 160.25,54.8 160.64,54.81 161.03,54.81 161.43,54.81 161.82,54.79 162.21,54.78 162.61,54.77 163,54.77 163.39,54.77 163.79,54.76 164.18,54.75 164.58,54.75 164.97,54.76 165.36,54.77 165.76,54.78 166.15,54.78 166.54,54.78 166.94,54.77 167.33,54.77 167.72,54.76 168.12,54.75 168.51,54.74 168.91,54.73 169.3,54.72 169.69,54.72 170.09,54.72 170.48,54.73 170.87,54.72 171.27,54.72 171.66,54.71 172.05,54.7 172.45,54.71 172.84,54.72 173.24,54.74 173.63,54.75 174.02,54.75 174.42,54.74 174.81,54.72 175.2,54.71 175.6,54.7 175.99,54.71 176.38,54.72 176.78,54.72 177.17,54.72 177.57,54.71 177.96,54.7 178.35,54.69 178.75,54.7 179.14,54.71 179.53,54.72 179.93,54.72 180.32,54.71 180.71,54.7 181.11,54.69 181.5,54.69 181.89,54.7 182.29,54.7 182.68,54.69 183.08,54.68 183.47,54.68 183.86,54.68 184.26,54.68 184.65,54.69 185.04,54.69 185.44,54.69 185.83,54.7 186.22,54.69 186.62,54.68 187.01,54.67 187.41,54.66 187.8,54.64 188.19,54.64 188.59,54.65 188.98,54.66 189.37,54.66 189.77,54.67 190.16,54.67 190.55,54.68 190.95,54.68 191.34,54.68 191.74,54.67 192.13,54.66 192.52,54.65 192.92,54.66 193.31,54.67 193.7,54.68 194.1,54.69 194.49,54.68 194.88,54.67 195.28,54.66 195.67,54.65 196.07,54.64 196.46,54.64 196.85,54.64 197.25,54.65 197.64,54.64 198.03,54.64 198.43,54.64 198.82,54.64 199.21,54.64 199.61,54.63 200,54.64 200.4,54.64 200.79,54.63 201.18,54.62 201.58,54.61 201.97,54.61 202.36,54.61 202.76,54.62 203.15,54.63 203.54,54.64 203.94,54.64 204.33,54.64 204.73,54.63 205.12,54.63 205.51,54.63 205.91,54.64 206.3,54.64 206.69,54.64 207.09,54.64 207.48,54.65 207.87,54.64 208.27,54.63 208.66,54.62 209.06,54.62 209.45,54.62 209.84,54.63 210.24,54.63 210.63,54.64 211.02,54.64 211.42,54.64 211.81,54.64 212.2,54.63 212.6,54.63 212.99,54.62 213.39,54.61 213.78,54.6 214.17,54.6 214.57,54.6 214.96,54.61 215.35,54.61 215.75,54.61 216.14,54.61 216.53,54.61 216.93,54.62 217.32,54.62 217.72,54.62 218.11,54.63 218.5,54.63 218.9,54.63 219.29,54.62 219.68,54.61 220.08,54.61 220.47,54.61 220.86,54.61 221.26,54.61 221.65,54.61 222.05,54.61 222.44,54.6 222.83,54.6 223.23,54.6 223.62,54.6 224.01,54.6 224.41,54.59 224.8,54.6 225.19,54.6 225.59,54.6 225.98,54.6 226.37,54.59 226.77,54.59 227.16,54.6 227.56,54.6 227.95,54.59 228.34,54.59 228.74,54.58 229.13,54.57 229.52,54.58 229.92,54.58 230.31,54.58 230.7,54.59 231.1,54.59 231.49,54.59 231.89,54.59 232.28,54.59 232.67,54.59 233.07,54.59 233.46,54.59 233.85,54.59 234.25,54.59 234.64,54.6 235.03,54.6 235.43,54.61 235.82,54.61 236.22,54.61 236.61,54.61 237,54.6 237.4,54.6 237.79,54.59 238.18,54.58 238.58,54.59 238.97,54.59 239.36,54.59 239.76,54.59 240.15,54.59 240.55,54.58 240.94,54.59 241.33,54.6 241.73,54.6 242.12,54.61 242.51,54.6 242.91,54.6 243.3,54.6 243.69,54.6 244.09,54.6 244.48,54.59 244.88,54.59 245.27,54.59 245.66,54.58 246.06,54.58 246.45,54.57 246.84,54.57 247.24,54.57 247.63,54.57 248.02,54.57 248.42,54.57 248.81,54.57 249.21,54.57 249.6,54.58 249.99,54.58 250.39,54.58 250.78,54.59 251.17,54.59 251.57,54.6 251.96,54.6 252.35,54.59 252.75,54.59 253.14,54.58 253.54,54.58 253.93,54.58 254.32,54.58 254.72,54.58 255.11,54.58 255.5,54.58 255.9,54.58 256.29,54.57 256.68,54.57 257.08,54.57 257.47,54.58 257.87,54.58 258.26,54.57 258.65,54.57 259.05,54.56 259.44,54.54 259.83,54.52 260.23,54.51 260.62,54.5 261.01,54.5" stroke-dasharray="none" stroke="rgb(228,26,28)" stroke-width="0.75" opacity="1" stroke-opacity="1" fill="none"/>
          </g>
          <g id="Fig:densplot_01.xyplot.lines.group.5.panel.1.1.1">
            <polyline id="Fig:densplot_01.xyplot.lines.group.5.panel.1.1.1.1" points="59.17,54.54 59.57,54.75 59.96,55.62 60.36,58.58 60.75,66.44 61.15,82.51 61.55,106.3 61.94,131.37 62.34,148.24 62.73,151.42 63.13,142.87 63.53,128.86 63.92,114.92 64.32,103.66 64.72,95.34 65.11,89.33 65.51,84.88 65.9,81.45 66.3,78.72 66.7,76.48 67.09,74.61 67.49,73.02 67.88,71.63 68.28,70.37 68.68,69.19 69.07,68.09 69.47,67.1 69.86,66.24 70.26,65.52 70.66,64.9 71.05,64.34 71.45,63.81 71.84,63.32 72.24,62.87 72.64,62.48 73.03,62.17 73.43,61.9 73.82,61.65 74.22,61.38 74.62,61.1 75.01,60.81 75.41,60.55 75.8,60.32 76.2,60.13 76.6,59.96 76.99,59.8 77.39,59.66 77.78,59.52 78.18,59.39 78.58,59.26 78.97,59.13 79.37,59 79.77,58.88 80.16,58.76 80.56,58.64 80.95,58.54 81.35,58.44 81.75,58.35 82.14,58.27 82.54,58.2 82.93,58.14 83.33,58.09 83.73,58.01 84.12,57.91 84.52,57.78 84.91,57.66 85.31,57.57 85.71,57.52 86.1,57.47 86.5,57.43 86.89,57.39 87.29,57.34 87.69,57.29 88.08,57.26 88.48,57.22 88.87,57.16 89.27,57.09 89.67,57.02 90.06,56.96 90.46,56.94 90.85,56.93 91.25,56.94 91.65,56.93 92.04,56.91 92.44,56.87 92.83,56.82 93.23,56.78 93.63,56.73 94.02,56.69 94.42,56.64 94.82,56.59 95.21,56.52 95.61,56.46 96,56.41 96.4,56.39 96.8,56.37 97.19,56.34 97.59,56.31 97.98,56.29 98.38,56.27 98.78,56.26 99.17,56.25 99.57,56.23 99.96,56.21 100.36,56.19 100.76,56.16 101.15,56.14 101.55,56.11 101.94,56.09 102.34,56.07 102.74,56.06 103.13,56.05 103.53,56.04 103.92,56.04 104.32,56.03 104.72,56.01 105.11,55.98 105.51,55.94 105.9,55.9 106.3,55.88 106.7,55.87 107.09,55.87 107.49,55.87 107.88,55.87 108.28,55.86 108.68,55.85 109.07,55.83 109.47,55.81 109.87,55.77 110.26,55.73 110.66,55.7 111.05,55.67 111.45,55.65 111.85,55.63 112.24,55.61 112.64,55.59 113.03,55.58 113.43,55.58 113.83,55.58 114.22,55.58 114.62,55.58 115.01,55.56 115.41,55.55 115.81,55.54 116.2,55.54 116.6,55.54 116.99,55.55 117.39,55.55 117.79,55.54 118.18,55.52 118.58,55.5 118.97,55.48 119.37,55.47 119.77,55.45 120.16,55.43 120.56,55.41 120.95,55.39 121.35,55.38 121.75,55.38 122.14,55.38 122.54,55.37 122.93,55.36 123.33,55.35 123.73,55.32 124.12,55.29 124.52,55.28 124.92,55.27 125.31,55.27 125.71,55.28 126.1,55.29 126.5,55.3 126.9,55.3 127.29,55.29 127.69,55.28 128.08,55.26 128.48,55.24 128.88,55.22 129.27,55.21 129.67,55.2 130.06,55.2 130.46,55.19 130.86,55.17 131.25,55.15 131.65,55.15 132.04,55.16 132.44,55.17 132.84,55.17 133.23,55.17 133.63,55.17 134.02,55.16 134.42,55.16 134.82,55.15 135.21,55.15 135.61,55.14 136,55.13 136.4,55.12 136.8,55.11 137.19,55.1 137.59,55.09 137.98,55.09 138.38,55.09 138.78,55.09 139.17,55.09 139.57,55.08 139.97,55.08 140.36,55.07 140.76,55.07 141.15,55.06 141.55,55.06 141.95,55.06 142.34,55.06 142.74,55.05 143.13,55.04 143.53,55.02 143.93,55 144.32,54.99 144.72,54.99 145.11,54.98 145.51,54.99 145.91,54.99 146.3,55 146.7,55.02 147.09,55.03 147.49,55.02 147.89,55.01 148.28,55 148.68,54.99 149.07,54.99 149.47,54.99 149.87,54.98 150.26,54.98 150.66,54.97 151.05,54.96 151.45,54.95 151.85,54.95 152.24,54.94 152.64,54.94 153.03,54.94 153.43,54.94 153.83,54.94 154.22,54.93 154.62,54.93 155.01,54.93 155.41,54.93 155.81,54.92 156.2,54.92 156.6,54.91 157,54.9 157.39,54.9 157.79,54.91 158.18,54.91 158.58,54.91 158.98,54.89 159.37,54.88 159.77,54.88 160.16,54.88 160.56,54.89 160.96,54.89 161.35,54.88 161.75,54.87 162.14,54.86 162.54,54.86 162.94,54.86 163.33,54.86 163.73,54.86 164.12,54.86 164.52,54.85 164.92,54.86 165.31,54.86 165.71,54.85 166.1,54.84 166.5,54.83 166.9,54.83 167.29,54.82 167.69,54.82 168.08,54.82 168.48,54.82 168.88,54.82 169.27,54.82 169.67,54.82 170.06,54.82 170.46,54.81 170.86,54.81 171.25,54.8 171.65,54.79 172.05,54.79 172.44,54.79 172.84,54.79 173.23,54.79 173.63,54.8 174.03,54.8 174.42,54.8 174.82,54.8 175.21,54.8 175.61,54.79 176.01,54.79 176.4,54.79 176.8,54.78 177.19,54.77 177.59,54.76 177.99,54.75 178.38,54.74 178.78,54.74 179.17,54.74 179.57,54.75 179.97,54.75 180.36,54.76 180.76,54.76 181.15,54.76 181.55,54.76 181.95,54.75 182.34,54.74 182.74,54.74 183.13,54.73 183.53,54.73 183.93,54.73 184.32,54.73 184.72,54.74 185.11,54.75 185.51,54.76 185.91,54.76 186.3,54.76 186.7,54.76 187.1,54.75 187.49,54.74 187.89,54.74 188.28,54.74 188.68,54.73 189.08,54.73 189.47,54.73 189.87,54.72 190.26,54.72 190.66,54.71 191.06,54.71 191.45,54.7 191.85,54.71 192.24,54.71 192.64,54.71 193.04,54.71 193.43,54.7 193.83,54.7 194.22,54.7 194.62,54.71 195.02,54.71 195.41,54.71 195.81,54.71 196.2,54.71 196.6,54.71 197,54.71 197.39,54.71 197.79,54.7 198.18,54.69 198.58,54.69 198.98,54.7 199.37,54.71 199.77,54.71 200.16,54.72 200.56,54.72 200.96,54.71 201.35,54.71 201.75,54.7 202.15,54.7 202.54,54.69 202.94,54.69 203.33,54.69 203.73,54.69 204.13,54.69 204.52,54.68 204.92,54.67 205.31,54.67 205.71,54.66 206.11,54.67 206.5,54.68 206.9,54.69 207.29,54.69 207.69,54.7 208.09,54.69 208.48,54.69 208.88,54.68 209.27,54.67 209.67,54.66 210.07,54.66 210.46,54.66 210.86,54.66 211.25,54.67 211.65,54.67 212.05,54.67 212.44,54.67 212.84,54.66 213.23,54.65 213.63,54.65 214.03,54.65 214.42,54.65 214.82,54.65 215.21,54.66 215.61,54.66 216.01,54.65 216.4,54.65 216.8,54.65 217.2,54.65 217.59,54.65 217.99,54.65 218.38,54.65 218.78,54.65 219.18,54.65 219.57,54.65 219.97,54.65 220.36,54.65 220.76,54.65 221.16,54.65 221.55,54.64 221.95,54.64 222.34,54.64 222.74,54.63 223.14,54.63 223.53,54.63 223.93,54.63 224.32,54.63 224.72,54.63 225.12,54.63 225.51,54.63 225.91,54.63 226.3,54.63 226.7,54.63 227.1,54.62 227.49,54.63 227.89,54.63 228.28,54.64 228.68,54.64 229.08,54.64 229.47,54.64 229.87,54.64 230.26,54.63 230.66,54.63 231.06,54.62 231.45,54.62 231.85,54.62 232.25,54.62 232.64,54.62 233.04,54.62 233.43,54.62 233.83,54.63 234.23,54.63 234.62,54.63 235.02,54.62 235.41,54.62 235.81,54.61 236.21,54.61 236.6,54.61 237,54.62 237.39,54.62 237.79,54.62 238.19,54.62 238.58,54.62 238.98,54.62 239.37,54.62 239.77,54.62 240.17,54.62 240.56,54.63 240.96,54.63 241.35,54.63 241.75,54.63 242.15,54.63 242.54,54.63 242.94,54.62 243.33,54.62 243.73,54.62 244.13,54.62 244.52,54.62 244.92,54.62 245.31,54.62 245.71,54.63 246.11,54.63 246.5,54.62 246.9,54.62 247.3,54.61 247.69,54.61 248.09,54.61 248.48,54.61 248.88,54.61 249.28,54.61 249.67,54.61 250.07,54.61 250.46,54.61 250.86,54.61 251.26,54.61 251.65,54.61 252.05,54.61 252.44,54.61 252.84,54.61 253.24,54.61 253.63,54.6 254.03,54.6 254.42,54.6 254.82,54.59 255.22,54.59 255.61,54.6 256.01,54.6 256.4,54.61 256.8,54.61 257.2,54.61 257.59,54.61 257.99,54.61 258.38,54.6 258.78,54.59 259.18,54.57 259.57,54.55 259.97,54.53 260.36,54.51 260.76,54.5 261.16,54.5 261.55,54.5" stroke-dasharray="none" stroke="rgb(55,126,184)" stroke-width="0.75" opacity="1" stroke-opacity="1" fill="none"/>
          </g>
          <g id="Fig:densplot_01.xyplot.lines.group.6.panel.1.1.1">
            <polyline id="Fig:densplot_01.xyplot.lines.group.6.panel.1.1.1.1" points="59.13,54.55 59.52,54.85 59.92,56.21 60.32,60.79 60.71,72.17 61.11,92.81 61.5,119.84 61.9,144.14 62.3,156.16 62.69,153.2 63.09,140.21 63.48,124.47 63.88,110.71 64.28,100.3 64.67,92.81 65.07,87.38 65.46,83.32 65.86,80.15 66.25,77.55 66.65,75.36 67.05,73.46 67.44,71.8 67.84,70.35 68.23,69.09 68.63,67.96 69.03,66.95 69.42,66.08 69.82,65.38 70.21,64.8 70.61,64.28 71.01,63.77 71.4,63.28 71.8,62.87 72.19,62.52 72.59,62.2 72.99,61.88 73.38,61.56 73.78,61.26 74.17,60.99 74.57,60.74 74.96,60.49 75.36,60.25 75.76,60.05 76.15,59.9 76.55,59.76 76.94,59.61 77.34,59.45 77.74,59.3 78.13,59.15 78.53,59.01 78.92,58.87 79.32,58.74 79.72,58.63 80.11,58.55 80.51,58.49 80.9,58.44 81.3,58.37 81.69,58.27 82.09,58.16 82.49,58.03 82.88,57.91 83.28,57.82 83.67,57.76 84.07,57.72 84.47,57.68 84.86,57.64 85.26,57.6 85.65,57.54 86.05,57.49 86.45,57.45 86.84,57.4 87.24,57.34 87.63,57.27 88.03,57.21 88.43,57.15 88.82,57.11 89.22,57.06 89.61,56.98 90.01,56.9 90.4,56.84 90.8,56.81 91.2,56.79 91.59,56.76 91.99,56.72 92.38,56.67 92.78,56.64 93.18,56.62 93.57,56.61 93.97,56.59 94.36,56.58 94.76,56.57 95.16,56.53 95.55,56.49 95.95,56.45 96.34,56.43 96.74,56.42 97.14,56.42 97.53,56.42 97.93,56.4 98.32,56.37 98.72,56.33 99.11,56.28 99.51,56.23 99.91,56.18 100.3,56.14 100.7,56.11 101.09,56.1 101.49,56.09 101.89,56.07 102.28,56.05 102.68,56.02 103.07,55.99 103.47,55.96 103.87,55.94 104.26,55.93 104.66,55.92 105.05,55.92 105.45,55.91 105.84,55.89 106.24,55.88 106.64,55.87 107.03,55.85 107.43,55.81 107.82,55.78 108.22,55.75 108.62,55.73 109.01,55.73 109.41,55.72 109.8,55.72 110.2,55.72 110.6,55.72 110.99,55.71 111.39,55.69 111.78,55.65 112.18,55.61 112.58,55.58 112.97,55.55 113.37,55.51 113.76,55.5 114.16,55.5 114.55,55.52 114.95,55.54 115.35,55.55 115.74,55.53 116.14,55.51 116.53,55.49 116.93,55.47 117.33,55.45 117.72,55.42 118.12,55.39 118.51,55.37 118.91,55.36 119.31,55.36 119.7,55.36 120.1,55.35 120.49,55.34 120.89,55.34 121.28,55.34 121.68,55.35 122.08,55.36 122.47,55.36 122.87,55.36 123.26,55.35 123.66,55.34 124.06,55.34 124.45,55.35 124.85,55.33 125.24,55.31 125.64,55.27 126.04,55.25 126.43,55.23 126.83,55.22 127.22,55.2 127.62,55.19 128.02,55.18 128.41,55.18 128.81,55.18 129.2,55.18 129.6,55.18 129.99,55.18 130.39,55.17 130.79,55.15 131.18,55.14 131.58,55.13 131.97,55.14 132.37,55.15 132.77,55.14 133.16,55.14 133.56,55.13 133.95,55.12 134.35,55.11 134.75,55.11 135.14,55.12 135.54,55.12 135.93,55.11 136.33,55.1 136.73,55.08 137.12,55.07 137.52,55.06 137.91,55.06 138.31,55.06 138.7,55.06 139.1,55.05 139.5,55.03 139.89,55.02 140.29,55.01 140.68,55.02 141.08,55.02 141.48,55.02 141.87,55.02 142.27,55.02 142.66,55 143.06,54.99 143.46,54.98 143.85,54.97 144.25,54.97 144.64,54.98 145.04,54.98 145.43,54.99 145.83,54.99 146.23,54.98 146.62,54.97 147.02,54.96 147.41,54.95 147.81,54.94 148.21,54.93 148.6,54.93 149,54.95 149.39,54.96 149.79,54.97 150.19,54.96 150.58,54.95 150.98,54.93 151.37,54.92 151.77,54.92 152.17,54.93 152.56,54.94 152.96,54.95 153.35,54.94 153.75,54.93 154.14,54.91 154.54,54.89 154.94,54.87 155.33,54.87 155.73,54.87 156.12,54.87 156.52,54.88 156.92,54.88 157.31,54.89 157.71,54.89 158.1,54.88 158.5,54.88 158.9,54.87 159.29,54.86 159.69,54.86 160.08,54.85 160.48,54.84 160.88,54.83 161.27,54.83 161.67,54.83 162.06,54.83 162.46,54.83 162.85,54.83 163.25,54.82 163.65,54.82 164.04,54.83 164.44,54.83 164.83,54.83 165.23,54.83 165.63,54.82 166.02,54.82 166.42,54.81 166.81,54.81 167.21,54.8 167.61,54.8 168,54.8 168.4,54.81 168.79,54.81 169.19,54.81 169.58,54.81 169.98,54.8 170.38,54.8 170.77,54.79 171.17,54.79 171.56,54.79 171.96,54.78 172.36,54.77 172.75,54.77 173.15,54.76 173.54,54.76 173.94,54.76 174.34,54.77 174.73,54.77 175.13,54.77 175.52,54.77 175.92,54.76 176.32,54.75 176.71,54.75 177.11,54.75 177.5,54.74 177.9,54.74 178.29,54.74 178.69,54.74 179.09,54.75 179.48,54.75 179.88,54.75 180.27,54.75 180.67,54.75 181.07,54.74 181.46,54.74 181.86,54.73 182.25,54.73 182.65,54.73 183.05,54.73 183.44,54.73 183.84,54.74 184.23,54.74 184.63,54.75 185.02,54.74 185.42,54.74 185.82,54.74 186.21,54.73 186.61,54.72 187,54.72 187.4,54.72 187.8,54.72 188.19,54.73 188.59,54.73 188.98,54.72 189.38,54.71 189.78,54.71 190.17,54.7 190.57,54.7 190.96,54.71 191.36,54.71 191.76,54.71 192.15,54.71 192.55,54.7 192.94,54.69 193.34,54.69 193.73,54.69 194.13,54.69 194.53,54.7 194.92,54.69 195.32,54.69 195.71,54.68 196.11,54.67 196.51,54.66 196.9,54.66 197.3,54.66 197.69,54.67 198.09,54.67 198.49,54.68 198.88,54.69 199.28,54.7 199.67,54.7 200.07,54.7 200.47,54.69 200.86,54.69 201.26,54.68 201.65,54.67 202.05,54.67 202.44,54.67 202.84,54.67 203.24,54.67 203.63,54.67 204.03,54.68 204.42,54.68 204.82,54.68 205.22,54.68 205.61,54.68 206.01,54.68 206.4,54.69 206.8,54.68 207.2,54.67 207.59,54.66 207.99,54.65 208.38,54.65 208.78,54.64 209.17,54.64 209.57,54.64 209.97,54.64 210.36,54.64 210.76,54.65 211.15,54.65 211.55,54.66 211.95,54.66 212.34,54.67 212.74,54.67 213.13,54.67 213.53,54.66 213.93,54.66 214.32,54.65 214.72,54.65 215.11,54.64 215.51,54.64 215.91,54.64 216.3,54.64 216.7,54.64 217.09,54.64 217.49,54.64 217.88,54.64 218.28,54.64 218.68,54.64 219.07,54.64 219.47,54.63 219.86,54.63 220.26,54.63 220.66,54.63 221.05,54.63 221.45,54.63 221.84,54.62 222.24,54.62 222.64,54.62 223.03,54.62 223.43,54.63 223.82,54.64 224.22,54.64 224.62,54.64 225.01,54.64 225.41,54.63 225.8,54.63 226.2,54.62 226.59,54.62 226.99,54.63 227.39,54.63 227.78,54.63 228.18,54.63 228.57,54.62 228.97,54.61 229.37,54.61 229.76,54.61 230.16,54.6 230.55,54.6 230.95,54.61 231.35,54.61 231.74,54.61 232.14,54.61 232.53,54.61 232.93,54.61 233.32,54.61 233.72,54.61 234.12,54.61 234.51,54.61 234.91,54.6 235.3,54.6 235.7,54.6 236.1,54.61 236.49,54.61 236.89,54.61 237.28,54.61 237.68,54.61 238.08,54.6 238.47,54.6 238.87,54.6 239.26,54.6 239.66,54.6 240.06,54.6 240.45,54.6 240.85,54.6 241.24,54.6 241.64,54.6 242.03,54.6 242.43,54.6 242.83,54.6 243.22,54.6 243.62,54.6 244.01,54.6 244.41,54.6 244.81,54.6 245.2,54.6 245.6,54.61 245.99,54.61 246.39,54.61 246.79,54.62 247.18,54.62 247.58,54.62 247.97,54.61 248.37,54.6 248.76,54.59 249.16,54.59 249.56,54.59 249.95,54.59 250.35,54.59 250.74,54.59 251.14,54.59 251.54,54.6 251.93,54.6 252.33,54.6 252.72,54.59 253.12,54.59 253.52,54.59 253.91,54.6 254.31,54.6 254.7,54.6 255.1,54.6 255.5,54.59 255.89,54.59 256.29,54.59 256.68,54.59 257.08,54.59 257.47,54.59 257.87,54.59 258.27,54.59 258.66,54.58 259.06,54.56 259.45,54.55 259.85,54.53 260.25,54.51 260.64,54.51 261.04,54.5 261.43,54.5" stroke-dasharray="none" stroke="rgb(55,126,184)" stroke-width="0.75" opacity="1" stroke-opacity="1" fill="none"/>
          </g>
          <g id="Fig:densplot_01.xyplot.lines.group.7.panel.1.1.1">
            <polyline id="Fig:densplot_01.xyplot.lines.group.7.panel.1.1.1.1" points="59.86,54.55 60.26,55.17 60.65,59.46 61.04,76.04 61.44,112.51 61.83,157.25 62.22,182.7 62.62,177.41 63.01,155.28 63.4,132.86 63.8,116.07 64.19,104.4 64.58,96.21 64.98,90.31 65.37,85.89 65.76,82.36 66.16,79.41 66.55,76.92 66.94,74.8 67.33,72.99 67.73,71.48 68.12,70.19 68.51,69.03 68.91,68.02 69.3,67.15 69.69,66.37 70.09,65.64 70.48,64.98 70.87,64.42 71.27,63.91 71.66,63.4 72.05,62.91 72.45,62.47 72.84,62.14 73.23,61.9 73.63,61.65 74.02,61.4 74.41,61.16 74.81,60.83 75.2,60.44 75.59,60.09 75.98,59.85 76.38,59.71 76.77,59.58 77.16,59.39 77.56,59.16 77.95,58.99 78.34,58.88 78.74,58.78 79.13,58.63 79.52,58.47 79.92,58.35 80.31,58.27 80.7,58.19 81.1,58.09 81.49,57.97 81.88,57.85 82.28,57.72 82.67,57.59 83.06,57.48 83.45,57.42 83.85,57.39 84.24,57.36 84.63,57.29 85.03,57.19 85.42,57.09 85.81,57.01 86.21,56.93 86.6,56.86 86.99,56.85 87.39,56.85 87.78,56.82 88.17,56.75 88.57,56.67 88.96,56.62 89.35,56.57 89.75,56.47 90.14,56.38 90.53,56.34 90.93,56.33 91.32,56.31 91.71,56.29 92.1,56.3 92.5,56.33 92.89,56.31 93.28,56.23 93.68,56.14 94.07,56.09 94.46,56.09 94.86,56.09 95.25,56.06 95.64,56.02 96.04,55.99 96.43,55.98 96.82,55.97 97.22,55.96 97.61,55.95 98,55.92 98.4,55.87 98.79,55.82 99.18,55.76 99.58,55.71 99.97,55.68 100.36,55.68 100.75,55.68 101.15,55.67 101.54,55.66 101.93,55.65 102.33,55.64 102.72,55.62 103.11,55.61 103.51,55.6 103.9,55.59 104.29,55.57 104.69,55.57 105.08,55.55 105.47,55.49 105.87,55.42 106.26,55.37 106.65,55.35 107.05,55.36 107.44,55.39 107.83,55.41 108.23,55.41 108.62,55.4 109.01,55.38 109.4,55.35 109.8,55.33 110.19,55.32 110.58,55.3 110.98,55.27 111.37,55.25 111.76,55.24 112.16,55.25 112.55,55.27 112.94,55.28 113.34,55.29 113.73,55.3 114.12,55.29 114.52,55.27 114.91,55.26 115.3,55.25 115.7,55.24 116.09,55.21 116.48,55.17 116.88,55.15 117.27,55.15 117.66,55.16 118.05,55.17 118.45,55.18 118.84,55.19 119.23,55.17 119.63,55.14 120.02,55.11 120.41,55.09 120.81,55.08 121.2,55.06 121.59,55.05 121.99,55.07 122.38,55.09 122.77,55.09 123.17,55.08 123.56,55.07 123.95,55.06 124.35,55.06 124.74,55.04 125.13,55.03 125.53,55.03 125.92,55.03 126.31,55.01 126.7,55 127.1,55 127.49,55.01 127.88,55.02 128.28,55.02 128.67,55.02 129.06,55.01 129.46,54.99 129.85,54.96 130.24,54.95 130.64,54.93 131.03,54.92 131.42,54.92 131.82,54.92 132.21,54.94 132.6,54.94 133,54.93 133.39,54.91 133.78,54.89 134.18,54.88 134.57,54.88 134.96,54.89 135.35,54.89 135.75,54.92 136.14,54.94 136.53,54.94 136.93,54.94 137.32,54.92 137.71,54.88 138.11,54.84 138.5,54.84 138.89,54.85 139.29,54.87 139.68,54.87 140.07,54.86 140.47,54.84 140.86,54.83 141.25,54.83 141.65,54.84 142.04,54.85 142.43,54.86 142.82,54.85 143.22,54.83 143.61,54.82 144,54.82 144.4,54.82 144.79,54.82 145.18,54.82 145.58,54.81 145.97,54.79 146.36,54.79 146.76,54.79 147.15,54.79 147.54,54.79 147.94,54.79 148.33,54.79 148.72,54.78 149.12,54.78 149.51,54.78 149.9,54.78 150.3,54.78 150.69,54.78 151.08,54.79 151.47,54.78 151.87,54.76 152.26,54.75 152.65,54.75 153.05,54.76 153.44,54.76 153.83,54.75 154.23,54.74 154.62,54.73 155.01,54.72 155.41,54.73 155.8,54.74 156.19,54.75 156.59,54.74 156.98,54.74 157.37,54.73 157.77,54.72 158.16,54.72 158.55,54.73 158.95,54.72 159.34,54.73 159.73,54.73 160.12,54.74 160.52,54.73 160.91,54.72 161.3,54.71 161.7,54.71 162.09,54.7 162.48,54.7 162.88,54.7 163.27,54.7 163.66,54.69 164.06,54.7 164.45,54.71 164.84,54.71 165.24,54.7 165.63,54.69 166.02,54.69 166.42,54.7 166.81,54.72 167.2,54.72 167.6,54.72 167.99,54.71 168.38,54.7 168.77,54.69 169.17,54.68 169.56,54.67 169.95,54.67 170.35,54.67 170.74,54.68 171.13,54.68 171.53,54.68 171.92,54.67 172.31,54.66 172.71,54.66 173.1,54.67 173.49,54.68 173.89,54.69 174.28,54.68 174.67,54.67 175.07,54.67 175.46,54.68 175.85,54.67 176.25,54.67 176.64,54.66 177.03,54.66 177.42,54.66 177.82,54.65 178.21,54.64 178.6,54.63 179,54.63 179.39,54.64 179.78,54.65 180.18,54.66 180.57,54.66 180.96,54.66 181.36,54.66 181.75,54.66 182.14,54.66 182.54,54.66 182.93,54.66 183.32,54.67 183.72,54.67 184.11,54.66 184.5,54.65 184.9,54.65 185.29,54.65 185.68,54.65 186.07,54.65 186.47,54.66 186.86,54.66 187.25,54.66 187.65,54.66 188.04,54.65 188.43,54.65 188.83,54.64 189.22,54.64 189.61,54.64 190.01,54.63 190.4,54.62 190.79,54.61 191.19,54.62 191.58,54.62 191.97,54.62 192.37,54.62 192.76,54.62 193.15,54.63 193.55,54.64 193.94,54.64 194.33,54.63 194.72,54.63 195.12,54.63 195.51,54.63 195.9,54.63 196.3,54.62 196.69,54.62 197.08,54.62 197.48,54.62 197.87,54.62 198.26,54.62 198.66,54.62 199.05,54.63 199.44,54.62 199.84,54.62 200.23,54.62 200.62,54.62 201.02,54.62 201.41,54.62 201.8,54.63 202.19,54.63 202.59,54.63 202.98,54.62 203.37,54.62 203.77,54.62 204.16,54.61 204.55,54.6 204.95,54.6 205.34,54.6 205.73,54.61 206.13,54.61 206.52,54.61 206.91,54.61 207.31,54.62 207.7,54.61 208.09,54.61 208.49,54.61 208.88,54.61 209.27,54.62 209.67,54.62 210.06,54.61 210.45,54.61 210.84,54.6 211.24,54.6 211.63,54.6 212.02,54.59 212.42,54.59 212.81,54.59 213.2,54.59 213.6,54.59 213.99,54.6 214.38,54.6 214.78,54.59 215.17,54.59 215.56,54.59 215.96,54.59 216.35,54.59 216.74,54.59 217.14,54.58 217.53,54.58 217.92,54.59 218.32,54.59 218.71,54.6 219.1,54.59 219.49,54.59 219.89,54.58 220.28,54.58 220.67,54.58 221.07,54.58 221.46,54.58 221.85,54.58 222.25,54.58 222.64,54.59 223.03,54.58 223.43,54.58 223.82,54.58 224.21,54.58 224.61,54.58 225,54.58 225.39,54.58 225.79,54.58 226.18,54.58 226.57,54.58 226.97,54.58 227.36,54.59 227.75,54.59 228.14,54.58 228.54,54.57 228.93,54.56 229.32,54.56 229.72,54.57 230.11,54.58 230.5,54.59 230.9,54.59 231.29,54.58 231.68,54.58 232.08,54.58 232.47,54.58 232.86,54.58 233.26,54.57 233.65,54.57 234.04,54.57 234.44,54.58 234.83,54.58 235.22,54.57 235.62,54.56 236.01,54.56 236.4,54.56 236.79,54.57 237.19,54.58 237.58,54.58 237.97,54.58 238.37,54.57 238.76,54.57 239.15,54.57 239.55,54.57 239.94,54.57 240.33,54.57 240.73,54.56 241.12,54.56 241.51,54.56 241.91,54.56 242.3,54.56 242.69,54.56 243.09,54.56 243.48,54.55 243.87,54.55 244.27,54.56 244.66,54.56 245.05,54.56 245.44,54.56 245.84,54.56 246.23,54.56 246.62,54.56 247.02,54.56 247.41,54.56 247.8,54.56 248.2,54.56 248.59,54.56 248.98,54.56 249.38,54.56 249.77,54.56 250.16,54.56 250.56,54.56 250.95,54.56 251.34,54.57 251.74,54.57 252.13,54.57 252.52,54.56 252.92,54.56 253.31,54.56 253.7,54.56 254.09,54.56 254.49,54.56 254.88,54.56 255.27,54.55 255.67,54.56 256.06,54.56 256.45,54.56 256.85,54.56 257.24,54.56 257.63,54.57 258.03,54.57 258.42,54.57 258.81,54.57 259.21,54.56 259.6,54.54 259.99,54.51 260.39,54.5 260.78,54.5" stroke-dasharray="none" stroke="rgb(55,126,184)" stroke-width="0.75" opacity="1" stroke-opacity="1" fill="none"/>
          </g>
          <g id="Fig:densplot_01.xyplot.lines.group.8.panel.1.1.1">
            <polyline id="Fig:densplot_01.xyplot.lines.group.8.panel.1.1.1.1" points="59,54.55 59.4,54.74 59.79,55.51 60.19,57.94 60.59,63.99 60.98,75.88 61.38,94.16 61.78,115.79 62.18,134.55 62.57,144.41 62.97,143.29 63.37,133.85 63.76,120.95 64.16,108.66 64.56,98.87 64.95,91.74 65.35,86.64 65.75,82.85 66.14,79.88 66.54,77.43 66.94,75.35 67.33,73.55 67.73,72 68.13,70.65 68.53,69.47 68.92,68.44 69.32,67.52 69.72,66.69 70.11,65.94 70.51,65.25 70.91,64.61 71.3,64.03 71.7,63.5 72.1,63.05 72.49,62.66 72.89,62.31 73.29,61.99 73.68,61.68 74.08,61.4 74.48,61.14 74.88,60.91 75.27,60.71 75.67,60.52 76.07,60.32 76.46,60.13 76.86,59.94 77.26,59.75 77.65,59.58 78.05,59.41 78.45,59.25 78.84,59.1 79.24,58.95 79.64,58.82 80.03,58.71 80.43,58.63 80.83,58.56 81.23,58.48 81.62,58.39 82.02,58.29 82.42,58.18 82.81,58.09 83.21,58.01 83.61,57.94 84,57.88 84.4,57.83 84.8,57.78 85.19,57.74 85.59,57.69 85.99,57.65 86.38,57.61 86.78,57.57 87.18,57.52 87.58,57.46 87.97,57.41 88.37,57.35 88.77,57.29 89.16,57.24 89.56,57.18 89.96,57.13 90.35,57.07 90.75,57.02 91.15,56.98 91.54,56.92 91.94,56.87 92.34,56.81 92.73,56.77 93.13,56.74 93.53,56.72 93.93,56.7 94.32,56.68 94.72,56.66 95.12,56.63 95.51,56.6 95.91,56.57 96.31,56.54 96.7,56.5 97.1,56.48 97.5,56.45 97.89,56.42 98.29,56.39 98.69,56.35 99.08,56.31 99.48,56.28 99.88,56.26 100.28,56.25 100.67,56.24 101.07,56.24 101.47,56.22 101.86,56.21 102.26,56.19 102.66,56.18 103.05,56.15 103.45,56.12 103.85,56.09 104.24,56.06 104.64,56.03 105.04,56.01 105.43,56 105.83,55.99 106.23,55.99 106.63,55.98 107.02,55.97 107.42,55.95 107.82,55.94 108.21,55.93 108.61,55.92 109.01,55.9 109.4,55.86 109.8,55.82 110.2,55.78 110.59,55.75 110.99,55.74 111.39,55.74 111.78,55.74 112.18,55.72 112.58,55.7 112.98,55.67 113.37,55.66 113.77,55.65 114.17,55.65 114.56,55.65 114.96,55.65 115.36,55.65 115.75,55.64 116.15,55.63 116.55,55.62 116.94,55.6 117.34,55.58 117.74,55.57 118.13,55.56 118.53,55.54 118.93,55.53 119.33,55.52 119.72,55.52 120.12,55.52 120.52,55.52 120.91,55.51 121.31,55.5 121.71,55.49 122.1,55.47 122.5,55.44 122.9,55.42 123.29,55.4 123.69,55.39 124.09,55.39 124.48,55.4 124.88,55.4 125.28,55.39 125.68,55.38 126.07,55.36 126.47,55.34 126.87,55.33 127.26,55.32 127.66,55.31 128.06,55.3 128.45,55.29 128.85,55.29 129.25,55.28 129.64,55.27 130.04,55.26 130.44,55.25 130.83,55.24 131.23,55.24 131.63,55.23 132.03,55.24 132.42,55.25 132.82,55.26 133.22,55.27 133.61,55.27 134.01,55.26 134.41,55.26 134.8,55.25 135.2,55.24 135.6,55.24 135.99,55.23 136.39,55.21 136.79,55.2 137.18,55.18 137.58,55.17 137.98,55.15 138.38,55.14 138.77,55.13 139.17,55.13 139.57,55.12 139.96,55.12 140.36,55.11 140.76,55.11 141.15,55.1 141.55,55.09 141.95,55.08 142.34,55.08 142.74,55.08 143.14,55.08 143.53,55.08 143.93,55.08 144.33,55.07 144.73,55.06 145.12,55.06 145.52,55.05 145.92,55.04 146.31,55.04 146.71,55.04 147.11,55.04 147.5,55.04 147.9,55.04 148.3,55.04 148.69,55.04 149.09,55.03 149.49,55.02 149.88,55.01 150.28,55 150.68,54.99 151.08,54.98 151.47,54.97 151.87,54.96 152.27,54.96 152.66,54.97 153.06,54.98 153.46,54.99 153.85,54.99 154.25,54.99 154.65,54.99 155.04,54.99 155.44,54.99 155.84,54.99 156.23,54.99 156.63,54.99 157.03,54.98 157.43,54.96 157.82,54.95 158.22,54.94 158.62,54.94 159.01,54.94 159.41,54.94 159.81,54.93 160.2,54.93 160.6,54.93 161,54.92 161.39,54.92 161.79,54.92 162.19,54.92 162.58,54.91 162.98,54.92 163.38,54.92 163.78,54.91 164.17,54.91 164.57,54.9 164.97,54.89 165.36,54.88 165.76,54.88 166.16,54.89 166.55,54.88 166.95,54.88 167.35,54.88 167.74,54.88 168.14,54.88 168.54,54.88 168.93,54.89 169.33,54.89 169.73,54.9 170.13,54.89 170.52,54.88 170.92,54.87 171.32,54.85 171.71,54.84 172.11,54.83 172.51,54.83 172.9,54.83 173.3,54.83 173.7,54.83 174.09,54.83 174.49,54.83 174.89,54.83 175.28,54.83 175.68,54.83 176.08,54.82 176.48,54.82 176.87,54.82 177.27,54.82 177.67,54.83 178.06,54.84 178.46,54.84 178.86,54.85 179.25,54.84 179.65,54.83 180.05,54.81 180.44,54.8 180.84,54.79 181.24,54.78 181.63,54.79 182.03,54.79 182.43,54.79 182.83,54.8 183.22,54.8 183.62,54.8 184.02,54.8 184.41,54.8 184.81,54.79 185.21,54.78 185.6,54.77 186,54.77 186.4,54.76 186.79,54.76 187.19,54.76 187.59,54.76 187.98,54.76 188.38,54.76 188.78,54.76 189.18,54.76 189.57,54.76 189.97,54.75 190.37,54.74 190.76,54.74 191.16,54.74 191.56,54.74 191.95,54.74 192.35,54.73 192.75,54.73 193.14,54.72 193.54,54.72 193.94,54.71 194.33,54.72 194.73,54.72 195.13,54.73 195.53,54.74 195.92,54.75 196.32,54.75 196.72,54.75 197.11,54.75 197.51,54.74 197.91,54.74 198.3,54.73 198.7,54.73 199.1,54.73 199.49,54.72 199.89,54.72 200.29,54.72 200.68,54.72 201.08,54.72 201.48,54.72 201.88,54.72 202.27,54.71 202.67,54.71 203.07,54.71 203.46,54.71 203.86,54.71 204.26,54.71 204.65,54.71 205.05,54.71 205.45,54.71 205.84,54.71 206.24,54.71 206.64,54.72 207.03,54.72 207.43,54.72 207.83,54.72 208.23,54.72 208.62,54.72 209.02,54.72 209.42,54.71 209.81,54.71 210.21,54.7 210.61,54.69 211,54.69 211.4,54.69 211.8,54.69 212.19,54.69 212.59,54.69 212.99,54.68 213.38,54.68 213.78,54.67 214.18,54.67 214.58,54.67 214.97,54.67 215.37,54.68 215.77,54.69 216.16,54.69 216.56,54.7 216.96,54.69 217.35,54.68 217.75,54.67 218.15,54.66 218.54,54.66 218.94,54.66 219.34,54.66 219.73,54.67 220.13,54.67 220.53,54.67 220.93,54.68 221.32,54.68 221.72,54.68 222.12,54.68 222.51,54.68 222.91,54.67 223.31,54.66 223.7,54.66 224.1,54.65 224.5,54.65 224.89,54.66 225.29,54.66 225.69,54.67 226.08,54.67 226.48,54.67 226.88,54.67 227.28,54.67 227.67,54.66 228.07,54.66 228.47,54.65 228.86,54.65 229.26,54.65 229.66,54.65 230.05,54.65 230.45,54.65 230.85,54.65 231.24,54.65 231.64,54.64 232.04,54.64 232.43,54.64 232.83,54.64 233.23,54.64 233.63,54.64 234.02,54.65 234.42,54.65 234.82,54.65 235.21,54.64 235.61,54.64 236.01,54.63 236.4,54.63 236.8,54.62 237.2,54.62 237.59,54.63 237.99,54.63 238.39,54.63 238.78,54.63 239.18,54.63 239.58,54.63 239.98,54.63 240.37,54.64 240.77,54.64 241.17,54.65 241.56,54.65 241.96,54.65 242.36,54.65 242.75,54.65 243.15,54.65 243.55,54.64 243.94,54.64 244.34,54.63 244.74,54.63 245.13,54.62 245.53,54.62 245.93,54.62 246.33,54.62 246.72,54.62 247.12,54.62 247.52,54.62 247.91,54.62 248.31,54.62 248.71,54.62 249.1,54.62 249.5,54.62 249.9,54.62 250.29,54.62 250.69,54.62 251.09,54.62 251.48,54.62 251.88,54.62 252.28,54.62 252.68,54.63 253.07,54.63 253.47,54.63 253.87,54.62 254.26,54.62 254.66,54.62 255.06,54.61 255.45,54.61 255.85,54.61 256.25,54.61 256.64,54.62 257.04,54.62 257.44,54.62 257.83,54.62 258.23,54.61 258.63,54.6 259.03,54.58 259.42,54.56 259.82,54.54 260.22,54.52 260.61,54.51 261.01,54.5 261.41,54.5 261.8,54.5" stroke-dasharray="none" stroke="rgb(55,126,184)" stroke-width="0.75" opacity="1" stroke-opacity="1" fill="none"/>
          </g>
          <g id="Fig:densplot_01.xyplot.lines.group.9.panel.1.1.1">
            <polyline id="Fig:densplot_01.xyplot.lines.group.9.panel.1.1.1.1" points="59.83,54.57 60.22,55.12 60.62,58.24 61.01,69.9 61.4,98.61 61.8,143.32 62.19,181.93 62.58,189 62.98,166.35 63.37,136.37 63.77,114.17 64.16,101.01 64.55,93.28 64.95,88.25 65.34,84.54 65.73,81.41 66.13,78.6 66.52,76.22 66.91,74.24 67.31,72.55 67.7,71.12 68.1,69.93 68.49,68.87 68.88,67.85 69.28,66.88 69.67,66.04 70.06,65.35 70.46,64.79 70.85,64.3 71.24,63.81 71.64,63.32 72.03,62.84 72.43,62.42 72.82,62.08 73.21,61.79 73.61,61.55 74,61.34 74.39,61.12 74.79,60.86 75.18,60.58 75.57,60.31 75.97,60.06 76.36,59.84 76.76,59.66 77.15,59.5 77.54,59.33 77.94,59.14 78.33,58.98 78.72,58.85 79.12,58.72 79.51,58.6 79.9,58.48 80.3,58.39 80.69,58.35 81.09,58.32 81.48,58.24 81.87,58.11 82.27,57.99 82.66,57.9 83.05,57.83 83.45,57.78 83.84,57.73 84.23,57.66 84.63,57.57 85.02,57.49 85.42,57.44 85.81,57.37 86.2,57.28 86.6,57.19 86.99,57.11 87.38,57.04 87.78,56.99 88.17,56.96 88.56,56.95 88.96,56.91 89.35,56.83 89.75,56.72 90.14,56.64 90.53,56.62 90.93,56.63 91.32,56.64 91.71,56.64 92.11,56.61 92.5,56.57 92.89,56.51 93.29,56.44 93.68,56.39 94.08,56.38 94.47,56.38 94.86,56.37 95.26,56.36 95.65,56.31 96.04,56.26 96.44,56.19 96.83,56.13 97.22,56.07 97.62,56.03 98.01,55.99 98.41,55.95 98.8,55.93 99.19,55.9 99.59,55.87 99.98,55.85 100.37,55.84 100.77,55.84 101.16,55.81 101.55,55.78 101.95,55.77 102.34,55.75 102.74,55.74 103.13,55.73 103.52,55.74 103.92,55.74 104.31,55.72 104.7,55.69 105.1,55.67 105.49,55.66 105.88,55.65 106.28,55.63 106.67,55.61 107.07,55.62 107.46,55.62 107.85,55.59 108.25,55.54 108.64,55.49 109.03,55.46 109.43,55.44 109.82,55.43 110.21,55.41 110.61,55.39 111,55.38 111.39,55.37 111.79,55.37 112.18,55.37 112.58,55.36 112.97,55.36 113.36,55.37 113.76,55.38 114.15,55.39 114.54,55.38 114.94,55.36 115.33,55.33 115.72,55.3 116.12,55.27 116.51,55.24 116.91,55.22 117.3,55.22 117.69,55.24 118.09,55.24 118.48,55.23 118.87,55.2 119.27,55.18 119.66,55.18 120.05,55.17 120.45,55.17 120.84,55.16 121.24,55.17 121.63,55.19 122.02,55.2 122.42,55.18 122.81,55.15 123.2,55.11 123.6,55.09 123.99,55.08 124.38,55.08 124.78,55.08 125.17,55.06 125.57,55.04 125.96,55.03 126.35,55.04 126.75,55.05 127.14,55.06 127.53,55.06 127.93,55.05 128.32,55.04 128.71,55.04 129.11,55.04 129.5,55.04 129.9,55.03 130.29,55.02 130.68,55.01 131.08,55 131.47,55 131.86,54.99 132.26,54.99 132.65,54.99 133.04,54.99 133.44,54.99 133.83,54.99 134.23,54.99 134.62,54.98 135.01,54.96 135.41,54.95 135.8,54.93 136.19,54.91 136.59,54.89 136.98,54.89 137.37,54.89 137.77,54.9 138.16,54.91 138.56,54.92 138.95,54.92 139.34,54.92 139.74,54.92 140.13,54.92 140.52,54.91 140.92,54.9 141.31,54.89 141.7,54.89 142.1,54.89 142.49,54.89 142.89,54.87 143.28,54.85 143.67,54.83 144.07,54.81 144.46,54.82 144.85,54.83 145.25,54.83 145.64,54.83 146.03,54.82 146.43,54.82 146.82,54.82 147.22,54.83 147.61,54.84 148,54.85 148.4,54.84 148.79,54.84 149.18,54.84 149.58,54.84 149.97,54.83 150.36,54.83 150.76,54.81 151.15,54.8 151.55,54.78 151.94,54.77 152.33,54.77 152.73,54.77 153.12,54.77 153.51,54.78 153.91,54.78 154.3,54.78 154.69,54.78 155.09,54.77 155.48,54.77 155.88,54.77 156.27,54.78 156.66,54.8 157.06,54.8 157.45,54.78 157.84,54.77 158.24,54.76 158.63,54.76 159.02,54.75 159.42,54.75 159.81,54.75 160.21,54.74 160.6,54.74 160.99,54.74 161.39,54.74 161.78,54.74 162.17,54.73 162.57,54.73 162.96,54.73 163.35,54.73 163.75,54.74 164.14,54.75 164.54,54.75 164.93,54.75 165.32,54.74 165.72,54.72 166.11,54.71 166.5,54.71 166.9,54.71 167.29,54.71 167.68,54.7 168.08,54.7 168.47,54.71 168.86,54.71 169.26,54.72 169.65,54.72 170.05,54.72 170.44,54.71 170.83,54.71 171.23,54.69 171.62,54.69 172.01,54.68 172.41,54.69 172.8,54.69 173.19,54.69 173.59,54.69 173.98,54.69 174.38,54.68 174.77,54.68 175.16,54.68 175.56,54.68 175.95,54.68 176.34,54.67 176.74,54.67 177.13,54.66 177.52,54.66 177.92,54.66 178.31,54.66 178.71,54.67 179.1,54.68 179.49,54.68 179.89,54.68 180.28,54.68 180.67,54.67 181.07,54.67 181.46,54.66 181.85,54.67 182.25,54.67 182.64,54.68 183.04,54.68 183.43,54.67 183.82,54.67 184.22,54.66 184.61,54.65 185,54.64 185.4,54.64 185.79,54.65 186.18,54.65 186.58,54.65 186.97,54.65 187.37,54.66 187.76,54.66 188.15,54.65 188.55,54.64 188.94,54.64 189.33,54.64 189.73,54.64 190.12,54.64 190.51,54.65 190.91,54.64 191.3,54.64 191.7,54.63 192.09,54.62 192.48,54.62 192.88,54.62 193.27,54.62 193.66,54.62 194.06,54.61 194.45,54.61 194.84,54.61 195.24,54.61 195.63,54.62 196.03,54.63 196.42,54.62 196.81,54.62 197.21,54.61 197.6,54.61 197.99,54.61 198.39,54.61 198.78,54.61 199.17,54.62 199.57,54.62 199.96,54.62 200.36,54.62 200.75,54.62 201.14,54.63 201.54,54.63 201.93,54.64 202.32,54.64 202.72,54.64 203.11,54.64 203.5,54.64 203.9,54.64 204.29,54.64 204.69,54.64 205.08,54.63 205.47,54.62 205.87,54.62 206.26,54.62 206.65,54.62 207.05,54.62 207.44,54.62 207.83,54.62 208.23,54.61 208.62,54.61 209.02,54.6 209.41,54.6 209.8,54.59 210.2,54.59 210.59,54.61 210.98,54.62 211.38,54.64 211.77,54.64 212.16,54.63 212.56,54.62 212.95,54.61 213.35,54.59 213.74,54.59 214.13,54.58 214.53,54.58 214.92,54.59 215.31,54.6 215.71,54.6 216.1,54.6 216.49,54.6 216.89,54.61 217.28,54.62 217.68,54.61 218.07,54.6 218.46,54.59 218.86,54.59 219.25,54.6 219.64,54.6 220.04,54.61 220.43,54.61 220.82,54.6 221.22,54.6 221.61,54.59 222.01,54.58 222.4,54.58 222.79,54.58 223.19,54.58 223.58,54.59 223.97,54.6 224.37,54.6 224.76,54.6 225.15,54.59 225.55,54.59 225.94,54.59 226.33,54.58 226.73,54.58 227.12,54.58 227.52,54.58 227.91,54.58 228.3,54.58 228.7,54.59 229.09,54.59 229.48,54.59 229.88,54.59 230.27,54.59 230.66,54.59 231.06,54.59 231.45,54.59 231.85,54.58 232.24,54.57 232.63,54.57 233.03,54.57 233.42,54.57 233.81,54.58 234.21,54.58 234.6,54.59 234.99,54.59 235.39,54.58 235.78,54.58 236.18,54.58 236.57,54.58 236.96,54.59 237.36,54.59 237.75,54.59 238.14,54.59 238.54,54.58 238.93,54.57 239.32,54.57 239.72,54.58 240.11,54.58 240.51,54.57 240.9,54.57 241.29,54.57 241.69,54.57 242.08,54.56 242.47,54.56 242.87,54.57 243.26,54.57 243.65,54.57 244.05,54.56 244.44,54.56 244.84,54.56 245.23,54.56 245.62,54.56 246.02,54.56 246.41,54.56 246.8,54.57 247.2,54.57 247.59,54.57 247.98,54.57 248.38,54.57 248.77,54.57 249.17,54.57 249.56,54.58 249.95,54.58 250.35,54.58 250.74,54.57 251.13,54.56 251.53,54.56 251.92,54.57 252.31,54.58 252.71,54.58 253.1,54.57 253.5,54.57 253.89,54.57 254.28,54.56 254.68,54.55 255.07,54.55 255.46,54.55 255.86,54.55 256.25,54.55 256.64,54.55 257.04,54.55 257.43,54.55 257.83,54.55 258.22,54.56 258.61,54.56 259.01,54.55 259.4,54.53 259.79,54.52 260.19,54.51 260.58,54.5 260.97,54.5" stroke-dasharray="none" stroke="rgb(77,175,74)" stroke-width="0.75" opacity="1" stroke-opacity="1" fill="none"/>
          </g>
          <g id="Fig:densplot_01.xyplot.lines.group.10.panel.1.1.1">
            <polyline id="Fig:densplot_01.xyplot.lines.group.10.panel.1.1.1.1" points="60.1,54.58 60.49,56.07 60.89,68.86 61.28,118.21 61.67,195.85 62.06,230.4 62.45,199.43 62.85,151.57 63.24,119.86 63.63,103.5 64.02,94.67 64.42,89.22 64.81,85.58 65.2,82.89 65.59,80.51 65.98,78.26 66.38,76.34 66.77,74.77 67.16,73.31 67.55,71.91 67.95,70.7 68.34,69.64 68.73,68.68 69.12,67.77 69.51,66.91 69.91,66.16 70.3,65.53 70.69,64.96 71.08,64.37 71.48,63.76 71.87,63.24 72.26,62.89 72.65,62.6 73.05,62.27 73.44,61.91 73.83,61.56 74.22,61.23 74.61,60.92 75.01,60.62 75.4,60.38 75.79,60.14 76.18,59.87 76.58,59.67 76.97,59.48 77.36,59.21 77.75,58.97 78.14,58.83 78.54,58.75 78.93,58.61 79.32,58.43 79.71,58.26 80.11,58.18 80.5,58.1 80.89,57.94 81.28,57.74 81.67,57.59 82.07,57.46 82.46,57.36 82.85,57.31 83.24,57.28 83.64,57.22 84.03,57.12 84.42,57.05 84.81,57 85.2,56.9 85.6,56.77 85.99,56.72 86.38,56.72 86.77,56.7 87.17,56.66 87.56,56.56 87.95,56.44 88.34,56.37 88.74,56.32 89.13,56.26 89.52,56.2 89.91,56.12 90.3,56.07 90.7,56.08 91.09,56.08 91.48,56.05 91.87,56.02 92.27,55.99 92.66,55.96 93.05,55.92 93.44,55.9 93.83,55.88 94.23,55.88 94.62,55.88 95.01,55.87 95.4,55.82 95.8,55.74 96.19,55.69 96.58,55.65 96.97,55.62 97.36,55.6 97.76,55.57 98.15,55.54 98.54,55.52 98.93,55.51 99.33,55.49 99.72,55.49 100.11,55.49 100.5,55.46 100.9,55.41 101.29,55.36 101.68,55.34 102.07,55.34 102.46,55.35 102.86,55.33 103.25,55.31 103.64,55.31 104.03,55.31 104.43,55.3 104.82,55.27 105.21,55.24 105.6,55.22 105.99,55.2 106.39,55.19 106.78,55.18 107.17,55.16 107.56,55.16 107.96,55.17 108.35,55.14 108.74,55.12 109.13,55.14 109.52,55.15 109.92,55.11 110.31,55.06 110.7,55.04 111.09,55.06 111.49,55.1 111.88,55.11 112.27,55.08 112.66,55.05 113.05,55.03 113.45,55.03 113.84,55.04 114.23,55.04 114.62,55.03 115.02,55.01 115.41,54.99 115.8,54.97 116.19,54.97 116.59,54.97 116.98,54.96 117.37,54.95 117.76,54.95 118.15,54.94 118.55,54.93 118.94,54.91 119.33,54.9 119.72,54.9 120.12,54.88 120.51,54.88 120.9,54.89 121.29,54.9 121.68,54.9 122.08,54.88 122.47,54.87 122.86,54.85 123.25,54.85 123.65,54.85 124.04,54.85 124.43,54.85 124.82,54.85 125.21,54.84 125.61,54.82 126,54.81 126.39,54.82 126.78,54.84 127.18,54.84 127.57,54.83 127.96,54.83 128.35,54.83 128.75,54.82 129.14,54.8 129.53,54.79 129.92,54.79 130.31,54.78 130.71,54.77 131.1,54.77 131.49,54.79 131.88,54.8 132.28,54.79 132.67,54.79 133.06,54.78 133.45,54.77 133.84,54.77 134.24,54.78 134.63,54.8 135.02,54.81 135.41,54.79 135.81,54.77 136.2,54.75 136.59,54.73 136.98,54.73 137.37,54.75 137.77,54.76 138.16,54.74 138.55,54.71 138.94,54.7 139.34,54.71 139.73,54.72 140.12,54.71 140.51,54.7 140.9,54.7 141.3,54.7 141.69,54.7 142.08,54.71 142.47,54.71 142.87,54.72 143.26,54.71 143.65,54.7 144.04,54.68 144.44,54.68 144.83,54.68 145.22,54.68 145.61,54.67 146,54.68 146.4,54.68 146.79,54.68 147.18,54.68 147.57,54.67 147.97,54.67 148.36,54.66 148.75,54.66 149.14,54.66 149.53,54.67 149.93,54.68 150.32,54.69 150.71,54.69 151.1,54.67 151.5,54.66 151.89,54.65 152.28,54.66 152.67,54.67 153.06,54.67 153.46,54.66 153.85,54.66 154.24,54.65 154.63,54.64 155.03,54.63 155.42,54.64 155.81,54.65 156.2,54.65 156.6,54.65 156.99,54.64 157.38,54.63 157.77,54.62 158.16,54.62 158.56,54.63 158.95,54.65 159.34,54.66 159.73,54.64 160.13,54.64 160.52,54.63 160.91,54.63 161.3,54.63 161.69,54.63 162.09,54.63 162.48,54.63 162.87,54.63 163.26,54.63 163.66,54.64 164.05,54.64 164.44,54.63 164.83,54.62 165.22,54.62 165.62,54.61 166.01,54.6 166.4,54.6 166.79,54.6 167.19,54.6 167.58,54.6 167.97,54.62 168.36,54.63 168.75,54.64 169.15,54.64 169.54,54.64 169.93,54.63 170.32,54.62 170.72,54.6 171.11,54.59 171.5,54.58 171.89,54.57 172.29,54.57 172.68,54.58 173.07,54.59 173.46,54.6 173.85,54.59 174.25,54.59 174.64,54.6 175.03,54.6 175.42,54.6 175.82,54.61 176.21,54.61 176.6,54.61 176.99,54.6 177.38,54.59 177.78,54.58 178.17,54.58 178.56,54.58 178.95,54.58 179.35,54.57 179.74,54.58 180.13,54.57 180.52,54.57 180.91,54.57 181.31,54.58 181.7,54.59 182.09,54.59 182.48,54.57 182.88,54.57 183.27,54.58 183.66,54.59 184.05,54.58 184.44,54.58 184.84,54.59 185.23,54.6 185.62,54.59 186.01,54.58 186.41,54.57 186.8,54.57 187.19,54.57 187.58,54.58 187.98,54.58 188.37,54.57 188.76,54.57 189.15,54.57 189.54,54.57 189.94,54.57 190.33,54.57 190.72,54.57 191.11,54.57 191.51,54.57 191.9,54.57 192.29,54.57 192.68,54.56 193.07,54.56 193.47,54.57 193.86,54.57 194.25,54.58 194.64,54.58 195.04,54.57 195.43,54.57 195.82,54.56 196.21,54.56 196.6,54.56 197,54.56 197.39,54.57 197.78,54.58 198.17,54.57 198.57,54.56 198.96,54.56 199.35,54.55 199.74,54.55 200.14,54.55 200.53,54.56 200.92,54.57 201.31,54.57 201.7,54.57 202.1,54.57 202.49,54.56 202.88,54.56 203.27,54.55 203.67,54.56 204.06,54.56 204.45,54.56 204.84,54.56 205.23,54.56 205.63,54.56 206.02,54.55 206.41,54.55 206.8,54.55 207.2,54.56 207.59,54.57 207.98,54.57 208.37,54.56 208.76,54.55 209.16,54.55 209.55,54.55 209.94,54.55 210.33,54.54 210.73,54.55 211.12,54.55 211.51,54.56 211.9,54.56 212.29,54.56 212.69,54.56 213.08,54.55 213.47,54.55 213.86,54.55 214.26,54.56 214.65,54.56 215.04,54.55 215.43,54.55 215.83,54.55 216.22,54.55 216.61,54.55 217,54.55 217.39,54.55 217.79,54.55 218.18,54.55 218.57,54.55 218.96,54.54 219.36,54.53 219.75,54.53 220.14,54.53 220.53,54.53 220.92,54.53 221.32,54.54 221.71,54.54 222.1,54.54 222.49,54.54 222.89,54.54 223.28,54.54 223.67,54.54 224.06,54.54 224.45,54.54 224.85,54.53 225.24,54.54 225.63,54.55 226.02,54.55 226.42,54.55 226.81,54.55 227.2,54.55 227.59,54.55 227.99,54.54 228.38,54.53 228.77,54.53 229.16,54.53 229.55,54.54 229.95,54.54 230.34,54.54 230.73,54.54 231.12,54.54 231.52,54.54 231.91,54.54 232.3,54.54 232.69,54.53 233.08,54.53 233.48,54.53 233.87,54.54 234.26,54.54 234.65,54.54 235.05,54.53 235.44,54.53 235.83,54.53 236.22,54.53 236.61,54.53 237.01,54.53 237.4,54.53 237.79,54.53 238.18,54.54 238.58,54.54 238.97,54.54 239.36,54.55 239.75,54.54 240.14,54.54 240.54,54.54 240.93,54.54 241.32,54.54 241.71,54.54 242.11,54.54 242.5,54.54 242.89,54.54 243.28,54.54 243.68,54.54 244.07,54.53 244.46,54.53 244.85,54.52 245.24,54.52 245.64,54.53 246.03,54.53 246.42,54.53 246.81,54.54 247.21,54.53 247.6,54.53 247.99,54.52 248.38,54.52 248.77,54.52 249.17,54.53 249.56,54.53 249.95,54.53 250.34,54.53 250.74,54.53 251.13,54.53 251.52,54.52 251.91,54.53 252.3,54.53 252.7,54.54 253.09,54.54 253.48,54.53 253.87,54.53 254.27,54.52 254.66,54.52 255.05,54.52 255.44,54.52 255.84,54.53 256.23,54.53 256.62,54.52 257.01,54.52 257.4,54.52 257.8,54.52 258.19,54.53 258.58,54.52 258.97,54.52 259.37,54.52 259.76,54.51 260.15,54.5 260.54,54.5" stroke-dasharray="none" stroke="rgb(77,175,74)" stroke-width="0.75" opacity="1" stroke-opacity="1" fill="none"/>
          </g>
          <g id="Fig:densplot_01.xyplot.lines.group.11.panel.1.1.1">
            <polyline id="Fig:densplot_01.xyplot.lines.group.11.panel.1.1.1.1" points="59.7,54.63 60.1,55.34 60.49,58.45 60.89,68.4 61.28,91.26 61.67,127.49 62.07,163.93 62.46,180.39 62.86,169.76 63.25,144.23 63.65,120.13 64.04,103.8 64.44,94.03 64.83,87.99 65.22,83.83 65.62,80.67 66.01,78.12 66.41,75.98 66.8,74.11 67.2,72.43 67.59,70.95 67.99,69.68 68.38,68.58 68.77,67.6 69.17,66.72 69.56,65.92 69.96,65.18 70.35,64.52 70.75,63.94 71.14,63.42 71.54,62.97 71.93,62.59 72.32,62.29 72.72,62.04 73.11,61.79 73.51,61.53 73.9,61.26 74.3,61.01 74.69,60.77 75.09,60.52 75.48,60.28 75.87,60.08 76.27,59.91 76.66,59.77 77.06,59.64 77.45,59.5 77.85,59.35 78.24,59.18 78.64,58.99 79.03,58.79 79.42,58.63 79.82,58.49 80.21,58.39 80.61,58.34 81,58.31 81.4,58.26 81.79,58.17 82.19,58.06 82.58,57.97 82.97,57.91 83.37,57.86 83.76,57.84 84.16,57.83 84.55,57.79 84.95,57.7 85.34,57.58 85.74,57.45 86.13,57.35 86.52,57.3 86.92,57.27 87.31,57.26 87.71,57.22 88.1,57.18 88.5,57.12 88.89,57.06 89.29,56.99 89.68,56.91 90.07,56.83 90.47,56.77 90.86,56.75 91.26,56.76 91.65,56.75 92.05,56.72 92.44,56.66 92.84,56.61 93.23,56.58 93.62,56.56 94.02,56.55 94.41,56.54 94.81,56.53 95.2,56.51 95.6,56.46 95.99,56.4 96.39,56.35 96.78,56.32 97.17,56.33 97.57,56.35 97.96,56.34 98.36,56.29 98.75,56.23 99.15,56.18 99.54,56.15 99.94,56.14 100.33,56.13 100.72,56.11 101.12,56.09 101.51,56.06 101.91,56.03 102.3,56.01 102.7,55.99 103.09,55.97 103.49,55.95 103.88,55.93 104.27,55.92 104.67,55.9 105.06,55.88 105.46,55.85 105.85,55.82 106.25,55.79 106.64,55.76 107.04,55.74 107.43,55.71 107.82,55.68 108.22,55.65 108.61,55.64 109.01,55.64 109.4,55.65 109.8,55.64 110.19,55.62 110.59,55.6 110.98,55.58 111.37,55.55 111.77,55.52 112.16,55.5 112.56,55.5 112.95,55.52 113.35,55.53 113.74,55.53 114.14,55.51 114.53,55.49 114.92,55.48 115.32,55.46 115.71,55.45 116.11,55.43 116.5,55.43 116.9,55.43 117.29,55.42 117.69,55.41 118.08,55.38 118.47,55.35 118.87,55.34 119.26,55.33 119.66,55.33 120.05,55.33 120.45,55.34 120.84,55.33 121.24,55.31 121.63,55.29 122.02,55.27 122.42,55.25 122.81,55.24 123.21,55.24 123.6,55.25 124,55.26 124.39,55.28 124.79,55.28 125.18,55.27 125.57,55.24 125.97,55.21 126.36,55.18 126.76,55.15 127.15,55.14 127.55,55.14 127.94,55.14 128.34,55.14 128.73,55.14 129.12,55.15 129.52,55.15 129.91,55.14 130.31,55.13 130.7,55.11 131.1,55.1 131.49,55.09 131.89,55.09 132.28,55.09 132.67,55.08 133.07,55.06 133.46,55.04 133.86,55.02 134.25,55.01 134.65,55 135.04,54.99 135.44,55 135.83,55.01 136.22,55.01 136.62,55.02 137.01,55.01 137.41,55 137.8,54.99 138.2,54.99 138.59,54.99 138.99,54.99 139.38,54.99 139.77,54.98 140.17,54.97 140.56,54.96 140.96,54.95 141.35,54.94 141.75,54.94 142.14,54.95 142.54,54.95 142.93,54.93 143.32,54.91 143.72,54.89 144.11,54.88 144.51,54.89 144.9,54.9 145.3,54.92 145.69,54.93 146.09,54.92 146.48,54.92 146.87,54.91 147.27,54.92 147.66,54.92 148.06,54.92 148.45,54.91 148.85,54.9 149.24,54.88 149.64,54.87 150.03,54.87 150.42,54.88 150.82,54.88 151.21,54.87 151.61,54.87 152,54.87 152.4,54.86 152.79,54.86 153.19,54.85 153.58,54.84 153.97,54.84 154.37,54.83 154.76,54.83 155.16,54.83 155.55,54.83 155.95,54.84 156.34,54.84 156.74,54.84 157.13,54.84 157.52,54.84 157.92,54.83 158.31,54.83 158.71,54.83 159.1,54.84 159.5,54.84 159.89,54.84 160.29,54.84 160.68,54.83 161.07,54.82 161.47,54.81 161.86,54.8 162.26,54.8 162.65,54.8 163.05,54.8 163.44,54.8 163.84,54.79 164.23,54.78 164.62,54.78 165.02,54.78 165.41,54.78 165.81,54.77 166.2,54.76 166.6,54.76 166.99,54.76 167.39,54.76 167.78,54.76 168.17,54.76 168.57,54.75 168.96,54.75 169.36,54.76 169.75,54.77 170.15,54.77 170.54,54.78 170.94,54.77 171.33,54.77 171.72,54.75 172.12,54.74 172.51,54.73 172.91,54.73 173.3,54.73 173.7,54.72 174.09,54.72 174.49,54.72 174.88,54.72 175.27,54.72 175.67,54.73 176.06,54.73 176.46,54.73 176.85,54.73 177.25,54.73 177.64,54.72 178.04,54.71 178.43,54.71 178.82,54.71 179.22,54.7 179.61,54.69 180.01,54.69 180.4,54.69 180.8,54.7 181.19,54.7 181.59,54.7 181.98,54.69 182.37,54.68 182.77,54.69 183.16,54.69 183.56,54.7 183.95,54.71 184.35,54.71 184.74,54.71 185.14,54.71 185.53,54.71 185.92,54.72 186.32,54.72 186.71,54.72 187.11,54.71 187.5,54.7 187.9,54.7 188.29,54.7 188.69,54.7 189.08,54.69 189.47,54.69 189.87,54.69 190.26,54.68 190.66,54.69 191.05,54.69 191.45,54.69 191.84,54.69 192.24,54.69 192.63,54.68 193.02,54.68 193.42,54.68 193.81,54.68 194.21,54.68 194.6,54.69 195,54.69 195.39,54.69 195.79,54.69 196.18,54.68 196.57,54.68 196.97,54.67 197.36,54.66 197.76,54.66 198.15,54.66 198.55,54.66 198.94,54.66 199.34,54.66 199.73,54.66 200.12,54.65 200.52,54.65 200.91,54.64 201.31,54.64 201.7,54.64 202.1,54.65 202.49,54.65 202.89,54.65 203.28,54.65 203.67,54.65 204.07,54.65 204.46,54.64 204.86,54.64 205.25,54.64 205.65,54.64 206.04,54.64 206.44,54.65 206.83,54.64 207.22,54.64 207.62,54.64 208.01,54.63 208.41,54.62 208.8,54.62 209.2,54.62 209.59,54.63 209.99,54.64 210.38,54.64 210.77,54.64 211.17,54.64 211.56,54.64 211.96,54.63 212.35,54.63 212.75,54.63 213.14,54.62 213.54,54.62 213.93,54.62 214.32,54.62 214.72,54.62 215.11,54.62 215.51,54.62 215.9,54.62 216.3,54.63 216.69,54.62 217.09,54.62 217.48,54.62 217.87,54.62 218.27,54.62 218.66,54.63 219.06,54.63 219.45,54.62 219.85,54.61 220.24,54.6 220.64,54.61 221.03,54.61 221.42,54.62 221.82,54.62 222.21,54.62 222.61,54.61 223,54.6 223.4,54.61 223.79,54.61 224.19,54.62 224.58,54.62 224.97,54.62 225.37,54.62 225.76,54.61 226.16,54.61 226.55,54.61 226.95,54.61 227.34,54.62 227.74,54.62 228.13,54.61 228.52,54.6 228.92,54.6 229.31,54.59 229.71,54.59 230.1,54.59 230.5,54.59 230.89,54.59 231.29,54.59 231.68,54.59 232.07,54.6 232.47,54.6 232.86,54.6 233.26,54.6 233.65,54.6 234.05,54.6 234.44,54.6 234.84,54.6 235.23,54.6 235.62,54.6 236.02,54.6 236.41,54.6 236.81,54.6 237.2,54.6 237.6,54.59 237.99,54.58 238.39,54.58 238.78,54.58 239.17,54.58 239.57,54.58 239.96,54.58 240.36,54.58 240.75,54.58 241.15,54.59 241.54,54.59 241.94,54.58 242.33,54.58 242.72,54.58 243.12,54.58 243.51,54.59 243.91,54.59 244.3,54.59 244.7,54.59 245.09,54.59 245.49,54.59 245.88,54.59 246.27,54.59 246.67,54.59 247.06,54.59 247.46,54.59 247.85,54.6 248.25,54.6 248.64,54.6 249.04,54.6 249.43,54.6 249.82,54.6 250.22,54.59 250.61,54.59 251.01,54.59 251.4,54.59 251.8,54.58 252.19,54.58 252.59,54.57 252.98,54.57 253.37,54.57 253.77,54.58 254.16,54.58 254.56,54.58 254.95,54.59 255.35,54.59 255.74,54.59 256.14,54.59 256.53,54.59 256.92,54.59 257.32,54.6 257.71,54.6 258.11,54.6 258.5,54.59 258.9,54.58 259.29,54.56 259.69,54.54 260.08,54.52 260.47,54.51 260.87,54.5 261.26,54.5" stroke-dasharray="none" stroke="rgb(77,175,74)" stroke-width="0.75" opacity="1" stroke-opacity="1" fill="none"/>
          </g>
          <g id="Fig:densplot_01.xyplot.lines.group.12.panel.1.1.1">
            <polyline id="Fig:densplot_01.xyplot.lines.group.12.panel.1.1.1.1" points="59.53,54.55 59.93,54.84 60.32,56.22 60.72,61.01 61.11,73.28 61.51,96.12 61.9,126.45 62.3,153.26 62.69,164.55 63.09,157.24 63.48,138.67 63.88,119.04 64.27,104.12 64.67,94.51 65.06,88.53 65.46,84.52 65.85,81.51 66.25,79.02 66.64,76.85 67.04,74.9 67.43,73.13 67.83,71.55 68.22,70.15 68.62,68.92 69.01,67.85 69.41,66.95 69.8,66.19 70.2,65.54 70.59,64.96 70.99,64.42 71.38,63.9 71.78,63.42 72.17,62.99 72.57,62.61 72.96,62.27 73.36,61.96 73.75,61.69 74.15,61.43 74.55,61.15 74.94,60.84 75.34,60.55 75.73,60.31 76.13,60.13 76.52,59.99 76.92,59.86 77.31,59.72 77.71,59.58 78.1,59.44 78.5,59.31 78.89,59.17 79.29,59.02 79.68,58.86 80.08,58.72 80.47,58.6 80.87,58.5 81.26,58.43 81.66,58.36 82.05,58.31 82.45,58.25 82.84,58.18 83.24,58.1 83.63,58.01 84.03,57.92 84.42,57.85 84.82,57.78 85.21,57.71 85.61,57.65 86,57.59 86.4,57.52 86.79,57.43 87.19,57.35 87.58,57.28 87.98,57.24 88.37,57.21 88.77,57.19 89.16,57.13 89.56,57.04 89.95,56.94 90.35,56.86 90.74,56.81 91.14,56.79 91.54,56.78 91.93,56.77 92.33,56.75 92.72,56.71 93.12,56.68 93.51,56.66 93.91,56.66 94.3,56.67 94.7,56.67 95.09,56.65 95.49,56.59 95.88,56.53 96.28,56.46 96.67,56.41 97.07,56.36 97.46,56.33 97.86,56.29 98.25,56.25 98.65,56.21 99.04,56.19 99.44,56.18 99.83,56.18 100.23,56.16 100.62,56.15 101.02,56.13 101.41,56.1 101.81,56.08 102.2,56.06 102.6,56.04 102.99,56.02 103.39,56.01 103.78,55.99 104.18,55.98 104.57,55.96 104.97,55.94 105.36,55.92 105.76,55.9 106.15,55.89 106.55,55.88 106.94,55.86 107.34,55.83 107.73,55.79 108.13,55.76 108.52,55.73 108.92,55.71 109.32,55.69 109.71,55.67 110.11,55.64 110.5,55.63 110.9,55.63 111.29,55.66 111.69,55.68 112.08,55.67 112.48,55.64 112.87,55.6 113.27,55.56 113.66,55.53 114.06,55.51 114.45,55.5 114.85,55.49 115.24,55.49 115.64,55.49 116.03,55.49 116.43,55.48 116.82,55.48 117.22,55.47 117.61,55.47 118.01,55.47 118.4,55.45 118.8,55.43 119.19,55.41 119.59,55.39 119.98,55.38 120.38,55.38 120.77,55.37 121.17,55.35 121.56,55.33 121.96,55.31 122.35,55.3 122.75,55.3 123.14,55.3 123.54,55.3 123.93,55.3 124.33,55.29 124.72,55.29 125.12,55.28 125.51,55.28 125.91,55.27 126.31,55.25 126.7,55.24 127.1,55.23 127.49,55.22 127.89,55.23 128.28,55.24 128.68,55.24 129.07,55.24 129.47,55.23 129.86,55.21 130.26,55.19 130.65,55.16 131.05,55.14 131.44,55.13 131.84,55.13 132.23,55.13 132.63,55.12 133.02,55.12 133.42,55.11 133.81,55.1 134.21,55.09 134.6,55.08 135,55.07 135.39,55.08 135.79,55.09 136.18,55.1 136.58,55.11 136.97,55.11 137.37,55.1 137.76,55.1 138.16,55.09 138.55,55.08 138.95,55.08 139.34,55.07 139.74,55.05 140.13,55.03 140.53,55.01 140.92,55.01 141.32,55.01 141.71,55.01 142.11,55.01 142.5,55.01 142.9,55.02 143.29,55.03 143.69,55.04 144.09,55.03 144.48,55.02 144.88,55 145.27,54.99 145.67,54.98 146.06,54.97 146.46,54.96 146.85,54.95 147.25,54.94 147.64,54.93 148.04,54.92 148.43,54.92 148.83,54.91 149.22,54.91 149.62,54.9 150.01,54.9 150.41,54.9 150.8,54.91 151.2,54.91 151.59,54.92 151.99,54.91 152.38,54.9 152.78,54.89 153.17,54.89 153.57,54.89 153.96,54.9 154.36,54.91 154.75,54.91 155.15,54.91 155.54,54.9 155.94,54.88 156.33,54.88 156.73,54.87 157.12,54.87 157.52,54.86 157.91,54.85 158.31,54.85 158.7,54.85 159.1,54.86 159.49,54.86 159.89,54.87 160.28,54.87 160.68,54.86 161.08,54.85 161.47,54.83 161.87,54.82 162.26,54.81 162.66,54.8 163.05,54.8 163.45,54.8 163.84,54.81 164.24,54.81 164.63,54.82 165.03,54.82 165.42,54.82 165.82,54.82 166.21,54.81 166.61,54.81 167,54.81 167.4,54.81 167.79,54.81 168.19,54.81 168.58,54.81 168.98,54.81 169.37,54.8 169.77,54.8 170.16,54.79 170.56,54.78 170.95,54.77 171.35,54.77 171.74,54.76 172.14,54.76 172.53,54.76 172.93,54.76 173.32,54.76 173.72,54.75 174.11,54.75 174.51,54.76 174.9,54.76 175.3,54.76 175.69,54.75 176.09,54.74 176.48,54.74 176.88,54.74 177.27,54.75 177.67,54.76 178.07,54.77 178.46,54.77 178.86,54.76 179.25,54.75 179.65,54.75 180.04,54.75 180.44,54.75 180.83,54.75 181.23,54.74 181.62,54.73 182.02,54.72 182.41,54.71 182.81,54.7 183.2,54.7 183.6,54.71 183.99,54.71 184.39,54.72 184.78,54.72 185.18,54.72 185.57,54.71 185.97,54.7 186.36,54.7 186.76,54.69 187.15,54.7 187.55,54.7 187.94,54.7 188.34,54.7 188.73,54.7 189.13,54.7 189.52,54.7 189.92,54.7 190.31,54.69 190.71,54.69 191.1,54.68 191.5,54.68 191.89,54.67 192.29,54.68 192.68,54.68 193.08,54.68 193.47,54.68 193.87,54.68 194.26,54.68 194.66,54.69 195.05,54.69 195.45,54.69 195.85,54.68 196.24,54.68 196.64,54.68 197.03,54.68 197.43,54.69 197.82,54.7 198.22,54.71 198.61,54.7 199.01,54.7 199.4,54.69 199.8,54.68 200.19,54.68 200.59,54.68 200.98,54.67 201.38,54.67 201.77,54.67 202.17,54.66 202.56,54.66 202.96,54.66 203.35,54.66 203.75,54.66 204.14,54.67 204.54,54.67 204.93,54.67 205.33,54.66 205.72,54.66 206.12,54.66 206.51,54.67 206.91,54.67 207.3,54.66 207.7,54.66 208.09,54.65 208.49,54.65 208.88,54.65 209.28,54.65 209.67,54.65 210.07,54.65 210.46,54.65 210.86,54.66 211.25,54.66 211.65,54.67 212.04,54.67 212.44,54.67 212.84,54.66 213.23,54.66 213.63,54.65 214.02,54.65 214.42,54.64 214.81,54.64 215.21,54.64 215.6,54.64 216,54.64 216.39,54.64 216.79,54.65 217.18,54.65 217.58,54.65 217.97,54.65 218.37,54.65 218.76,54.65 219.16,54.65 219.55,54.65 219.95,54.64 220.34,54.64 220.74,54.63 221.13,54.63 221.53,54.62 221.92,54.62 222.32,54.62 222.71,54.62 223.11,54.63 223.5,54.63 223.9,54.63 224.29,54.62 224.69,54.61 225.08,54.61 225.48,54.61 225.87,54.61 226.27,54.61 226.66,54.61 227.06,54.61 227.45,54.61 227.85,54.61 228.24,54.61 228.64,54.6 229.03,54.6 229.43,54.61 229.82,54.62 230.22,54.62 230.62,54.63 231.01,54.63 231.41,54.63 231.8,54.63 232.2,54.62 232.59,54.61 232.99,54.61 233.38,54.6 233.78,54.6 234.17,54.6 234.57,54.6 234.96,54.61 235.36,54.61 235.75,54.61 236.15,54.61 236.54,54.6 236.94,54.6 237.33,54.59 237.73,54.59 238.12,54.6 238.52,54.6 238.91,54.61 239.31,54.61 239.7,54.62 240.1,54.61 240.49,54.61 240.89,54.61 241.28,54.61 241.68,54.61 242.07,54.61 242.47,54.6 242.86,54.59 243.26,54.59 243.65,54.59 244.05,54.59 244.44,54.59 244.84,54.59 245.23,54.59 245.63,54.59 246.02,54.59 246.42,54.59 246.81,54.59 247.21,54.58 247.61,54.58 248,54.58 248.4,54.58 248.79,54.59 249.19,54.59 249.58,54.59 249.98,54.59 250.37,54.59 250.77,54.59 251.16,54.59 251.56,54.6 251.95,54.61 252.35,54.61 252.74,54.61 253.14,54.61 253.53,54.6 253.93,54.59 254.32,54.58 254.72,54.58 255.11,54.58 255.51,54.58 255.9,54.58 256.3,54.58 256.69,54.58 257.09,54.58 257.48,54.58 257.88,54.59 258.27,54.59 258.67,54.59 259.06,54.57 259.46,54.55 259.85,54.53 260.25,54.51 260.64,54.51 261.04,54.5 261.43,54.5" stroke-dasharray="none" stroke="rgb(77,175,74)" stroke-width="0.75" opacity="1" stroke-opacity="1" fill="none"/>
          </g>
        </g>
        <g id="Fig:densplot_01.panel.1.1.off.vp.2">
          <g id="Fig:densplot_01.border.panel.1.1.1">
            <rect id="Fig:densplot_01.border.panel.1.1.1.1" x="44.8" y="42.19" width="231.2" height="200.52" transform="" stroke="rgb(0,0,0)" stroke-dasharray="none" stroke-width="0.75" opacity="1" fill="none" stroke-opacity="1" fill-opacity="0"/>
          </g>
        </g>
        <g id="Fig:densplot_01..1"/>
      </g>
    </g>
  </g>
</svg>